<?xml version="1.0" encoding="utf-8"?>
<!-- Generator: Adobe Illustrator 23.0.1, SVG Export Plug-In . SVG Version: 6.00 Build 0)  -->
<svg version="1.1" id="Layer_1" xmlns="http://www.w3.org/2000/svg" xmlns:xlink="http://www.w3.org/1999/xlink" x="0px" y="0px"
	 viewBox="0 0 800 455" style="enable-background:new 0 0 800 455;" xml:space="preserve">
<style type="text/css">
	.st0{fill:#EFEFEF;}
	.st1{fill:#EAEAEA;}
	.st2{fill:#7F7F7F;}
	.st3{fill:#DBDBDB;}
	.st4{enable-background:new    ;}
	.st5{fill:#76BCBC;}
	.st6{fill:#426A6A;}
	.st7{fill:#528484;}
	.st8{fill:#858585;}
	.st9{fill:#6C6C6C;}
	.st10{fill:#BFBFBF;}
	.st11{fill:#868686;}
	.st12{fill:#DD8080;}
	.st13{fill:#6E6E6E;}
	.st14{fill:#FFFFFF;}
	.st15{display:none;fill:#84D3D3;}
	.st16{display:none;fill:#858585;}
	.st17{fill:#E0E0E0;}
	.st18{fill:#797979;}
	.st19{fill:#212121;}
	.st20{fill:#959595;}
	.st21{fill:#D7D7D7;}
	.st22{fill:#A7A7A7;}
	.st23{fill:#C0C0C0;}
	.st24{fill:#A9A9A9;}
	.st25{fill:#C7C7C7;}
</style>
<polygon class="st0" points="183.5,31.5 742.3,39.1 727.3,183.5 721.5,400.9 585.5,412.5 437.8,416.4 231.6,421 181.5,418.4 
	176.5,303.8 153.5,304.1 173.7,110 "/>
<g id="nopointer">
	<polygon class="st1" points="33.7,282.2 29.1,213 30.7,213 35.6,282.2 	"/>
	
		<rect x="716.6" y="211.7" transform="matrix(4.614633e-02 -0.9989 0.9989 4.614633e-02 483.6609 931.6919)" class="st2" width="26.1" height="1.7"/>
	<polygon class="st3" points="30.4,208.9 35.6,283.7 178.2,304 227.2,305.7 231.3,170.6 180.5,170.6 179.4,209.1 	"/>
	<rect x="685.9" y="199.5" class="st2" width="1.7" height="26.1"/>
	<rect x="176.5" y="303.8" class="st2" width="1.7" height="26.1"/>
	<g>
		<g>
			<g class="st4">
				<g>
					<polygon class="st5" points="683.5,187.7 724.7,187.8 724.5,192 683.6,192.1 					"/>
				</g>
				<g>
					<polygon class="st6" points="728.9,192 731.2,201.2 685.9,201.2 683.6,192.1 					"/>
				</g>
			</g>
		</g>
	</g>
	<g>
		<g>
			<g class="st4">
				<g>
					<polygon class="st7" points="687.4,214.5 689.7,223.6 688.4,266.5 686.1,257.4 					"/>
				</g>
				<g>
					<polygon class="st6" points="686.1,257.4 688.4,266.5 684,266.5 681.7,257.4 					"/>
				</g>
				<g>
					<polygon class="st5" points="687.4,214.5 686.1,257.4 681.7,257.4 682.9,214.5 					"/>
				</g>
			</g>
		</g>
	</g>
	<g>
		<g>
			<g class="st4">
				<g>
					<polygon class="st8" points="177.9,327.3 180.2,336.4 181.5,422.8 179.2,413.6 					"/>
				</g>
				<g>
					<polygon class="st9" points="179.2,413.6 181.5,422.8 177.7,422.8 175.3,413.6 					"/>
				</g>
				<g>
					<polygon class="st10" points="177.9,327.3 179.2,413.6 175.3,413.6 173.9,327.3 					"/>
				</g>
			</g>
		</g>
	</g>
	<g>
		<g>
			<g class="st4">
				<g>
					<polygon class="st7" points="220.2,409.4 222.5,418.5 222.4,422.6 220.1,413.5 					"/>
				</g>
				<g>
					<polygon class="st6" points="220.1,413.5 222.4,422.6 181.5,422.8 179.2,413.7 					"/>
				</g>
				<g>
					<polygon class="st5" points="179.1,409.3 220.2,409.4 220.1,413.5 179.2,413.7 					"/>
				</g>
			</g>
		</g>
	</g>
	<g>
		<g>
			<g class="st4">
				<g>
					<polygon class="st11" points="246.4,409.3 248.7,418.4 248.6,422.6 246.3,413.5 					"/>
				</g>
				<g>
					<polygon class="st9" points="246.3,413.5 248.6,422.6 222.4,422.6 220.1,413.5 					"/>
				</g>
				<g>
					<polygon class="st10" points="246.4,409.3 246.3,413.5 220.1,413.5 220.3,409.3 					"/>
				</g>
			</g>
		</g>
	</g>
	<g>
		<g>
			<g class="st4">
				<g>
					<polygon class="st7" points="722.9,257.1 725.2,266.2 725,270.3 722.7,261.2 					"/>
				</g>
				<g>
					<polygon class="st6" points="722.7,261.2 725,270.3 684.1,270.5 681.8,261.3 					"/>
				</g>
				<g>
					<polygon class="st5" points="681.7,257 722.9,257.1 722.7,261.2 681.8,261.3 					"/>
				</g>
			</g>
		</g>
	</g>
	<rect x="633.7" y="37.6" class="st2" width="30.6" height="1.7"/>
	<rect x="183.5" y="31.5" class="st2" width="42.3" height="1.7"/>
	<g>
		<g>
			<g class="st4">
				<g>
					<polygon class="st11" points="221.7,293.2 224,302.3 223.3,325.4 221,316.2 					"/>
				</g>
				<g>
					<polygon class="st9" points="221,316.2 223.3,325.4 198.1,325.4 195.8,316.2 					"/>
				</g>
				<g>
					<polygon class="st12" points="221.7,293.2 221,316.2 195.8,316.2 196.5,293.2 					"/>
				</g>
			</g>
		</g>
	</g>
	<g>
		<g>
			<g class="st4">
				<g>
					<polygon class="st11" points="693.9,369.8 696.3,378.9 695.6,401.9 693.3,392.8 					"/>
				</g>
				<g>
					<polygon class="st9" points="693.3,392.8 695.6,401.9 670.4,403.4 668,394.3 					"/>
				</g>
				<g>
					<polygon class="st12" points="693.9,369.8 693.3,392.8 668,394.3 668.8,369.8 					"/>
				</g>
			</g>
		</g>
	</g>
	<g>
		<g>
			<g class="st4">
				<g>
					<polygon class="st11" points="719.9,369.7 722.2,378.9 721.5,400.9 719.2,391.8 					"/>
				</g>
				<g>
					<polygon class="st9" points="719.2,391.8 721.5,400.9 696.3,401.9 694,392.8 					"/>
				</g>
				<g>
					<polygon class="st12" points="719.9,369.7 719.2,391.8 694,392.8 694.7,369.7 					"/>
				</g>
			</g>
		</g>
	</g>
	<g>
		<g>
			<g class="st4">
				<g>
					<polygon class="st11" points="632,28.5 634.3,37.6 634.2,41.7 631.9,32.6 					"/>
				</g>
				<g>
					<polygon class="st9" points="631.9,32.6 634.2,41.7 586.7,41.7 584.4,32.6 					"/>
				</g>
				<g>
					<polygon class="st10" points="632,28.5 631.9,32.6 584.4,32.6 584.6,28.5 					"/>
				</g>
			</g>
		</g>
	</g>
	<g>
		<g>
			<g class="st4">
				<g>
					<polygon class="st11" points="634.1,306.8 636.3,315.5 633.6,406.2 631.4,397.5 					"/>
				</g>
				<g>
					<polygon class="st9" points="631.4,397.5 633.6,406.2 629.2,406.2 627,397.5 					"/>
				</g>
				<g>
					<polygon class="st10" points="634.1,306.8 631.4,397.5 627,397.5 629.7,306.8 					"/>
				</g>
			</g>
		</g>
	</g>
	<g>
		<g>
			<g class="st4">
				<g>
					<polygon class="st11" points="119.3,383.3 121.6,392.4 120,444.7 117.7,435.6 					"/>
				</g>
				<g>
					<polygon class="st13" points="117.7,435.6 120,444.7 115.6,445.4 113.3,436.3 					"/>
				</g>
				<g>
					<polygon class="st10" points="119.3,383.3 117.7,435.6 113.3,436.3 114.9,383.3 					"/>
				</g>
			</g>
		</g>
	</g>
	<g>
		<g>
			<g class="st4">
				<g>
					<polygon class="st11" points="226.1,293.2 228.4,302.4 225.4,402.7 223.1,393.5 					"/>
				</g>
				<g>
					<polygon class="st9" points="223.1,393.5 225.4,402.7 221,402.7 218.6,393.5 					"/>
				</g>
				<g>
					<polygon class="st10" points="226.1,293.2 223.1,393.5 218.6,393.5 221.7,293.2 					"/>
				</g>
			</g>
		</g>
	</g>
	<g>
		<g>
			<g class="st4">
				<g>
					<polygon class="st11" points="653.8,306.7 655.4,312.7 655.2,316.9 653.7,310.9 					"/>
				</g>
				<g>
					<polygon class="st9" points="653.7,310.9 655.2,316.9 635,316.9 633.5,310.9 					"/>
				</g>
				<g>
					<polygon class="st10" points="653.8,306.7 653.7,310.9 633.5,310.9 633.6,306.7 					"/>
				</g>
			</g>
		</g>
	</g>
	<g>
		<g>
			<g class="st4">
				<g>
					<polygon class="st11" points="656.4,306.8 658.6,315.4 655.9,404.6 653.7,396 					"/>
				</g>
				<g>
					<polygon class="st9" points="653.7,396 655.9,404.6 651.5,404.6 649.3,396 					"/>
				</g>
				<g>
					<polygon class="st10" points="656.4,306.8 653.7,396 649.3,396 652,306.8 					"/>
				</g>
			</g>
		</g>
	</g>
	<g>
		<g>
			<g class="st4">
				<g>
					<polygon class="st11" points="722.3,392 724.6,401.2 724.6,405.5 722.2,396.3 					"/>
				</g>
				<g>
					<polygon class="st9" points="722.2,396.3 724.6,405.5 581.1,413.7 578.8,404.6 					"/>
				</g>
				<g>
					<polygon class="st10" points="722.3,392 722.2,396.3 578.8,404.6 578.9,399.7 					"/>
				</g>
			</g>
		</g>
	</g>
	<g>
		<polygon class="st0" points="729.7,201.3 725.3,201.3 724.9,216.3 729.3,216.3 		"/>
		<polygon class="st7" points="731.2,201.2 733,141.5 730.7,132.6 728.6,201.2 		"/>
		<polygon class="st7" points="722.8,396.5 725.1,405.5 730.5,221.6 728.2,214.5 		"/>
		<polygon class="st5" points="730.7,132.6 726.3,132.6 724.5,192 728.9,192 		"/>
		<polygon class="st0" points="720,201.2 720,214.5 723.8,214.5 724.2,201.2 		"/>
		<polygon class="st14" points="735.9,201.2 731.2,201.2 730.8,214.5 735.9,214.5 		"/>
		<polygon class="st5" points="723.8,214.5 718.4,396.5 722.8,396.5 728.2,214.5 		"/>
	</g>
	<g>
		<polygon class="st6" points="722.8,396.5 725.1,405.5 720.6,405.5 718.4,396.5 		"/>
	</g>
	<polygon class="st15" points="26.7,204.4 31.5,204.4 37.8,282.4 33.7,282.4 	"/>
	<polygon class="st16" points="31.5,204.1 33.7,217.8 38.3,282.1 37.8,282.1 	"/>
	<g>
		<g>
			<g class="st4">
				<g>
					<polygon class="st11" points="631.9,32.6 634.2,41.7 630.6,161.3 628.3,152.2 					"/>
				</g>
				<g>
					<polygon class="st9" points="628.3,152.2 630.6,161.3 626.2,161.3 623.9,152.2 					"/>
				</g>
				<g>
					<polygon class="st10" points="631.9,32.6 628.3,152.2 623.9,152.2 627.5,32.6 					"/>
				</g>
			</g>
		</g>
	</g>
	<g>
		<path class="st17" d="M160.4,399.9l-7.1,7.1c-0.4,0.4-0.4,1.1,0,1.6c0.4,0.4,1.1,0.4,1.6,0l5.2-5.4v19c0,0.8,0.5,1.3,1.1,1.3
			s1.1-0.5,1.1-1.1v-19l5.2,5.2c0.4,0.4,1.1,0.4,1.6,0c0.2-0.2,0.3-0.5,0.3-0.8s-0.1-0.6-0.3-0.8l-7.1-7.1
			C161.6,399.5,160.9,399.5,160.4,399.9z"/>
	</g>
	<g>
		<path class="st17" d="M739.6,211.8l7.1,7.1c0.4,0.4,1.1,0.4,1.6,0c0.4-0.4,0.4-1.1,0-1.6l-5.2-5.2h19c0.6,0,1.1-0.5,1.1-1.1
			s-0.5-1.1-1.1-1.1h-19l5.2-5.2c0.4-0.4,0.4-1.1,0-1.6c-0.2-0.2-0.5-0.3-0.8-0.3s-0.6,0.1-0.8,0.3l-7.1,7.1
			C739.1,210.6,739.1,211.3,739.6,211.8z"/>
	</g>
	<g>
		<path class="st17" d="M647.8,45.2l-7.2,7c-0.4,0.4-0.4,1.1,0,1.6c0.4,0.4,1.1,0.4,1.6,0l5.3-5.1l-0.3,19c0,0.6,0.5,1.1,1.1,1.1
			s1.1-0.5,1.1-1.1l0.3-19l5.1,5.3c0.4,0.4,1.1,0.4,1.6,0c0.2-0.2,0.3-0.5,0.3-0.8s-0.1-0.6-0.3-0.8l-7-7.2
			C648.9,44.8,648.2,44.8,647.8,45.2z"/>
	</g>
	<g>
		<path class="st17" d="M202.9,45.2l-7.1,7.1c-0.4,0.4-0.4,1.1,0,1.6c0.4,0.4,1.1,0.4,1.6,0l5.2-5.2v19c0,0.6,0.5,1.1,1.1,1.1
			s1.1-0.5,1.1-1.1v-19l5.2,5.2c0.4,0.4,1.1,0.4,1.6,0c0.2-0.2,0.3-0.5,0.3-0.8s-0.1-0.6-0.3-0.8l-7.1-7.1
			C204,44.8,203.3,44.8,202.9,45.2z"/>
	</g>
	<g>
		<path class="st17" d="M47.5,249.2l7.1,7.1c0.4,0.4,1.1,0.4,1.6,0c0.4-0.4,0.4-1.1,0-1.6l-5.2-5.2h19c0.6,0,1.1-0.5,1.1-1.1
			s-0.5-1.1-1.1-1.1H51l5.2-5.2c0.4-0.4,0.4-1.1,0-1.6c-0.2-0.2-0.5-0.3-0.8-0.3s-0.6,0.1-0.8,0.3l-7.1,7.1
			C47,247.9,47,248.7,47.5,249.2z"/>
	</g>
	<polyline class="st18" points="227.1,283.4 228,300.1 297.8,300.9 	"/>
	<g>
		<g>
			<path class="st19" d="M675.6,377.6c-0.2-0.2-0.3-0.5-0.3-0.8s0.1-0.5,0.3-0.7s0.5-0.3,0.8-0.3s0.5,0.1,0.7,0.3
				c0.2,0.2,0.3,0.5,0.3,0.8s-0.1,0.5-0.3,0.7s-0.5,0.3-0.8,0.3S675.8,377.8,675.6,377.6z M674.2,382.6c0.1,0.1,0.1,0.1,0.2,0.1
				s0.2,0,0.2-0.1s0.1-0.1,0.1-0.3v-2.7v-0.1c0,0,0-0.1,0.1-0.1h0.1h0.1c0,0,0.1,0,0.1,0.1l-0.1,6.6c0,0.1,0,0.2,0.1,0.3
				c0.1,0.1,0.2,0.1,0.3,0.1s0.2,0,0.3-0.1s0.1-0.2,0.1-0.3v-2.6v-1.4c0-0.1,0-0.1,0.1-0.1s0.1,0,0.1,0h0.1c0.1,0,0.1,0.1,0.1,0.1
				v1.4v2.6c0,0.1,0,0.2,0.1,0.3c0.1,0.1,0.2,0.1,0.3,0.1s0.3,0,0.4-0.1c0.1-0.1,0.1-0.2,0.1-0.3l0.1-6.6c0,0,0-0.1,0.1-0.1h0.1h0.1
				c0,0,0.1,0,0.1,0.1v0.1v2.7c0,0.1,0,0.2,0.1,0.3c0.1,0.1,0.1,0.1,0.2,0.1s0.2,0,0.2-0.1c0.1-0.1,0.1-0.1,0.1-0.3v-3
				c0-0.3-0.1-0.6-0.3-0.8c-0.2-0.2-0.5-0.4-0.8-0.4h-1.2l0,0h-1.1c-0.3,0-0.6,0.1-0.7,0.3c-0.2,0.2-0.2,0.5-0.2,0.8v3
				C674.1,382.5,674.1,382.5,674.2,382.6z M685.7,374.2c0.1,0.1,0.2,0.3,0.2,0.5l-0.2,13.1c0,0.2-0.1,0.3-0.2,0.5
				c-0.1,0.1-0.3,0.2-0.5,0.2l-12.5-0.2c-0.2,0-0.4-0.1-0.5-0.2s-0.2-0.3-0.2-0.5l0.2-13.1c0-0.2,0.1-0.3,0.2-0.5
				c0.1-0.1,0.3-0.2,0.5-0.2l12.5,0.2C685.4,374,685.5,374.1,685.7,374.2z M684.8,375.1l-11.7-0.2l-0.2,12.2l11.7,0.2L684.8,375.1
				L684.8,375.1z M681.4,378c0.3,0,0.5-0.1,0.8-0.3s0.3-0.4,0.3-0.7s-0.1-0.5-0.3-0.8c-0.2-0.2-0.4-0.3-0.7-0.3s-0.5,0.1-0.8,0.3
				c-0.2,0.2-0.3,0.4-0.3,0.7s0.1,0.5,0.3,0.8C680.8,377.9,681.1,378,681.4,378z M679.2,382.7c0.1,0.1,0.1,0.1,0.2,0.1
				s0.2,0,0.2-0.1s0.1-0.1,0.1-0.3v-2.7v-0.1c0,0,0-0.1,0.1-0.1h0.1h0.1c0,0,0.1,0,0.1,0.1l-0.1,6.6c0,0.1,0,0.2,0.1,0.3
				c0.1,0.1,0.2,0.1,0.3,0.1s0.2,0,0.3-0.1s0.1-0.2,0.1-0.3v-2.6v-1.4c0-0.1,0-0.1,0.1-0.1s0.1,0,0.1,0h0.1c0.1,0,0.1,0.1,0.1,0.1
				v1.4v2.6c0,0.1,0,0.2,0.1,0.3c0.1,0.1,0.2,0.1,0.3,0.1s0.2,0,0.3-0.1s0.1-0.2,0.1-0.3l0.1-6.6c0,0,0-0.1,0.1-0.1h0.1h0.1
				c0,0,0.1,0,0.1,0.1v0.1v2.7c0,0.1,0,0.2,0.1,0.3c0.1,0.1,0.1,0.1,0.2,0.1s0.2,0,0.2-0.1c0.1-0.1,0.1-0.1,0.1-0.3v-3
				c0-0.3-0.1-0.6-0.3-0.8c-0.2-0.2-0.5-0.4-0.8-0.4h-1.2l0,0l0,0h-1.1c-0.3,0-0.6,0.1-0.8,0.3c-0.2,0.2-0.2,0.5-0.3,0.8v3
				C679.1,382.5,679.1,382.6,679.2,382.7z M690.6,386c-0.4,0-1,0-1,0s0-0.2,0-0.4c0-0.8,0-2.3,0-2.9c0,0,0-0.1-0.2-0.1s-1.3,0-1.5,0
				s-0.2,0.2-0.2,0.2c0,0.6,0,2.1,0,2.9c0,0.3,0,0.5,0,0.5s-0.8,0-1.1,0s0,0.3,0,0.3l1.9,2.3c0,0,0.2,0.2,0.3,0
				c0.2-0.2,1.9-2.3,1.9-2.3S691,386,690.6,386z M686.8,377c0.4,0,1,0,1,0s0,0.2,0,0.4c0,0.8,0,2.3,0,2.9c0,0,0,0.1,0.2,0.1
				s1.3,0,1.5,0s0.2-0.2,0.2-0.2c0-0.6,0-2.1,0-2.9c0-0.3,0-0.5,0-0.5s0.8,0,1.1,0s0-0.3,0-0.3l-1.9-2.3c0,0-0.2-0.2-0.3,0
				c-0.2,0.2-1.9,2.3-1.9,2.3S686.5,377,686.8,377z"/>
		</g>
	</g>
	<g>
		<g>
			<path class="st19" d="M701.2,377.5c-0.2-0.2-0.3-0.5-0.3-0.8s0.1-0.5,0.3-0.7s0.5-0.3,0.8-0.3s0.5,0.1,0.7,0.3
				c0.2,0.2,0.3,0.5,0.3,0.8s-0.1,0.5-0.3,0.7s-0.5,0.3-0.8,0.3C701.6,377.8,701.4,377.7,701.2,377.5z M699.8,382.5
				c0.1,0.1,0.1,0.1,0.2,0.1c0.1,0,0.2,0,0.2-0.1c0.1-0.1,0.1-0.1,0.1-0.3v-2.7v-0.1c0,0,0-0.1,0.1-0.1s0.1,0,0.1,0h0.1
				c0,0,0.1,0,0.1,0.1l-0.1,6.6c0,0.1,0,0.2,0.1,0.3c0.1,0.1,0.2,0.1,0.3,0.1s0.2,0,0.3-0.1s0.1-0.2,0.1-0.3v-2.6V382
				c0-0.1,0-0.1,0.1-0.1s0.1,0,0.1,0h0.1l0.1,0.1v1.4v2.6c0,0.1,0,0.2,0.1,0.3c0.1,0.1,0.2,0.1,0.3,0.1s0.3,0,0.4-0.1
				c0.1-0.1,0.1-0.2,0.1-0.3l0.1-6.6c0,0,0-0.1,0.1-0.1h0.1h0.1c0,0,0.1,0,0.1,0.1v0.1v2.7c0,0.1,0,0.2,0.1,0.3
				c0.1,0.1,0.1,0.1,0.2,0.1c0.1,0,0.2,0,0.2-0.1c0.1-0.1,0.1-0.1,0.1-0.3v-3c0-0.3-0.1-0.6-0.3-0.8s-0.5-0.4-0.8-0.4h-1.2l0,0h-1.1
				c-0.3,0-0.6,0.1-0.7,0.3c-0.2,0.2-0.2,0.5-0.2,0.8v3C699.7,382.4,699.7,382.4,699.8,382.5z M711.3,374.1c0.1,0.1,0.2,0.3,0.2,0.5
				l-0.2,13.1c0,0.2-0.1,0.3-0.2,0.5c-0.1,0.1-0.3,0.2-0.5,0.2l-12.5-0.2c-0.2,0-0.4-0.1-0.5-0.2s-0.2-0.3-0.2-0.5l0.2-13.1
				c0-0.2,0.1-0.3,0.2-0.5c0.1-0.1,0.3-0.2,0.5-0.2l12.5,0.2C711,373.9,711.2,374,711.3,374.1z M710.4,375l-11.7-0.2l-0.2,12.2
				l11.7,0.2L710.4,375L710.4,375z M707,377.9c0.3,0,0.5-0.1,0.8-0.3s0.3-0.4,0.3-0.7s-0.1-0.5-0.3-0.8c-0.2-0.2-0.4-0.3-0.7-0.3
				s-0.5,0.1-0.8,0.3c-0.2,0.2-0.3,0.4-0.3,0.7c0,0.3,0.1,0.5,0.3,0.8C706.4,377.8,706.7,377.9,707,377.9z M704.8,382.6
				c0.1,0.1,0.1,0.1,0.2,0.1c0.1,0,0.2,0,0.2-0.1c0.1-0.1,0.1-0.1,0.1-0.3v-2.7v-0.1c0,0,0-0.1,0.1-0.1s0.1,0,0.1,0h0.1
				c0,0,0.1,0,0.1,0.1l-0.1,6.6c0,0.1,0,0.2,0.1,0.3c0.1,0.1,0.2,0.1,0.3,0.1s0.2,0,0.3-0.1s0.1-0.2,0.1-0.3v-2.6v-1.4
				c0-0.1,0-0.1,0.1-0.1s0.1,0,0.1,0h0.1c0.1,0,0.1,0.1,0.1,0.1v1.4v2.6c0,0.1,0,0.2,0.1,0.3c0.1,0.1,0.2,0.1,0.3,0.1s0.2,0,0.3-0.1
				s0.1-0.2,0.1-0.3l0.1-6.6c0,0,0-0.1,0.1-0.1h0.1h0.1c0,0,0.1,0,0.1,0.1v0.1v2.7c0,0.1,0,0.2,0.1,0.3c0.1,0.1,0.1,0.1,0.2,0.1
				c0.1,0,0.2,0,0.2-0.1c0.1-0.1,0.1-0.1,0.1-0.3v-3c0-0.3-0.1-0.6-0.3-0.8c-0.2-0.2-0.5-0.4-0.8-0.4h-1.2l0,0l0,0h-1.1
				c-0.3,0-0.6,0.1-0.8,0.3c-0.2,0.2-0.2,0.5-0.3,0.8v3C704.7,382.4,704.8,382.5,704.8,382.6z M716.2,385.9c-0.4,0-1,0-1,0
				s0-0.2,0-0.4c0-0.8,0-2.3,0-2.9c0,0,0-0.1-0.2-0.1s-1.3,0-1.5,0s-0.2,0.2-0.2,0.2c0,0.6,0,2.1,0,2.9c0,0.3,0,0.5,0,0.5
				s-0.8,0-1.1,0s0,0.3,0,0.3l1.9,2.3c0,0,0.2,0.2,0.3,0c0.2-0.2,1.9-2.3,1.9-2.3S716.6,385.9,716.2,385.9z M712.5,376.9
				c0.4,0,1,0,1,0s0,0.2,0,0.4c0,0.8,0,2.3,0,2.9c0,0,0,0.1,0.2,0.1s1.3,0,1.5,0s0.2-0.2,0.2-0.2c0-0.6,0-2.1,0-2.9
				c0-0.3,0-0.5,0-0.5s0.8,0,1.1,0s0-0.3,0-0.3l-1.9-2.3c0,0-0.2-0.2-0.3,0c-0.2,0.2-1.9,2.3-1.9,2.3S712.1,376.9,712.5,376.9z"/>
		</g>
	</g>
	<g>
		<g>
			<path class="st19" d="M204.5,301.5c-0.2-0.2-0.3-0.5-0.3-0.8s0.1-0.5,0.3-0.7s0.5-0.3,0.8-0.3s0.5,0.1,0.7,0.3
				c0.2,0.2,0.3,0.5,0.3,0.8s-0.1,0.5-0.3,0.7s-0.5,0.3-0.8,0.3S204.7,301.7,204.5,301.5z M203,306.5c0.1,0.1,0.1,0.1,0.2,0.1
				c0.1,0,0.2,0,0.2-0.1c0.1-0.1,0.1-0.1,0.1-0.3v-2.7v-0.1c0,0,0-0.1,0.1-0.1h0.1h0.1c0,0,0.1,0,0.1,0.1l-0.1,6.6
				c0,0.1,0,0.2,0.1,0.3c0.1,0.1,0.2,0.1,0.3,0.1s0.2,0,0.3-0.1s0.1-0.2,0.1-0.3v-2.6V306c0-0.1,0-0.1,0.1-0.1s0.1,0,0.1,0h0.1
				c0.1,0,0.1,0.1,0.1,0.1v1.4v2.6c0,0.1,0,0.2,0.1,0.3c0.1,0.1,0.2,0.1,0.3,0.1s0.3,0,0.4-0.1c0.1-0.1,0.1-0.2,0.1-0.3l0.1-6.6
				c0,0,0-0.1,0.1-0.1s0.1,0,0.1,0h0.1c0,0,0.1,0,0.1,0.1v0.1v2.7c0,0.1,0,0.2,0.1,0.3s0.1,0.1,0.2,0.1c0.1,0,0.2,0,0.2-0.1
				c0.1-0.1,0.1-0.1,0.1-0.3v-3c0-0.3-0.1-0.6-0.3-0.8c-0.2-0.2-0.5-0.4-0.8-0.4h-1.2l0,0h-1.1c-0.3,0-0.6,0.1-0.7,0.3
				c-0.2,0.2-0.2,0.5-0.2,0.8v3C202.9,306.4,203,306.5,203,306.5z M214.5,298.2c0.1,0.1,0.2,0.3,0.2,0.5l-0.2,13.1
				c0,0.2-0.1,0.3-0.2,0.5c-0.1,0.1-0.3,0.2-0.5,0.2l-12.5-0.2c-0.2,0-0.4-0.1-0.5-0.2s-0.2-0.3-0.2-0.5l0.2-13.1
				c0-0.2,0.1-0.3,0.2-0.5c0.1-0.1,0.3-0.2,0.5-0.2L214,298C214.3,298,214.4,298,214.5,298.2z M213.6,299l-11.7-0.2l-0.2,12.2
				l11.7,0.2L213.6,299L213.6,299z M210.3,301.9c0.3,0,0.5-0.1,0.8-0.3s0.3-0.4,0.3-0.7s-0.1-0.5-0.3-0.8c-0.2-0.2-0.4-0.3-0.7-0.3
				s-0.5,0.1-0.8,0.3c-0.2,0.2-0.3,0.4-0.3,0.7s0.1,0.5,0.3,0.8C209.7,301.8,210,301.9,210.3,301.9z M208.1,306.6
				c0.1,0.1,0.1,0.1,0.2,0.1s0.2,0,0.2-0.1s0.1-0.1,0.1-0.3v-2.7v-0.1c0,0,0-0.1,0.1-0.1h0.1h0.1c0,0,0.1,0,0.1,0.1l-0.1,6.6
				c0,0.1,0,0.2,0.1,0.3c0.1,0.1,0.2,0.1,0.3,0.1s0.2,0,0.3-0.1s0.1-0.2,0.1-0.3v-2.6v-1.4c0-0.1,0-0.1,0.1-0.1s0.1,0,0.1,0h0.1
				c0.1,0,0.1,0.1,0.1,0.1v1.4v2.6c0,0.1,0,0.2,0.1,0.3c0.1,0.1,0.2,0.1,0.3,0.1s0.2,0,0.3-0.1s0.1-0.2,0.1-0.3l0.1-6.6
				c0,0,0-0.1,0.1-0.1h0.1h0.1c0,0,0.1,0,0.1,0.1v0.1v2.7c0,0.1,0,0.2,0.1,0.3c0.1,0.1,0.1,0.1,0.2,0.1c0.1,0,0.2,0,0.2-0.1
				c0.1-0.1,0.1-0.1,0.1-0.3v-3c0-0.3-0.1-0.6-0.3-0.8c-0.2-0.2-0.5-0.4-0.8-0.4h-1.2l0,0l0,0h-1.1c-0.3,0-0.6,0.1-0.8,0.3
				c-0.2,0.2-0.2,0.5-0.3,0.8v3C208,306.5,208,306.5,208.1,306.6z M219.5,309.9c-0.4,0-1,0-1,0s0-0.2,0-0.4c0-0.8,0-2.3,0-2.9
				c0,0,0-0.1-0.2-0.1s-1.3,0-1.5,0s-0.2,0.2-0.2,0.2c0,0.6,0,2.1,0,2.9c0,0.3,0,0.5,0,0.5s-0.8,0-1.1,0s0,0.3,0,0.3l1.9,2.3
				c0,0,0.2,0.2,0.3,0c0.2-0.2,1.9-2.3,1.9-2.3S219.8,309.9,219.5,309.9z M215.7,300.9c0.4,0,1,0,1,0s0,0.2,0,0.4c0,0.8,0,2.3,0,2.9
				c0,0,0,0.1,0.2,0.1s1.3,0,1.5,0s0.2-0.2,0.2-0.2c0-0.6,0-2.1,0-2.9c0-0.3,0-0.5,0-0.5s0.8,0,1.1,0s0-0.3,0-0.3l-1.9-2.3
				c0,0-0.2-0.2-0.3,0c-0.2,0.2-1.9,2.3-1.9,2.3S215.3,300.9,215.7,300.9z"/>
		</g>
	</g>
	<g>
		<g>
			<g class="st4">
				<g>
					<polygon class="st7" points="176.7,293.4 178.4,300 178.2,304.1 176.6,297.6 					"/>
				</g>
				<g>
					<polygon class="st6" points="176.6,297.6 178.2,304.1 153.5,304.1 151.8,297.6 					"/>
				</g>
				<g>
					<polygon class="st5" points="176.7,293.4 176.6,297.6 151.8,297.6 151.9,293.4 					"/>
				</g>
			</g>
		</g>
	</g>
</g>
<g id="landmark-feri">
	<g id="alfa">
		<g>
			<g class="st4">
				<g>
					<polygon class="st11" points="182.7,22.7 185,31.5 179.4,213.2 177.1,204.3 					"/>
				</g>
				<g>
					<polygon class="st9" points="177.1,204.3 179.4,213.2 29.1,213.2 26.7,204.3 					"/>
				</g>
				<polygon class="st10" points="182.7,22.7 177.1,204.3 26.7,204.3 32.3,22.7 				"/>
			</g>
		</g>
	</g>
	<g id="Referat">
		<g>
			<g class="st4">
				<g>
					<polygon class="st11" points="781.7,31.2 783.6,38.9 780.6,140.4 778.6,132.7 					"/>
				</g>
				<g>
					<polygon class="st9" points="778.6,132.7 780.6,140.4 662.2,140.4 660.2,132.7 					"/>
				</g>
				<g>
					<polygon class="st10" points="781.7,31.2 778.6,132.7 660.2,132.7 663.3,31.2 					"/>
				</g>
			</g>
		</g>
	</g>
	<g id="Oglasna_deska">
		<g>
			<g class="st4">
				<g>
					<polygon class="st11" points="632,185.8 634.3,195 634.2,199.1 631.9,190 					"/>
				</g>
				<g>
					<polygon class="st9" points="631.9,190 634.2,199.1 586.7,199.1 584.4,190 					"/>
				</g>
				<g>
					<polygon class="st10" points="632,185.8 631.9,190 584.4,190 584.6,185.8 					"/>
				</g>
			</g>
		</g>
	</g>
	<g id="beta">
		<g>
			<g class="st4">
				<g>
					<polygon class="st11" points="152.1,282.2 154.4,291.3 151.3,392.8 149,383.7 					"/>
				</g>
				<g>
					<polygon class="st9" points="149,383.7 151.3,392.8 32.9,392.8 30.6,383.7 					"/>
				</g>
				<g>
					<polygon class="st10" points="152.1,282.2 149,383.7 30.6,383.7 33.7,282.2 					"/>
				</g>
			</g>
		</g>
	</g>
	<g id="P-04">
		<g>
			<g class="st4">
				<g>
					<polygon class="st11" points="581.7,322 584,331.1 581.1,413.7 578.8,404.6 					"/>
				</g>
				<g>
					<polygon class="st9" points="578.8,404.6 581.1,413.7 464.3,416.5 462,407.4 					"/>
				</g>
				<g>
					<polygon class="st10" points="581.7,322 578.8,404.6 462,407.4 464.9,324 					"/>
				</g>
			</g>
		</g>
	</g>
	<g id="P-01">
		<g>
			<g class="st4">
				<g>
					<polygon class="st11" points="584.7,28.5 587,37.6 583.3,161.3 580.9,152.1 					"/>
				</g>
				<g>
					<polygon class="st9" points="580.9,152.1 583.3,161.3 446.2,161.3 443.9,152.1 					"/>
				</g>
				<g>
					<polygon class="st10" points="584.7,28.5 580.9,152.1 443.9,152.1 447.6,28.5 					"/>
				</g>
			</g>
		</g>
	</g>
	<g id="P-03">
		<g>
			<g class="st4">
				<g>
					<polygon class="st11" points="300.4,29.6 302.8,39 299.1,161.4 296.7,152.1 					"/>
				</g>
				<g>
					<polygon class="st9" points="296.7,152.1 299.1,161.4 223.5,161.4 221.1,152.1 					"/>
				</g>
				<g>
					<polygon class="st10" points="300.4,29.6 296.7,152.1 221.1,152.1 224.8,29.6 					"/>
				</g>
			</g>
		</g>
	</g>
	<g id="P-02">
		<g>
			<g class="st4">
				<g>
					<polygon class="st11" points="445.6,29.6 448,38.9 444.3,161.4 442,152.1 					"/>
				</g>
				<g>
					<polygon class="st9" points="442,152.1 444.3,161.4 301.4,161.4 299,152.1 					"/>
				</g>
				<g>
					<polygon class="st10" points="445.6,29.6 442,152.1 299,152.1 302.7,29.6 					"/>
				</g>
			</g>
		</g>
	</g>
	<g id="P-06">
		<g>
			<g class="st4">
				<g>
					<polygon class="st11" points="344.4,326.4 346.7,335.6 344.2,419.7 341.9,410.6 					"/>
				</g>
				<g>
					<polygon class="st9" points="341.9,410.6 344.2,419.7 248.5,422.6 246.2,413.4 					"/>
				</g>
				<g>
					<polygon class="st10" points="344.4,326.4 341.9,410.6 246.2,413.4 248.8,326.4 					"/>
				</g>
			</g>
		</g>
	</g>
	<g id="P-05">
		<g>
			<g class="st4">
				<g>
					<polygon class="st11" points="463.2,324.1 465.5,333.4 462.5,416.9 460.2,407.7 					"/>
				</g>
				<g>
					<polygon class="st9" points="460.2,407.7 462.5,416.9 345.7,419.7 343.4,410.5 					"/>
				</g>
				<g>
					<polygon class="st10" points="463.2,324.1 460.2,407.7 343.4,410.5 346.4,326.2 					"/>
				</g>
			</g>
		</g>
	</g>
	<g id="nadstropje0_x5F_5">
		<g>
			<g>
				<g class="st4">
					<g>
						<polygon class="st20" points="235.1,171.3 235.6,172.9 233.5,284.3 233,282.6 						"/>
					</g>
					<g>
						<polygon class="st18" points="233,282.6 233.5,284.3 227.5,284.3 227,282.6 						"/>
					</g>
					<g>
						<polygon class="st21" points="235.1,171.3 233,282.6 227,282.6 229.1,171.3 						"/>
					</g>
				</g>
			</g>
		</g>
		<g>
			<g>
				<g class="st4">
					<g>
						<polygon class="st20" points="241.6,173 242.1,174.6 240,285.9 239.5,284.4 						"/>
					</g>
					<g>
						<polygon class="st18" points="239.5,284.4 240,285.9 234,285.9 233.5,284.4 						"/>
					</g>
					<g>
						<polygon class="st21" points="241.6,173 239.5,284.4 233.5,284.4 235.6,173 						"/>
					</g>
				</g>
			</g>
		</g>
		<g>
			<g>
				<g class="st4">
					<g>
						<polygon class="st20" points="248,174.7 248.5,176.4 246.4,287.7 245.9,286 						"/>
					</g>
					<g>
						<polygon class="st18" points="245.9,286 246.4,287.7 240.4,287.7 239.9,286 						"/>
					</g>
					<g>
						<polygon class="st21" points="248,174.7 245.9,286 239.9,286 242,174.7 						"/>
					</g>
				</g>
			</g>
		</g>
		<g>
			<g>
				<g class="st4">
					<g>
						<polygon class="st20" points="254.4,176.4 254.9,178 252.8,289.3 252.3,287.7 						"/>
					</g>
					<g>
						<polygon class="st18" points="252.3,287.7 252.8,289.3 246.8,289.3 246.3,287.7 						"/>
					</g>
					<g>
						<polygon class="st21" points="254.4,176.4 252.3,287.7 246.3,287.7 248.4,176.4 						"/>
					</g>
				</g>
			</g>
		</g>
		<g>
			<g>
				<g class="st4">
					<g>
						<polygon class="st20" points="260.8,178 261.3,179.6 259.2,291 258.7,289.3 						"/>
					</g>
					<g>
						<polygon class="st18" points="258.7,289.3 259.2,291 253.2,291 252.7,289.3 						"/>
					</g>
					<g>
						<polygon class="st21" points="260.8,178 258.7,289.3 252.7,289.3 254.8,178 						"/>
					</g>
				</g>
			</g>
		</g>
		<g>
			<g>
				<g class="st4">
					<g>
						<polygon class="st20" points="267.2,179.6 267.7,181.2 265.6,292.6 265.1,291 						"/>
					</g>
					<g>
						<polygon class="st18" points="265.1,291 265.6,292.6 259.6,292.6 259.1,291 						"/>
					</g>
					<g>
						<polygon class="st21" points="267.2,179.6 265.1,291 259.1,291 261.2,179.6 						"/>
					</g>
				</g>
			</g>
		</g>
		<g>
			<g>
				<g class="st4">
					<g>
						<polygon class="st20" points="273.6,181.2 274.1,182.9 272,294.2 271.5,292.6 						"/>
					</g>
					<g>
						<polygon class="st18" points="271.5,292.6 272,294.2 266.1,294.2 265.6,292.6 						"/>
					</g>
					<g>
						<polygon class="st21" points="273.6,181.2 271.5,292.6 265.6,292.6 267.7,181.2 						"/>
					</g>
				</g>
			</g>
		</g>
		<g>
			<g>
				<g class="st4">
					<g>
						<polygon class="st20" points="280.1,182.9 280.6,184.5 278.4,295.9 278,294.2 						"/>
					</g>
					<g>
						<polygon class="st18" points="278,294.2 278.4,295.9 272.5,295.9 272,294.2 						"/>
					</g>
					<g>
						<polygon class="st21" points="280.1,182.9 278,294.2 272,294.2 274.1,182.9 						"/>
					</g>
				</g>
			</g>
		</g>
		<g>
			<g>
				<g class="st4">
					<g>
						<polygon class="st20" points="286.5,184.6 287,186.1 284.9,297.5 284.4,295.9 						"/>
					</g>
					<g>
						<polygon class="st18" points="284.4,295.9 284.9,297.5 278.9,297.5 278.4,295.9 						"/>
					</g>
					<g>
						<polygon class="st21" points="286.5,184.6 284.4,295.9 278.4,295.9 280.5,184.6 						"/>
					</g>
				</g>
			</g>
		</g>
		<g>
			<g>
				<g class="st4">
					<g>
						<polygon class="st20" points="292.9,186.2 293.4,187.8 291.3,299.2 290.8,297.5 						"/>
					</g>
					<g>
						<polygon class="st18" points="290.8,297.5 291.3,299.2 285.3,299.2 284.8,297.5 						"/>
					</g>
					<g>
						<polygon class="st21" points="292.9,186.2 290.8,297.5 284.8,297.5 286.9,186.2 						"/>
					</g>
				</g>
			</g>
		</g>
		<g>
			<g>
				<g class="st4">
					<g>
						<polygon class="st20" points="299.4,187.9 299.9,189.4 297.8,300.9 297.3,299.2 						"/>
					</g>
					<g>
						<polygon class="st18" points="297.3,299.2 297.8,300.9 291.8,300.9 291.3,299.2 						"/>
					</g>
					<g>
						<polygon class="st21" points="299.4,187.9 297.3,299.2 291.3,299.2 293.4,187.9 						"/>
					</g>
				</g>
			</g>
		</g>
	</g>
	<g id="nadstropje0_x5F_4">
		<g>
			<g>
				<g>
					<g>
						<g class="st4">
							<g>
								<polygon class="st20" points="625.2,373.6 625.6,372.2 625.6,376.1 625.3,377.5 								"/>
							</g>
							<g>
								<polygon class="st22" points="606.9,373.6 607.2,372.2 625.6,372.2 625.2,373.6 								"/>
							</g>
							<g>
								<polygon class="st23" points="625.2,373.6 625.3,377.5 606.9,377.5 606.9,373.6 								"/>
							</g>
						</g>
					</g>
				</g>
				<g>
					<g>
						<g class="st4">
							<g>
								<polygon class="st20" points="625.5,368.4 625.8,367.1 625.9,371 625.5,372.4 								"/>
							</g>
							<g>
								<polygon class="st22" points="607.1,368.4 607.5,367.1 625.8,367.1 625.5,368.4 								"/>
							</g>
							<g>
								<polygon class="st23" points="625.5,368.4 625.5,372.4 607.2,372.4 607.1,368.4 								"/>
							</g>
						</g>
					</g>
				</g>
				<g>
					<g>
						<g class="st4">
							<g>
								<polygon class="st20" points="625.7,363.3 626.1,361.9 626.2,365.9 625.8,367.2 								"/>
							</g>
							<g>
								<polygon class="st22" points="607.4,363.3 607.8,361.9 626.1,361.9 625.7,363.3 								"/>
							</g>
							<g>
								<polygon class="st23" points="625.7,363.3 625.8,367.2 607.5,367.2 607.4,363.3 								"/>
							</g>
						</g>
					</g>
				</g>
				<g>
					<g>
						<g class="st4">
							<g>
								<polygon class="st20" points="626.1,358.2 626.4,356.8 626.5,360.8 626.2,362.1 								"/>
							</g>
							<g>
								<polygon class="st22" points="607.7,358.2 608.1,356.8 626.4,356.8 626.1,358.2 								"/>
							</g>
							<g>
								<polygon class="st23" points="626.1,358.2 626.2,362.1 607.8,362.1 607.7,358.2 								"/>
							</g>
						</g>
					</g>
				</g>
				<g>
					<g>
						<g class="st4">
							<g>
								<polygon class="st20" points="626.4,353 626.7,351.7 626.8,355.6 626.5,357 								"/>
							</g>
							<g>
								<polygon class="st22" points="608,353 608.4,351.7 626.7,351.7 626.4,353 								"/>
							</g>
							<g>
								<polygon class="st23" points="626.4,353 626.5,357 608.1,357 608,353 								"/>
							</g>
						</g>
					</g>
				</g>
				<g>
					<g>
						<g class="st4">
							<g>
								<polygon class="st20" points="626.7,347.9 627,346.5 627.1,350.4 626.7,351.8 								"/>
							</g>
							<g>
								<polygon class="st22" points="608.3,347.9 608.7,346.5 627,346.5 626.7,347.9 								"/>
							</g>
							<g>
								<polygon class="st23" points="626.7,347.9 626.7,351.8 608.4,351.8 608.3,347.9 								"/>
							</g>
						</g>
					</g>
				</g>
				<g>
					<g>
						<g class="st4">
							<g>
								<polygon class="st20" points="627,342.6 627.3,341.3 627.4,345.2 627.1,346.5 								"/>
							</g>
							<g>
								<polygon class="st22" points="608.6,342.6 609,341.3 627.3,341.3 627,342.6 								"/>
							</g>
							<g>
								<polygon class="st23" points="627,342.6 627.1,346.5 608.7,346.5 608.6,342.6 								"/>
							</g>
						</g>
					</g>
				</g>
			</g>
			<g>
				<g>
					<g class="st4">
						<g>
							<polygon class="st20" points="624.9,378.7 625.3,377.4 625.4,381.3 625,382.7 							"/>
						</g>
						<g>
							<polygon class="st22" points="606.6,378.7 606.9,377.4 625.3,377.4 624.9,378.7 							"/>
						</g>
						<g>
							<polygon class="st23" points="624.9,378.7 625,382.7 606.7,382.7 606.6,378.7 							"/>
						</g>
					</g>
				</g>
			</g>
			<g>
				<g>
					<g class="st4">
						<g>
							<polygon class="st20" points="624.6,384 625,382.6 625.1,386.5 624.7,387.9 							"/>
						</g>
						<g>
							<polygon class="st22" points="606.3,384 606.7,382.6 625,382.6 624.6,384 							"/>
						</g>
						<g>
							<polygon class="st23" points="624.6,384 624.7,387.9 606.4,387.9 606.3,384 							"/>
						</g>
					</g>
				</g>
			</g>
			<g>
				<g>
					<g class="st4">
						<g>
							<polygon class="st20" points="624.4,389.1 624.8,387.8 624.8,391.7 624.5,393.1 							"/>
						</g>
						<g>
							<polygon class="st22" points="606.1,389.1 606.4,387.8 624.8,387.8 624.4,389.1 							"/>
						</g>
						<g>
							<polygon class="st23" points="624.4,389.1 624.5,393.1 606.1,393.1 606.1,389.1 							"/>
						</g>
					</g>
				</g>
			</g>
			<g>
				<g>
					<g class="st4">
						<g>
							<polygon class="st20" points="624.1,394.3 624.5,392.9 624.5,396.8 624.2,398.2 							"/>
						</g>
						<g>
							<polygon class="st22" points="605.8,394.3 606.1,392.9 624.5,392.9 624.1,394.3 							"/>
						</g>
						<g>
							<polygon class="st23" points="624.1,394.3 624.2,398.2 605.9,398.2 605.8,394.3 							"/>
						</g>
					</g>
				</g>
			</g>
			<g>
				<g>
					<g class="st4">
						<g>
							<polygon class="st20" points="623.7,398.3 624,397 624.1,400.9 623.7,402.3 							"/>
						</g>
						<g>
							<polygon class="st22" points="605.3,398.3 605.7,397 624,397 623.7,398.3 							"/>
						</g>
						<g>
							<polygon class="st23" points="623.7,398.3 623.7,402.3 605.4,402.3 605.3,398.3 							"/>
						</g>
					</g>
				</g>
			</g>
		</g>
		<g>
			<g>
				<g>
					<g>
						<g class="st4">
							<g>
								<polygon class="st20" points="603.7,373.5 604.1,372.1 604.2,376.1 603.8,377.4 								"/>
							</g>
							<g>
								<polygon class="st22" points="585.4,373.5 585.7,372.1 604.1,372.1 603.7,373.5 								"/>
							</g>
							<g>
								<polygon class="st23" points="603.7,373.5 603.8,377.4 585.5,377.4 585.4,373.5 								"/>
							</g>
						</g>
					</g>
				</g>
				<g>
					<g>
						<g class="st4">
							<g>
								<polygon class="st20" points="604,368.3 604.4,367 604.4,370.9 604.1,372.3 								"/>
							</g>
							<g>
								<polygon class="st22" points="585.7,368.3 586,367 604.4,367 604,368.3 								"/>
							</g>
							<g>
								<polygon class="st23" points="604,368.3 604.1,372.3 585.7,372.3 585.7,368.3 								"/>
							</g>
						</g>
					</g>
				</g>
				<g>
					<g>
						<g class="st4">
							<g>
								<polygon class="st20" points="604.3,363.2 604.6,361.8 604.7,365.8 604.3,367.1 								"/>
							</g>
							<g>
								<polygon class="st22" points="585.9,363.2 586.3,361.8 604.6,361.8 604.3,363.2 								"/>
							</g>
							<g>
								<polygon class="st23" points="604.3,363.2 604.3,367.1 586,367.1 585.9,363.2 								"/>
							</g>
						</g>
					</g>
				</g>
				<g>
					<g>
						<g class="st4">
							<g>
								<polygon class="st20" points="604.6,358.1 605,356.7 605,360.7 604.7,362 								"/>
							</g>
							<g>
								<polygon class="st22" points="586.3,358.1 586.6,356.7 605,356.7 604.6,358.1 								"/>
							</g>
							<g>
								<polygon class="st23" points="604.6,358.1 604.7,362 586.3,362 586.3,358.1 								"/>
							</g>
						</g>
					</g>
				</g>
				<g>
					<g>
						<g class="st4">
							<g>
								<polygon class="st20" points="604.9,353 605.3,351.6 605.3,355.5 605,356.9 								"/>
							</g>
							<g>
								<polygon class="st22" points="586.6,353 586.9,351.6 605.3,351.6 604.9,353 								"/>
							</g>
							<g>
								<polygon class="st23" points="604.9,353 605,356.9 586.6,356.9 586.6,353 								"/>
							</g>
						</g>
					</g>
				</g>
				<g>
					<g>
						<g class="st4">
							<g>
								<polygon class="st20" points="605.2,347.8 605.5,346.4 605.6,350.4 605.3,351.7 								"/>
							</g>
							<g>
								<polygon class="st22" points="586.8,347.8 587.2,346.4 605.5,346.4 605.2,347.8 								"/>
							</g>
							<g>
								<polygon class="st23" points="605.2,347.8 605.3,351.7 586.9,351.7 586.8,347.8 								"/>
							</g>
						</g>
					</g>
				</g>
				<g>
					<g>
						<g class="st4">
							<g>
								<polygon class="st20" points="605.5,342.5 605.9,341.2 606,345.1 605.6,346.4 								"/>
							</g>
							<g>
								<polygon class="st22" points="587.2,342.5 587.5,341.2 605.9,341.2 605.5,342.5 								"/>
							</g>
							<g>
								<polygon class="st23" points="605.5,342.5 605.6,346.4 587.3,346.4 587.2,342.5 								"/>
							</g>
						</g>
					</g>
				</g>
			</g>
			<g>
				<g>
					<g class="st4">
						<g>
							<polygon class="st20" points="603.5,378.6 603.8,377.3 603.9,381.2 603.5,382.6 							"/>
						</g>
						<g>
							<polygon class="st22" points="585.1,378.6 585.5,377.3 603.8,377.3 603.5,378.6 							"/>
						</g>
						<g>
							<polygon class="st23" points="603.5,378.6 603.5,382.6 585.2,382.6 585.1,378.6 							"/>
						</g>
					</g>
				</g>
			</g>
			<g>
				<g>
					<g class="st4">
						<g>
							<polygon class="st20" points="603.2,383.9 603.5,382.5 603.6,386.4 603.2,387.8 							"/>
						</g>
						<g>
							<polygon class="st22" points="584.8,383.9 585.2,382.5 603.5,382.5 603.2,383.9 							"/>
						</g>
						<g>
							<polygon class="st23" points="603.2,383.9 603.2,387.8 584.9,387.8 584.8,383.9 							"/>
						</g>
					</g>
				</g>
			</g>
			<g>
				<g>
					<g class="st4">
						<g>
							<polygon class="st20" points="602.9,389.1 603.3,387.7 603.4,391.6 603,393 							"/>
						</g>
						<g>
							<polygon class="st22" points="584.6,389.1 584.9,387.7 603.3,387.7 602.9,389.1 							"/>
						</g>
						<g>
							<polygon class="st23" points="602.9,389.1 603,393 584.7,393 584.6,389.1 							"/>
						</g>
					</g>
				</g>
			</g>
			<g>
				<g>
					<g class="st4">
						<g>
							<polygon class="st20" points="602.7,394.2 603,392.8 603.1,396.8 602.7,398.1 							"/>
						</g>
						<g>
							<polygon class="st22" points="584.3,394.2 584.7,392.8 603,392.8 602.7,394.2 							"/>
						</g>
						<g>
							<polygon class="st23" points="602.7,394.2 602.7,398.1 584.4,398.1 584.3,394.2 							"/>
						</g>
					</g>
				</g>
			</g>
			<g>
				<g>
					<g class="st4">
						<g>
							<polygon class="st20" points="602.2,398.2 602.6,396.9 602.6,400.8 602.3,402.2 							"/>
						</g>
						<g>
							<polygon class="st22" points="583.9,398.2 584.2,396.9 602.6,396.9 602.2,398.2 							"/>
						</g>
						<g>
							<polygon class="st23" points="602.2,398.2 602.3,402.2 583.9,402.2 583.9,398.2 							"/>
						</g>
					</g>
				</g>
			</g>
		</g>
	</g>
	<g id="nadstropje0_x5F_3">
		<g>
			<g>
				<g>
					<g>
						<g class="st4">
							<g>
								<polygon class="st18" points="182.7,378.4 182.4,377.1 182.4,373.1 182.8,374.5 								"/>
							</g>
							<g>
								<polygon class="st24" points="182.8,374.5 182.4,373.1 200.8,373.1 201.1,374.5 								"/>
							</g>
							<g>
								<polygon class="st25" points="201.1,374.5 201.1,378.4 182.7,378.4 182.8,374.5 								"/>
							</g>
						</g>
					</g>
				</g>
				<g>
					<g>
						<g class="st4">
							<g>
								<polygon class="st18" points="183,373.3 182.6,371.9 182.7,368 183.1,369.4 								"/>
							</g>
							<g>
								<polygon class="st24" points="183.1,369.4 182.7,368 201,368 201.4,369.4 								"/>
							</g>
							<g>
								<polygon class="st25" points="201.4,369.4 201.3,373.3 183,373.3 183.1,369.4 								"/>
							</g>
						</g>
					</g>
				</g>
				<g>
					<g>
						<g class="st4">
							<g>
								<polygon class="st18" points="183.3,368.1 182.9,366.8 183,362.8 183.3,364.2 								"/>
							</g>
							<g>
								<polygon class="st24" points="183.3,364.2 183,362.8 201.3,362.8 201.7,364.2 								"/>
							</g>
							<g>
								<polygon class="st25" points="201.7,364.2 201.6,368.1 183.3,368.1 183.3,364.2 								"/>
							</g>
						</g>
					</g>
				</g>
				<g>
					<g>
						<g class="st4">
							<g>
								<polygon class="st18" points="183.6,363 183.2,361.7 183.3,357.7 183.7,359.1 								"/>
							</g>
							<g>
								<polygon class="st24" points="183.7,359.1 183.3,357.7 201.7,357.7 202,359.1 								"/>
							</g>
							<g>
								<polygon class="st25" points="202,359.1 201.9,363 183.6,363 183.7,359.1 								"/>
							</g>
						</g>
					</g>
				</g>
				<g>
					<g>
						<g class="st4">
							<g>
								<polygon class="st18" points="183.9,357.9 183.5,356.5 183.6,352.6 184,354 								"/>
							</g>
							<g>
								<polygon class="st24" points="184,354 183.6,352.6 202,352.6 202.3,354 								"/>
							</g>
							<g>
								<polygon class="st25" points="202.3,354 202.2,357.9 183.9,357.9 184,354 								"/>
							</g>
						</g>
					</g>
				</g>
				<g>
					<g>
						<g class="st4">
							<g>
								<polygon class="st18" points="184.2,352.7 183.8,351.4 183.9,347.4 184.2,348.8 								"/>
							</g>
							<g>
								<polygon class="st24" points="184.2,348.8 183.9,347.4 202.2,347.4 202.6,348.8 								"/>
							</g>
							<g>
								<polygon class="st25" points="202.6,348.8 202.5,352.7 184.2,352.7 184.2,348.8 								"/>
							</g>
						</g>
					</g>
				</g>
				<g>
					<g>
						<g class="st4">
							<g>
								<polygon class="st18" points="184.5,347.5 184.2,346.1 184.2,342.2 184.6,343.5 								"/>
							</g>
							<g>
								<polygon class="st24" points="184.6,343.5 184.2,342.2 202.6,342.2 202.9,343.5 								"/>
							</g>
							<g>
								<polygon class="st25" points="202.9,343.5 202.9,347.5 184.5,347.5 184.6,343.5 								"/>
							</g>
						</g>
					</g>
				</g>
			</g>
			<g>
				<g>
					<g class="st4">
						<g>
							<polygon class="st18" points="182.4,383.6 182.1,382.2 182.2,378.3 182.5,379.6 							"/>
						</g>
						<g>
							<polygon class="st24" points="182.5,379.6 182.2,378.3 200.5,378.3 200.9,379.6 							"/>
						</g>
						<g>
							<polygon class="st25" points="200.9,379.6 200.8,383.6 182.4,383.6 182.5,379.6 							"/>
						</g>
					</g>
				</g>
			</g>
			<g>
				<g>
					<g class="st4">
						<g>
							<polygon class="st18" points="182.2,388.8 181.8,387.4 181.9,383.5 182.2,384.9 							"/>
						</g>
						<g>
							<polygon class="st24" points="182.2,384.9 181.9,383.5 200.2,383.5 200.6,384.9 							"/>
						</g>
						<g>
							<polygon class="st25" points="200.6,384.9 200.5,388.8 182.2,388.8 182.2,384.9 							"/>
						</g>
					</g>
				</g>
			</g>
			<g>
				<g>
					<g class="st4">
						<g>
							<polygon class="st18" points="181.9,394 181.6,392.6 181.6,388.7 182,390.1 							"/>
						</g>
						<g>
							<polygon class="st24" points="182,390.1 181.6,388.7 200,388.7 200.3,390.1 							"/>
						</g>
						<g>
							<polygon class="st25" points="200.3,390.1 200.3,394 181.9,394 182,390.1 							"/>
						</g>
					</g>
				</g>
			</g>
			<g>
				<g>
					<g class="st4">
						<g>
							<polygon class="st18" points="181.6,399.1 181.3,397.8 181.4,393.8 181.7,395.2 							"/>
						</g>
						<g>
							<polygon class="st24" points="181.7,395.2 181.4,393.8 199.7,393.8 200.1,395.2 							"/>
						</g>
						<g>
							<polygon class="st25" points="200.1,395.2 200,399.1 181.6,399.1 181.7,395.2 							"/>
						</g>
					</g>
				</g>
			</g>
			<g>
				<g>
					<g class="st4">
						<g>
							<polygon class="st18" points="181.2,403.2 180.8,401.8 180.9,397.9 181.3,399.3 							"/>
						</g>
						<g>
							<polygon class="st24" points="181.3,399.3 180.9,397.9 199.2,397.9 199.6,399.3 							"/>
						</g>
						<g>
							<polygon class="st25" points="199.6,399.3 199.5,403.2 181.2,403.2 181.3,399.3 							"/>
						</g>
					</g>
				</g>
			</g>
		</g>
		<g>
			<g>
				<g>
					<g>
						<g class="st4">
							<g>
								<polygon class="st20" points="221.4,374.5 221.8,373.1 221.9,377.1 221.5,378.4 								"/>
							</g>
							<g>
								<polygon class="st22" points="203.1,374.5 203.5,373.1 221.8,373.1 221.4,374.5 								"/>
							</g>
							<g>
								<polygon class="st23" points="221.4,374.5 221.5,378.4 203.2,378.4 203.1,374.5 								"/>
							</g>
						</g>
					</g>
				</g>
				<g>
					<g>
						<g class="st4">
							<g>
								<polygon class="st20" points="221.7,369.4 222.1,368 222.1,371.9 221.8,373.3 								"/>
							</g>
							<g>
								<polygon class="st22" points="203.4,369.4 203.7,368 222.1,368 221.7,369.4 								"/>
							</g>
							<g>
								<polygon class="st23" points="221.7,369.4 221.8,373.3 203.4,373.3 203.4,369.4 								"/>
							</g>
						</g>
					</g>
				</g>
				<g>
					<g>
						<g class="st4">
							<g>
								<polygon class="st20" points="222,364.2 222.3,362.8 222.4,366.8 222.1,368.1 								"/>
							</g>
							<g>
								<polygon class="st22" points="203.6,364.2 204,362.8 222.3,362.8 222,364.2 								"/>
							</g>
							<g>
								<polygon class="st23" points="222,364.2 222.1,368.1 203.7,368.1 203.6,364.2 								"/>
							</g>
						</g>
					</g>
				</g>
				<g>
					<g>
						<g class="st4">
							<g>
								<polygon class="st20" points="222.3,359.1 222.7,357.7 222.8,361.7 222.4,363 								"/>
							</g>
							<g>
								<polygon class="st22" points="204,359.1 204.3,357.7 222.7,357.7 222.3,359.1 								"/>
							</g>
							<g>
								<polygon class="st23" points="222.3,359.1 222.4,363 204.1,363 204,359.1 								"/>
							</g>
						</g>
					</g>
				</g>
				<g>
					<g>
						<g class="st4">
							<g>
								<polygon class="st20" points="222.6,354 223,352.6 223.1,356.5 222.7,357.9 								"/>
							</g>
							<g>
								<polygon class="st22" points="204.3,354 204.6,352.6 223,352.6 222.6,354 								"/>
							</g>
							<g>
								<polygon class="st23" points="222.6,354 222.7,357.9 204.4,357.9 204.3,354 								"/>
							</g>
						</g>
					</g>
				</g>
				<g>
					<g>
						<g class="st4">
							<g>
								<polygon class="st20" points="222.9,348.8 223.2,347.4 223.3,351.4 223,352.7 								"/>
							</g>
							<g>
								<polygon class="st22" points="204.6,348.8 204.9,347.4 223.2,347.4 222.9,348.8 								"/>
							</g>
							<g>
								<polygon class="st23" points="222.9,348.8 223,352.7 204.6,352.7 204.6,348.8 								"/>
							</g>
						</g>
					</g>
				</g>
				<g>
					<g>
						<g class="st4">
							<g>
								<polygon class="st20" points="223.2,343.5 223.6,342.2 223.7,346.1 223.3,347.5 								"/>
							</g>
							<g>
								<polygon class="st22" points="204.9,343.5 205.2,342.2 223.6,342.2 223.2,343.5 								"/>
							</g>
							<g>
								<polygon class="st23" points="223.2,343.5 223.3,347.5 205,347.5 204.9,343.5 								"/>
							</g>
						</g>
					</g>
				</g>
			</g>
			<g>
				<g>
					<g class="st4">
						<g>
							<polygon class="st20" points="221.2,379.6 221.5,378.3 221.6,382.2 221.2,383.6 							"/>
						</g>
						<g>
							<polygon class="st22" points="202.8,379.6 203.2,378.3 221.5,378.3 221.2,379.6 							"/>
						</g>
						<g>
							<polygon class="st23" points="221.2,379.6 221.2,383.6 202.9,383.6 202.8,379.6 							"/>
						</g>
					</g>
				</g>
			</g>
			<g>
				<g>
					<g class="st4">
						<g>
							<polygon class="st20" points="220.9,384.9 221.2,383.5 221.3,387.4 221,388.8 							"/>
						</g>
						<g>
							<polygon class="st22" points="202.5,384.9 202.9,383.5 221.2,383.5 220.9,384.9 							"/>
						</g>
						<g>
							<polygon class="st23" points="220.9,384.9 221,388.8 202.6,388.8 202.5,384.9 							"/>
						</g>
					</g>
				</g>
			</g>
			<g>
				<g>
					<g class="st4">
						<g>
							<polygon class="st20" points="220.6,390.1 221,388.7 221.1,392.6 220.7,394 							"/>
						</g>
						<g>
							<polygon class="st22" points="202.3,390.1 202.7,388.7 221,388.7 220.6,390.1 							"/>
						</g>
						<g>
							<polygon class="st23" points="220.6,390.1 220.7,394 202.4,394 202.3,390.1 							"/>
						</g>
					</g>
				</g>
			</g>
			<g>
				<g>
					<g class="st4">
						<g>
							<polygon class="st20" points="220.4,395.2 220.7,393.8 220.8,397.8 220.4,399.1 							"/>
						</g>
						<g>
							<polygon class="st22" points="202,395.2 202.4,393.8 220.7,393.8 220.4,395.2 							"/>
						</g>
						<g>
							<polygon class="st23" points="220.4,395.2 220.4,399.1 202.1,399.1 202,395.2 							"/>
						</g>
					</g>
				</g>
			</g>
			<g>
				<g>
					<g class="st4">
						<g>
							<polygon class="st20" points="219.9,399.3 220.3,397.9 220.3,401.8 220,403.2 							"/>
						</g>
						<g>
							<polygon class="st22" points="201.6,399.3 201.9,397.9 220.3,397.9 219.9,399.3 							"/>
						</g>
						<g>
							<polygon class="st23" points="219.9,399.3 220,403.2 201.6,403.2 201.6,399.3 							"/>
						</g>
					</g>
				</g>
			</g>
		</g>
	</g>
	<g id="nadstropje0_x5F_2">
		<g>
			<g>
				<g>
					<g class="st4">
						<g>
							<polygon class="st20" points="221.1,166.6 221.5,165.3 221.5,169.2 221.2,170.6 							"/>
						</g>
						<g>
							<polygon class="st22" points="202.8,166.6 203.1,165.3 221.5,165.3 221.1,166.6 							"/>
						</g>
						<g>
							<polygon class="st23" points="221.1,166.6 221.2,170.6 202.8,170.6 202.8,166.6 							"/>
						</g>
					</g>
				</g>
			</g>
			<g>
				<g>
					<g class="st4">
						<g>
							<polygon class="st20" points="221.4,161.5 221.7,160.1 221.8,164.1 221.5,165.4 							"/>
						</g>
						<g>
							<polygon class="st22" points="203,161.5 203.4,160.1 221.7,160.1 221.4,161.5 							"/>
						</g>
						<g>
							<polygon class="st23" points="221.4,161.5 221.5,165.4 203.1,165.4 203,161.5 							"/>
						</g>
					</g>
				</g>
			</g>
			<g>
				<g>
					<g class="st4">
						<g>
							<polygon class="st20" points="221.7,156.3 222,155 222.1,158.9 221.7,160.3 							"/>
						</g>
						<g>
							<polygon class="st22" points="203.3,156.3 203.7,155 222,155 221.7,156.3 							"/>
						</g>
						<g>
							<polygon class="st23" points="221.7,156.3 221.7,160.3 203.4,160.3 203.3,156.3 							"/>
						</g>
					</g>
				</g>
			</g>
			<g>
				<g>
					<g class="st4">
						<g>
							<polygon class="st20" points="222,151.2 222.4,149.9 222.4,153.8 222.1,155.2 							"/>
						</g>
						<g>
							<polygon class="st22" points="203.7,151.2 204,149.9 222.4,149.9 222,151.2 							"/>
						</g>
						<g>
							<polygon class="st23" points="222,151.2 222.1,155.2 203.7,155.2 203.7,151.2 							"/>
						</g>
					</g>
				</g>
			</g>
			<g>
				<g>
					<g class="st4">
						<g>
							<polygon class="st20" points="222.3,146.1 222.6,144.7 222.7,148.7 222.4,150 							"/>
						</g>
						<g>
							<polygon class="st22" points="204,146.1 204.3,144.7 222.6,144.7 222.3,146.1 							"/>
						</g>
						<g>
							<polygon class="st23" points="222.3,146.1 222.4,150 204,150 204,146.1 							"/>
						</g>
					</g>
				</g>
			</g>
			<g>
				<g>
					<g class="st4">
						<g>
							<polygon class="st20" points="222.6,140.9 222.9,139.6 223,143.5 222.6,144.9 							"/>
						</g>
						<g>
							<polygon class="st22" points="204.2,140.9 204.6,139.6 222.9,139.6 222.6,140.9 							"/>
						</g>
						<g>
							<polygon class="st23" points="222.6,140.9 222.6,144.9 204.3,144.9 204.2,140.9 							"/>
						</g>
					</g>
				</g>
			</g>
			<g>
				<g>
					<g class="st4">
						<g>
							<polygon class="st20" points="222.9,135.7 223.3,134.3 223.3,138.2 223,139.6 							"/>
						</g>
						<g>
							<polygon class="st22" points="204.6,135.7 204.9,134.3 223.3,134.3 222.9,135.7 							"/>
						</g>
						<g>
							<polygon class="st23" points="222.9,135.7 223,139.6 204.6,139.6 204.6,135.7 							"/>
						</g>
					</g>
				</g>
			</g>
		</g>
		<g id="nadstropje0_x5F_0">
			<g>
				<g>
					<g class="st4">
						<g>
							<polygon class="st20" points="199.7,166.6 200,165.3 200.1,169.1 199.7,170.6 							"/>
						</g>
						<g>
							<polygon class="st22" points="181.3,166.6 181.7,165.3 200,165.3 199.7,166.6 							"/>
						</g>
						<g>
							<polygon class="st23" points="199.7,166.6 199.7,170.6 181.4,170.6 181.3,166.6 							"/>
						</g>
					</g>
				</g>
			</g>
			<g>
				<g>
					<g class="st4">
						<g>
							<polygon class="st20" points="199.9,161.4 200.3,160.1 200.3,164.1 200,165.3 							"/>
						</g>
						<g>
							<polygon class="st22" points="181.6,161.4 181.9,160.1 200.3,160.1 199.9,161.4 							"/>
						</g>
						<g>
							<polygon class="st23" points="199.9,161.4 200,165.3 181.6,165.3 181.6,161.4 							"/>
						</g>
					</g>
				</g>
			</g>
			<g>
				<g>
					<g class="st4">
						<g>
							<polygon class="st20" points="200.2,156.3 200.5,154.9 200.6,158.8 200.3,160.3 							"/>
						</g>
						<g>
							<polygon class="st22" points="181.8,156.3 182.2,154.9 200.5,154.9 200.2,156.3 							"/>
						</g>
						<g>
							<polygon class="st23" points="200.2,156.3 200.3,160.3 181.9,160.3 181.8,156.3 							"/>
						</g>
					</g>
				</g>
			</g>
			<g>
				<g>
					<g class="st4">
						<g>
							<polygon class="st20" points="200.5,151.3 200.9,149.8 201,153.8 200.6,155.1 							"/>
						</g>
						<g>
							<polygon class="st22" points="182.2,151.3 182.5,149.8 200.9,149.8 200.5,151.3 							"/>
						</g>
						<g>
							<polygon class="st23" points="200.5,151.3 200.6,155.1 182.3,155.1 182.2,151.3 							"/>
						</g>
					</g>
				</g>
			</g>
			<g>
				<g>
					<g class="st4">
						<g>
							<polygon class="st20" points="200.8,146.1 201.2,144.8 201.3,148.6 200.9,149.9 							"/>
						</g>
						<g>
							<polygon class="st22" points="182.5,146.1 182.8,144.8 201.2,144.8 200.8,146.1 							"/>
						</g>
						<g>
							<polygon class="st23" points="200.8,146.1 200.9,149.9 182.6,149.9 182.5,146.1 							"/>
						</g>
					</g>
				</g>
			</g>
			<g>
				<g>
					<g class="st4">
						<g>
							<polygon class="st20" points="201.1,140.8 201.5,139.6 201.5,143.4 201.2,144.8 							"/>
						</g>
						<g>
							<polygon class="st22" points="182.8,140.8 183.1,139.6 201.5,139.6 201.1,140.8 							"/>
						</g>
						<g>
							<polygon class="st23" points="201.1,140.8 201.2,144.8 182.8,144.8 182.8,140.8 							"/>
						</g>
					</g>
				</g>
			</g>
			<g>
				<g>
					<g class="st4">
						<g>
							<polygon class="st20" points="201.4,135.6 201.8,134.3 201.9,138.3 201.5,139.6 							"/>
						</g>
						<g>
							<polygon class="st22" points="183.1,135.6 183.5,134.3 201.8,134.3 201.4,135.6 							"/>
						</g>
						<g>
							<polygon class="st23" points="201.4,135.6 201.5,139.6 183.2,139.6 183.1,135.6 							"/>
						</g>
					</g>
				</g>
			</g>
		</g>
	</g>
	<g id="nadstropje0_x5F_1">
		<g>
			<g>
				<g>
					<g class="st4">
						<g>
							<polygon class="st20" points="623.5,157.4 623.8,156 623.9,160 623.5,161.3 							"/>
						</g>
						<g>
							<polygon class="st22" points="605.1,157.4 605.5,156 623.8,156 623.5,157.4 							"/>
						</g>
						<g>
							<polygon class="st23" points="623.5,157.4 623.5,161.3 605.2,161.3 605.1,157.4 							"/>
						</g>
					</g>
				</g>
			</g>
			<g>
				<g>
					<g class="st4">
						<g>
							<polygon class="st20" points="623.7,152.3 624.1,150.9 624.1,154.8 623.8,156.2 							"/>
						</g>
						<g>
							<polygon class="st22" points="605.4,152.3 605.7,150.9 624.1,150.9 623.7,152.3 							"/>
						</g>
						<g>
							<polygon class="st23" points="623.7,152.3 623.8,156.2 605.5,156.2 605.4,152.3 							"/>
						</g>
					</g>
				</g>
			</g>
			<g>
				<g>
					<g class="st4">
						<g>
							<polygon class="st20" points="624,147.1 624.4,145.7 624.4,149.7 624.1,151 							"/>
						</g>
						<g>
							<polygon class="st22" points="605.7,147.1 606,145.7 624.4,145.7 624,147.1 							"/>
						</g>
						<g>
							<polygon class="st23" points="624,147.1 624.1,151 605.7,151 605.7,147.1 							"/>
						</g>
					</g>
				</g>
			</g>
			<g>
				<g>
					<g class="st4">
						<g>
							<polygon class="st20" points="624.3,142 624.7,140.7 624.8,144.6 624.4,145.9 							"/>
						</g>
						<g>
							<polygon class="st22" points="606,142 606.4,140.7 624.7,140.7 624.3,142 							"/>
						</g>
						<g>
							<polygon class="st23" points="624.3,142 624.4,145.9 606.1,145.9 606,142 							"/>
						</g>
					</g>
				</g>
			</g>
			<g>
				<g>
					<g class="st4">
						<g>
							<polygon class="st20" points="624.6,136.9 625,135.5 625.1,139.4 624.7,140.8 							"/>
						</g>
						<g>
							<polygon class="st22" points="606.3,136.9 606.6,135.5 625,135.5 624.6,136.9 							"/>
						</g>
						<g>
							<polygon class="st23" points="624.6,136.9 624.7,140.8 606.4,140.8 606.3,136.9 							"/>
						</g>
					</g>
				</g>
			</g>
			<g>
				<g>
					<g class="st4">
						<g>
							<polygon class="st20" points="624.9,131.7 625.3,130.3 625.3,134.3 625,135.6 							"/>
						</g>
						<g>
							<polygon class="st22" points="606.6,131.7 606.9,130.3 625.3,130.3 624.9,131.7 							"/>
						</g>
						<g>
							<polygon class="st23" points="624.9,131.7 625,135.6 606.6,135.6 606.6,131.7 							"/>
						</g>
					</g>
				</g>
			</g>
			<g>
				<g>
					<g class="st4">
						<g>
							<polygon class="st20" points="625.2,126.4 625.6,125.1 625.7,129 625.3,130.4 							"/>
						</g>
						<g>
							<polygon class="st22" points="606.9,126.4 607.3,125.1 625.6,125.1 625.2,126.4 							"/>
						</g>
						<g>
							<polygon class="st23" points="625.2,126.4 625.3,130.4 607,130.4 606.9,126.4 							"/>
						</g>
					</g>
				</g>
			</g>
		</g>
		<g>
			<g>
				<g class="st4">
					<g>
						<polygon class="st20" points="602,157.4 602.4,156 602.4,160 602.1,161.3 						"/>
					</g>
					<g>
						<polygon class="st22" points="583.7,157.4 584,156 602.4,156 602,157.4 						"/>
					</g>
					<g>
						<polygon class="st23" points="602,157.4 602.1,161.3 583.7,161.3 583.7,157.4 						"/>
					</g>
				</g>
			</g>
		</g>
		<g>
			<g>
				<g class="st4">
					<g>
						<polygon class="st20" points="602.3,152.3 602.6,150.9 602.7,154.8 602.3,156.2 						"/>
					</g>
					<g>
						<polygon class="st22" points="583.9,152.3 584.3,150.9 602.6,150.9 602.3,152.3 						"/>
					</g>
					<g>
						<polygon class="st23" points="602.3,152.3 602.3,156.2 584,156.2 583.9,152.3 						"/>
					</g>
				</g>
			</g>
		</g>
		<g>
			<g>
				<g class="st4">
					<g>
						<polygon class="st20" points="602.5,147.1 602.9,145.7 603,149.7 602.6,151 						"/>
					</g>
					<g>
						<polygon class="st22" points="584.2,147.1 584.6,145.7 602.9,145.7 602.5,147.1 						"/>
					</g>
					<g>
						<polygon class="st23" points="602.5,147.1 602.6,151 584.3,151 584.2,147.1 						"/>
					</g>
				</g>
			</g>
		</g>
		<g>
			<g>
				<g class="st4">
					<g>
						<polygon class="st20" points="602.9,142 603.2,140.7 603.3,144.6 603,145.9 						"/>
					</g>
					<g>
						<polygon class="st22" points="584.5,142 584.9,140.7 603.2,140.7 602.9,142 						"/>
					</g>
					<g>
						<polygon class="st23" points="602.9,142 603,145.9 584.6,145.9 584.5,142 						"/>
					</g>
				</g>
			</g>
		</g>
		<g>
			<g>
				<g class="st4">
					<g>
						<polygon class="st20" points="603.2,136.9 603.5,135.5 603.6,139.4 603.3,140.8 						"/>
					</g>
					<g>
						<polygon class="st22" points="584.8,136.9 585.2,135.5 603.5,135.5 603.2,136.9 						"/>
					</g>
					<g>
						<polygon class="st23" points="603.2,136.9 603.3,140.8 584.9,140.8 584.8,136.9 						"/>
					</g>
				</g>
			</g>
		</g>
		<g>
			<g>
				<g class="st4">
					<g>
						<polygon class="st20" points="603.5,131.7 603.8,130.3 603.9,134.3 603.5,135.6 						"/>
					</g>
					<g>
						<polygon class="st22" points="585.1,131.7 585.5,130.3 603.8,130.3 603.5,131.7 						"/>
					</g>
					<g>
						<polygon class="st23" points="603.5,131.7 603.5,135.6 585.2,135.6 585.1,131.7 						"/>
					</g>
				</g>
			</g>
		</g>
		<g>
			<g>
				<g class="st4">
					<g>
						<polygon class="st20" points="603.8,126.4 604.1,125.1 604.2,129 603.9,130.4 						"/>
					</g>
					<g>
						<polygon class="st22" points="585.5,126.4 585.8,125.1 604.1,125.1 603.8,126.4 						"/>
					</g>
					<g>
						<polygon class="st23" points="603.8,126.4 603.9,130.4 585.5,130.4 585.5,126.4 						"/>
					</g>
				</g>
			</g>
		</g>
	</g>
</g>
<g id="nopointer_2_">
</g>
<g id="nopointer_1_">
	<polygon class="st15" points="846.7,204.4 851.5,204.4 857.8,282.4 853.7,282.4 	"/>
	<polygon class="st16" points="851.5,204.1 853.7,217.8 858.3,282.1 857.8,282.1 	"/>
</g>
</svg>
