<?xml version="1.0" encoding="utf-8"?>
<!-- Generator: Adobe Illustrator 23.0.1, SVG Export Plug-In . SVG Version: 6.00 Build 0)  -->
<svg version="1.1" id="Layer_1" xmlns="http://www.w3.org/2000/svg" xmlns:xlink="http://www.w3.org/1999/xlink" x="0px" y="0px"
	 viewBox="0 0 800 455" style="enable-background:new 0 0 800 455;" xml:space="preserve">
<style type="text/css">
	.st0{fill:#EFEFEF;}
	.st1{fill:#BFBFBF;}
	.st2{fill:#868686;}
	.st3{display:none;fill:#84D3D3;}
	.st4{display:none;fill:#858585;}
	.st5{fill:#7F7F7F;}
	.st6{enable-background:new    ;}
	.st7{fill:#919191;}
	.st8{fill:#6F6F6F;}
	.st9{fill:#C1C1C1;}
	.st10{fill:#6C6C6C;}
	.st11{fill:#607D94;}
	.st12{fill:#4A6071;}
	.st13{fill:#80A7C5;}
	.st14{fill:#959595;}
	.st15{fill:#A7A7A7;}
	.st16{fill:#C0C0C0;}
	.st17{fill:#528484;}
	.st18{fill:#76BCBC;}
</style>
<g id="nopointer">
	<polyline class="st0" points="627.9,192.8 176.1,194.9 182.4,110.7 192.3,32.3 751.1,39.8 632.1,126.5 	"/>
	<g>
		<polygon class="st1" points="180,28.9 184,28.9 178.5,192 173.7,187.6 		"/>
		<polygon class="st2" points="184,28.9 184.7,28.9 187.2,62.9 179.2,194.9 177.2,192 		"/>
	</g>
	<polygon class="st3" points="-793.2,204.4 -788.4,204.4 -782.1,282.4 -786.2,282.4 	"/>
	<polygon class="st4" points="-788.4,204.1 -786.2,217.8 -781.6,282.1 -782.1,282.1 	"/>
	<rect x="632" y="37.9" class="st5" width="30.6" height="1.7"/>
	<g>
		<g>
			<g class="st6">
				<g>
					<polygon class="st7" points="628.6,28.8 632.4,36 631.6,56.2 627.8,48.9 					"/>
				</g>
				<g>
					<polygon class="st8" points="627.8,48.9 631.6,56.2 582.3,56.2 578.6,48.9 					"/>
				</g>
				<g>
					<polygon class="st9" points="628.6,28.8 627.8,48.9 578.6,48.9 579.3,28.8 					"/>
				</g>
			</g>
		</g>
	</g>
	<g>
		<g>
			<g class="st6">
				<g>
					<polygon class="st2" points="224.7,184.3 227.2,191.6 227.1,194.9 224.6,187.6 					"/>
				</g>
				<g>
					<polygon class="st10" points="224.6,187.6 227.1,194.9 176.1,194.9 173.6,187.6 					"/>
				</g>
				<g>
					<polygon class="st1" points="224.7,184.3 224.6,187.6 173.6,187.6 173.8,184.3 					"/>
				</g>
			</g>
		</g>
	</g>
	<g>
		<g class="st6">
			<g>
				<polygon class="st2" points="226.4,168.7 228.9,176 228.8,179.3 226.3,172 				"/>
			</g>
		</g>
	</g>
</g>
<g id="landmark-feri_1_">
	<g id="Žensko_stranišče">
		<g>
			<g class="st6">
				<g>
					<polygon class="st11" points="226.1,28.9 229.7,35.8 228.2,76.9 224.6,70.1 					"/>
				</g>
				<g>
					<polygon class="st12" points="224.6,70.1 228.2,76.9 186.6,76.9 183,70.1 					"/>
				</g>
				<g>
					<polygon class="st13" points="226.1,28.9 224.6,70.1 183,70.1 184.6,28.9 					"/>
				</g>
			</g>
		</g>
	</g>
	<g id="Moško_stranišče">
		<g>
			<g class="st6">
				<g>
					<polygon class="st11" points="262.1,28.9 266,36.4 263.7,96.8 259.8,89.3 					"/>
				</g>
				<g>
					<polygon class="st12" points="259.8,89.3 263.7,96.8 229.2,96.8 225.2,89.3 					"/>
				</g>
				<g>
					<polygon class="st13" points="262.1,28.9 259.8,89.3 225.2,89.3 227.5,28.9 					"/>
				</g>
			</g>
		</g>
	</g>
	<g id="beta_1_">
	</g>
	<g id="_x34_N61">
		<g>
			<g class="st6">
				<g>
					<polygon class="st7" points="298.1,28.9 302,36.4 299.7,96.8 295.8,89.3 					"/>
				</g>
				<g>
					<polygon class="st8" points="295.8,89.3 299.7,96.8 265.2,96.8 261.2,89.3 					"/>
				</g>
				<g>
					<polygon class="st9" points="298.1,28.9 295.8,89.3 261.2,89.3 263.5,28.9 					"/>
				</g>
			</g>
		</g>
	</g>
	<g id="_x34_N62">
		<g>
			<g class="st6">
				<g>
					<polygon class="st7" points="334.1,28.9 338,36.4 335.7,96.9 331.8,89.3 					"/>
				</g>
				<g>
					<polygon class="st8" points="331.8,89.3 335.7,96.9 301.2,96.9 297.3,89.3 					"/>
				</g>
				<g>
					<polygon class="st9" points="334.1,28.9 331.8,89.3 297.3,89.3 299.5,28.9 					"/>
				</g>
			</g>
		</g>
	</g>
	<g id="_x34_N63">
		<g>
			<g class="st6">
				<g>
					<polygon class="st7" points="370.1,28.9 374,36.5 371.7,96.9 367.8,89.3 					"/>
				</g>
				<g>
					<polygon class="st8" points="367.8,89.3 371.7,96.9 337.2,96.9 333.3,89.3 					"/>
				</g>
				<g>
					<polygon class="st9" points="370.1,28.9 367.8,89.3 333.3,89.3 335.5,28.9 					"/>
				</g>
			</g>
		</g>
	</g>
	<g id="_x34_N64">
		<g>
			<g class="st6">
				<g>
					<polygon class="st7" points="406.1,28.9 410,36.5 407.7,96.9 403.8,89.4 					"/>
				</g>
				<g>
					<polygon class="st8" points="403.8,89.4 407.7,96.9 373.2,96.9 369.3,89.4 					"/>
				</g>
				<g>
					<polygon class="st9" points="406.1,28.9 403.8,89.4 369.3,89.4 371.5,28.9 					"/>
				</g>
			</g>
		</g>
	</g>
	<g id="_x34_N65">
		<g>
			<g class="st6">
				<g>
					<polygon class="st7" points="442.1,29 446,36.5 443.8,97 439.8,89.4 					"/>
				</g>
				<g>
					<polygon class="st8" points="439.8,89.4 443.8,97 409.2,97 405.3,89.4 					"/>
				</g>
				<g>
					<polygon class="st9" points="442.1,29 439.8,89.4 405.3,89.4 407.5,29 					"/>
				</g>
			</g>
		</g>
	</g>
	<g id="_x34_N66">
		<g>
			<g class="st6">
				<g>
					<polygon class="st7" points="504.2,28.7 508.1,36.2 505.9,96.7 502,89.2 					"/>
				</g>
				<g>
					<polygon class="st8" points="502,89.2 505.9,96.7 445.3,96.7 441.4,89.2 					"/>
				</g>
				<g>
					<polygon class="st9" points="504.2,28.7 502,89.2 441.4,89.2 443.7,28.7 					"/>
				</g>
			</g>
		</g>
	</g>
	<g id="nopointer_3_">
		<g>
			<g class="st6">
				<g>
					<polygon class="st7" points="540.7,28.9 544.6,36.4 542.4,96.8 538.5,89.3 					"/>
				</g>
				<g>
					<polygon class="st8" points="538.5,89.3 542.4,96.8 507.8,96.8 503.9,89.3 					"/>
				</g>
				<g>
					<polygon class="st9" points="540.7,28.9 538.5,89.3 503.9,89.3 506.1,28.9 					"/>
				</g>
			</g>
		</g>
	</g>
	<g id="Moško_stranišče_zaposleni">
		<g>
			<g class="st6">
				<g>
					<polygon class="st11" points="577.2,28.9 580.5,35.1 578.9,76.3 575.7,70.1 					"/>
				</g>
				<g>
					<polygon class="st12" points="575.7,70.1 578.9,76.3 544.3,76.3 541.1,70.1 					"/>
				</g>
				<g>
					<polygon class="st13" points="577.2,28.9 575.7,70.1 541.1,70.1 542.6,28.9 					"/>
				</g>
			</g>
		</g>
	</g>
	<g id="Žensko_stranišče_zaposleni">
		<g>
			<g class="st6">
				<g>
					<polygon class="st11" points="627.8,50.6 631.5,57.9 630.6,81.5 626.9,74.2 					"/>
				</g>
				<g>
					<polygon class="st12" points="626.9,74.2 630.6,81.5 596.1,81.5 592.3,74.2 					"/>
				</g>
				<g>
					<polygon class="st13" points="627.8,50.6 626.9,74.2 592.3,74.2 593.2,50.6 					"/>
				</g>
			</g>
		</g>
	</g>
	<g id="Stranišče_za_invalide">
		<g>
			<g class="st6">
				<g>
					<polygon class="st11" points="626.7,76.1 630.5,83.3 629.6,106.9 625.8,99.6 					"/>
				</g>
				<g>
					<polygon class="st12" points="625.8,99.6 629.6,106.9 595,106.9 591.2,99.6 					"/>
				</g>
				<g>
					<polygon class="st13" points="626.7,76.1 625.8,99.6 591.2,99.6 592.1,76.1 					"/>
				</g>
			</g>
		</g>
	</g>
	<g id="Galerija">
		<g>
			<g class="st6">
				<g>
					<polygon class="st2" points="749.2,29.8 751.1,37.5 748.1,139 746.1,131.3 					"/>
				</g>
				<g>
					<polygon class="st10" points="746.1,131.3 748.1,139 629.7,139 627.7,131.3 					"/>
				</g>
				<g>
					<polygon class="st1" points="749.2,29.8 746.1,131.3 627.7,131.3 630.8,29.8 					"/>
				</g>
			</g>
		</g>
	</g>
	<g id="_x34_N54">
		<g>
			<g class="st6">
				<g>
					<polygon class="st7" points="262,126.7 265.9,134.2 263.7,194.7 259.7,187.1 					"/>
				</g>
				<g>
					<polygon class="st8" points="259.7,187.1 263.7,194.7 229.1,194.7 225.2,187.1 					"/>
				</g>
				<g>
					<polygon class="st9" points="262,126.7 259.7,187.1 225.2,187.1 227.4,126.7 					"/>
				</g>
			</g>
		</g>
	</g>
	<g id="_x34_N55">
		<g>
			<g class="st6">
				<g>
					<polygon class="st7" points="298,126.8 301.9,134.3 299.7,194.8 295.8,187.2 					"/>
				</g>
				<g>
					<polygon class="st8" points="295.8,187.2 299.7,194.8 265.1,194.8 261.2,187.2 					"/>
				</g>
				<g>
					<polygon class="st9" points="298,126.8 295.8,187.2 261.2,187.2 263.5,126.8 					"/>
				</g>
			</g>
		</g>
	</g>
	<g id="_x34_N56">
		<g>
			<g class="st6">
				<g>
					<polygon class="st7" points="334.1,127 338,134.5 335.7,194.9 331.8,187.4 					"/>
				</g>
				<g>
					<polygon class="st8" points="331.8,187.4 335.7,194.9 301.1,194.9 297.2,187.4 					"/>
				</g>
				<g>
					<polygon class="st9" points="334.1,127 331.8,187.4 297.2,187.4 299.5,127 					"/>
				</g>
			</g>
		</g>
	</g>
	<g id="_x34_N57">
		<g>
			<g class="st6">
				<g>
					<polygon class="st7" points="370.1,127 374,134.5 371.8,194.9 367.8,187.4 					"/>
				</g>
				<g>
					<polygon class="st8" points="367.8,187.4 371.8,194.9 337.2,194.9 333.3,187.4 					"/>
				</g>
				<g>
					<polygon class="st9" points="370.1,127 367.8,187.4 333.3,187.4 335.5,127 					"/>
				</g>
			</g>
		</g>
	</g>
	<g id="_x34_N58">
		<g>
			<g class="st6">
				<g>
					<polygon class="st7" points="406.1,127.2 410,134.7 407.8,195.2 403.9,187.6 					"/>
				</g>
				<g>
					<polygon class="st8" points="403.9,187.6 407.8,195.2 373.2,195.2 369.3,187.6 					"/>
				</g>
				<g>
					<polygon class="st9" points="406.1,127.2 403.9,187.6 369.3,187.6 371.6,127.2 					"/>
				</g>
			</g>
		</g>
	</g>
	<g id="_x34_N59">
		<g>
			<g class="st6">
				<g>
					<polygon class="st7" points="442.2,127.2 446.1,134.8 443.8,195.2 439.9,187.6 					"/>
				</g>
				<g>
					<polygon class="st8" points="439.9,187.6 443.8,195.2 409.2,195.2 405.3,187.6 					"/>
				</g>
				<g>
					<polygon class="st9" points="442.2,127.2 439.9,187.6 405.3,187.6 407.6,127.2 					"/>
				</g>
			</g>
		</g>
	</g>
	<g id="_x34_N60">
		<g>
			<g class="st6">
				<g>
					<polygon class="st7" points="478.2,127.1 482.1,134.7 479.8,195.1 475.9,187.6 					"/>
				</g>
				<g>
					<polygon class="st8" points="475.9,187.6 479.8,195.1 445.3,195.1 441.4,187.6 					"/>
				</g>
				<g>
					<polygon class="st9" points="478.2,127.1 475.9,187.6 441.4,187.6 443.6,127.1 					"/>
				</g>
			</g>
		</g>
	</g>
	<g id="nopointer_4_">
		<g>
			<g class="st6">
				<g>
					<polygon class="st7" points="514.2,127.4 518.1,135 515.9,195.4 512,187.9 					"/>
				</g>
				<g>
					<polygon class="st8" points="512,187.9 515.9,195.4 481.3,195.4 477.4,187.9 					"/>
				</g>
				<g>
					<polygon class="st9" points="514.2,127.4 512,187.9 477.4,187.9 479.6,127.4 					"/>
				</g>
			</g>
		</g>
	</g>
	<g id="nopointer_6_">
		<g>
			<g class="st6">
				<g>
					<polygon class="st7" points="574.2,127.3 578,134.7 575.8,195.2 572,187.9 					"/>
				</g>
				<g>
					<polygon class="st8" points="572,187.9 575.8,195.2 517.4,195.2 513.6,187.9 					"/>
				</g>
				<g>
					<polygon class="st9" points="574.2,127.3 572,187.9 513.6,187.9 515.8,127.3 					"/>
				</g>
			</g>
		</g>
	</g>
	<g id="nadstopje4_x5F_2">
		<g>
			<g>
				<g class="st6">
					<g>
						<polygon class="st14" points="199.6,166.5 199.9,165.2 200,169.1 199.6,170.5 						"/>
					</g>
					<g>
						<polygon class="st15" points="181.2,166.5 181.6,165.2 199.9,165.2 199.6,166.5 						"/>
					</g>
					<g>
						<polygon class="st16" points="199.6,166.5 199.6,170.5 181.3,170.5 181.2,166.5 						"/>
					</g>
				</g>
			</g>
		</g>
		<g>
			<g>
				<g class="st6">
					<g>
						<polygon class="st14" points="199.8,161.4 200.2,160.1 200.2,164 199.9,165.3 						"/>
					</g>
					<g>
						<polygon class="st15" points="181.5,161.4 181.8,160.1 200.2,160.1 199.8,161.4 						"/>
					</g>
					<g>
						<polygon class="st16" points="199.8,161.4 199.9,165.3 181.5,165.3 181.5,161.4 						"/>
					</g>
				</g>
			</g>
		</g>
		<g>
			<g>
				<g class="st6">
					<g>
						<polygon class="st14" points="200.1,156.2 200.4,154.9 200.5,158.8 200.2,160.2 						"/>
					</g>
					<g>
						<polygon class="st15" points="181.7,156.2 182.1,154.9 200.4,154.9 200.1,156.2 						"/>
					</g>
					<g>
						<polygon class="st16" points="200.1,156.2 200.2,160.2 181.8,160.2 181.7,156.2 						"/>
					</g>
				</g>
			</g>
		</g>
		<g>
			<g>
				<g class="st6">
					<g>
						<polygon class="st14" points="200.4,151.2 200.8,149.8 200.9,153.7 200.5,155.1 						"/>
					</g>
					<g>
						<polygon class="st15" points="182.1,151.2 182.4,149.8 200.8,149.8 200.4,151.2 						"/>
					</g>
					<g>
						<polygon class="st16" points="200.4,151.2 200.5,155.1 182.2,155.1 182.1,151.2 						"/>
					</g>
				</g>
			</g>
		</g>
		<g>
			<g>
				<g class="st6">
					<g>
						<polygon class="st14" points="200.7,146 201.1,144.7 201.2,148.6 200.8,149.9 						"/>
					</g>
					<g>
						<polygon class="st15" points="182.4,146 182.7,144.7 201.1,144.7 200.7,146 						"/>
					</g>
					<g>
						<polygon class="st16" points="200.7,146 200.8,149.9 182.5,149.9 182.4,146 						"/>
					</g>
				</g>
			</g>
		</g>
		<g>
			<g>
				<g class="st6">
					<g>
						<polygon class="st14" points="201,140.8 201.4,139.5 201.4,143.4 201.1,144.8 						"/>
					</g>
					<g>
						<polygon class="st15" points="182.7,140.8 183,139.5 201.4,139.5 201,140.8 						"/>
					</g>
					<g>
						<polygon class="st16" points="201,140.8 201.1,144.8 182.7,144.8 182.7,140.8 						"/>
					</g>
				</g>
			</g>
		</g>
		<g>
			<g>
				<g class="st6">
					<g>
						<polygon class="st14" points="201.3,135.6 201.7,134.2 201.8,138.2 201.4,139.5 						"/>
					</g>
					<g>
						<polygon class="st15" points="183,135.6 183.4,134.2 201.7,134.2 201.3,135.6 						"/>
					</g>
					<g>
						<polygon class="st16" points="201.3,135.6 201.4,139.5 183.1,139.5 183,135.6 						"/>
					</g>
				</g>
			</g>
		</g>
		<g>
			<g>
				<g>
					<g class="st6">
						<g>
							<polygon class="st14" points="221,166.5 221.4,165.2 221.4,169.1 221.1,170.5 							"/>
						</g>
						<g>
							<polygon class="st15" points="202.7,166.5 203,165.2 221.4,165.2 221,166.5 							"/>
						</g>
						<g>
							<polygon class="st16" points="221,166.5 221.1,170.5 202.7,170.5 202.7,166.5 							"/>
						</g>
					</g>
				</g>
			</g>
			<g>
				<g>
					<g class="st6">
						<g>
							<polygon class="st14" points="221.3,161.4 221.6,160 221.7,164 221.4,165.3 							"/>
						</g>
						<g>
							<polygon class="st15" points="202.9,161.4 203.3,160 221.6,160 221.3,161.4 							"/>
						</g>
						<g>
							<polygon class="st16" points="221.3,161.4 221.4,165.3 203,165.3 202.9,161.4 							"/>
						</g>
					</g>
				</g>
			</g>
			<g>
				<g>
					<g class="st6">
						<g>
							<polygon class="st14" points="221.6,156.2 221.9,154.9 222,158.8 221.6,160.2 							"/>
						</g>
						<g>
							<polygon class="st15" points="203.2,156.2 203.6,154.9 221.9,154.9 221.6,156.2 							"/>
						</g>
						<g>
							<polygon class="st16" points="221.6,156.2 221.6,160.2 203.3,160.2 203.2,156.2 							"/>
						</g>
					</g>
				</g>
			</g>
			<g>
				<g>
					<g class="st6">
						<g>
							<polygon class="st14" points="221.9,151.1 222.3,149.8 222.3,153.7 222,155.1 							"/>
						</g>
						<g>
							<polygon class="st15" points="203.6,151.1 203.9,149.8 222.3,149.8 221.9,151.1 							"/>
						</g>
						<g>
							<polygon class="st16" points="221.9,151.1 222,155.1 203.6,155.1 203.6,151.1 							"/>
						</g>
					</g>
				</g>
			</g>
			<g>
				<g>
					<g class="st6">
						<g>
							<polygon class="st14" points="222.2,146 222.5,144.6 222.6,148.6 222.3,149.9 							"/>
						</g>
						<g>
							<polygon class="st15" points="203.9,146 204.2,144.6 222.5,144.6 222.2,146 							"/>
						</g>
						<g>
							<polygon class="st16" points="222.2,146 222.3,149.9 203.9,149.9 203.9,146 							"/>
						</g>
					</g>
				</g>
			</g>
			<g>
				<g>
					<g class="st6">
						<g>
							<polygon class="st14" points="222.5,140.8 222.8,139.5 222.9,143.4 222.5,144.8 							"/>
						</g>
						<g>
							<polygon class="st15" points="204.1,140.8 204.5,139.5 222.8,139.5 222.5,140.8 							"/>
						</g>
						<g>
							<polygon class="st16" points="222.5,140.8 222.5,144.8 204.2,144.8 204.1,140.8 							"/>
						</g>
					</g>
				</g>
			</g>
			<g>
				<g>
					<g class="st6">
						<g>
							<polygon class="st14" points="222.8,135.6 223.2,134.2 223.2,138.1 222.9,139.5 							"/>
						</g>
						<g>
							<polygon class="st15" points="204.5,135.6 204.8,134.2 223.2,134.2 222.8,135.6 							"/>
						</g>
						<g>
							<polygon class="st16" points="222.8,135.6 222.9,139.5 204.5,139.5 204.5,135.6 							"/>
						</g>
					</g>
				</g>
			</g>
		</g>
	</g>
	<g id="nadstopje4_x5F_1">
		<g>
			<g>
				<g class="st6">
					<g>
						<polygon class="st14" points="623.4,157.4 623.7,156 623.8,160 623.4,161.3 						"/>
					</g>
					<g>
						<polygon class="st15" points="605,157.4 605.4,156 623.7,156 623.4,157.4 						"/>
					</g>
					<g>
						<polygon class="st16" points="623.4,157.4 623.4,161.3 605.1,161.3 605,157.4 						"/>
					</g>
				</g>
			</g>
		</g>
		<g>
			<g>
				<g class="st6">
					<g>
						<polygon class="st14" points="623.6,152.3 624,150.9 624,154.8 623.7,156.2 						"/>
					</g>
					<g>
						<polygon class="st15" points="605.3,152.3 605.6,150.9 624,150.9 623.6,152.3 						"/>
					</g>
					<g>
						<polygon class="st16" points="623.6,152.3 623.7,156.2 605.4,156.2 605.3,152.3 						"/>
					</g>
				</g>
			</g>
		</g>
		<g>
			<g>
				<g class="st6">
					<g>
						<polygon class="st14" points="623.9,147.1 624.3,145.7 624.3,149.7 624,151 						"/>
					</g>
					<g>
						<polygon class="st15" points="605.6,147.1 605.9,145.7 624.3,145.7 623.9,147.1 						"/>
					</g>
					<g>
						<polygon class="st16" points="623.9,147.1 624,151 605.6,151 605.6,147.1 						"/>
					</g>
				</g>
			</g>
		</g>
		<g>
			<g>
				<g class="st6">
					<g>
						<polygon class="st14" points="624.2,142 624.6,140.7 624.7,144.6 624.3,145.9 						"/>
					</g>
					<g>
						<polygon class="st15" points="605.9,142 606.3,140.7 624.6,140.7 624.2,142 						"/>
					</g>
					<g>
						<polygon class="st16" points="624.2,142 624.3,145.9 606,145.9 605.9,142 						"/>
					</g>
				</g>
			</g>
		</g>
		<g>
			<g>
				<g class="st6">
					<g>
						<polygon class="st14" points="624.5,136.9 624.9,135.5 625,139.4 624.6,140.8 						"/>
					</g>
					<g>
						<polygon class="st15" points="606.2,136.9 606.5,135.5 624.9,135.5 624.5,136.9 						"/>
					</g>
					<g>
						<polygon class="st16" points="624.5,136.9 624.6,140.8 606.3,140.8 606.2,136.9 						"/>
					</g>
				</g>
			</g>
		</g>
		<g>
			<g>
				<g class="st6">
					<g>
						<polygon class="st14" points="624.8,131.7 625.2,130.3 625.2,134.3 624.9,135.6 						"/>
					</g>
					<g>
						<polygon class="st15" points="606.5,131.7 606.8,130.3 625.2,130.3 624.8,131.7 						"/>
					</g>
					<g>
						<polygon class="st16" points="624.8,131.7 624.9,135.6 606.5,135.6 606.5,131.7 						"/>
					</g>
				</g>
			</g>
		</g>
		<g>
			<g>
				<g class="st6">
					<g>
						<polygon class="st14" points="625.1,126.4 625.5,125.1 625.6,129 625.2,130.4 						"/>
					</g>
					<g>
						<polygon class="st15" points="606.8,126.4 607.2,125.1 625.5,125.1 625.1,126.4 						"/>
					</g>
					<g>
						<polygon class="st16" points="625.1,126.4 625.2,130.4 606.9,130.4 606.8,126.4 						"/>
					</g>
				</g>
			</g>
		</g>
		<g>
			<g>
				<g class="st6">
					<g>
						<polygon class="st14" points="602.2,152.3 602.5,150.9 602.6,154.8 602.2,156.2 						"/>
					</g>
					<g>
						<polygon class="st15" points="583.8,152.3 584.2,150.9 602.5,150.9 602.2,152.3 						"/>
					</g>
					<g>
						<polygon class="st16" points="602.2,152.3 602.2,156.2 583.9,156.2 583.8,152.3 						"/>
					</g>
				</g>
			</g>
		</g>
		<g>
			<g>
				<g class="st6">
					<g>
						<polygon class="st14" points="602.4,147.1 602.8,145.7 602.9,149.7 602.5,151 						"/>
					</g>
					<g>
						<polygon class="st15" points="584.1,147.1 584.5,145.7 602.8,145.7 602.4,147.1 						"/>
					</g>
					<g>
						<polygon class="st16" points="602.4,147.1 602.5,151 584.2,151 584.1,147.1 						"/>
					</g>
				</g>
			</g>
		</g>
		<g>
			<g>
				<g class="st6">
					<g>
						<polygon class="st14" points="602.8,142 603.1,140.7 603.2,144.6 602.9,145.9 						"/>
					</g>
					<g>
						<polygon class="st15" points="584.4,142 584.8,140.7 603.1,140.7 602.8,142 						"/>
					</g>
					<g>
						<polygon class="st16" points="602.8,142 602.9,145.9 584.5,145.9 584.4,142 						"/>
					</g>
				</g>
			</g>
		</g>
		<g>
			<g>
				<g class="st6">
					<g>
						<polygon class="st14" points="603.1,136.9 603.4,135.5 603.5,139.4 603.2,140.8 						"/>
					</g>
					<g>
						<polygon class="st15" points="584.7,136.9 585.1,135.5 603.4,135.5 603.1,136.9 						"/>
					</g>
					<g>
						<polygon class="st16" points="603.1,136.9 603.2,140.8 584.8,140.8 584.7,136.9 						"/>
					</g>
				</g>
			</g>
		</g>
		<g>
			<g>
				<g class="st6">
					<g>
						<polygon class="st14" points="603.4,131.7 603.7,130.3 603.8,134.3 603.4,135.6 						"/>
					</g>
					<g>
						<polygon class="st15" points="585,131.7 585.4,130.3 603.7,130.3 603.4,131.7 						"/>
					</g>
					<g>
						<polygon class="st16" points="603.4,131.7 603.4,135.6 585.1,135.6 585,131.7 						"/>
					</g>
				</g>
			</g>
		</g>
		<g>
			<g>
				<g class="st6">
					<g>
						<polygon class="st14" points="603.7,126.4 604,125.1 604.1,129 603.8,130.4 						"/>
					</g>
					<g>
						<polygon class="st15" points="585.4,126.4 585.7,125.1 604,125.1 603.7,126.4 						"/>
					</g>
					<g>
						<polygon class="st16" points="603.7,126.4 603.8,130.4 585.4,130.4 585.4,126.4 						"/>
					</g>
				</g>
			</g>
		</g>
		<g>
			<g>
				<g class="st6">
					<g>
						<polygon class="st14" points="601.9,157.4 602.3,156 602.3,160 602,161.3 						"/>
					</g>
					<g>
						<polygon class="st15" points="583.6,157.4 583.9,156 602.3,156 601.9,157.4 						"/>
					</g>
					<g>
						<polygon class="st16" points="601.9,157.4 602,161.3 583.6,161.3 583.6,157.4 						"/>
					</g>
				</g>
			</g>
		</g>
	</g>
</g>
<g id="nopointer_2_">
	<g>
		<g>
			<g class="st6">
				<g>
					<polygon class="st7" points="575.6,72.1 579.3,79.1 578.6,96.7 575,89.7 					"/>
				</g>
				<g>
					<polygon class="st8" points="575,89.7 578.6,96.7 544,96.7 540.4,89.7 					"/>
				</g>
				<g>
					<polygon class="st9" points="575.6,72.1 575,89.7 540.4,89.7 541,72.1 					"/>
				</g>
			</g>
		</g>
	</g>
	<g>
		<line class="st17" x1="732.8" y1="144.3" x2="730.5" y2="137.2"/>
		<line class="st18" x1="730.5" y1="137.2" x2="726.1" y2="137.2"/>
	</g>
	<g>
		<line class="st17" x1="730.5" y1="221.6" x2="728.2" y2="214.5"/>
		<line class="st18" x1="728.2" y1="214.5" x2="723.8" y2="214.5"/>
	</g>
	<g>
		<g>
			<g>
				<path d="M245.2,54c-1.7,0-1.8,0-3.2,0c-0.8,0-1.4,0.6-1.4,1.4l0,4.4c0,0.3,0.3,0.6,0.6,0.6c0,0,0,0,0,0c0.3,0,0.6-0.3,0.6-0.6
					l0-4.4c0,0,0,0,0,0c0-0.1,0.1-0.1,0.1-0.1c0.1,0,0.1,0.1,0.1,0.1l0,10c0,0.4,0.3,0.7,0.7,0.7c0.4,0,0.7-0.3,0.7-0.7v-5.7h0.3
					v5.7c0,0.4,0.3,0.7,0.7,0.7c0.4,0,0.7-0.3,0.7-0.7c0-9.4,0-4,0-10c0-0.1,0.1-0.1,0.1-0.1c0.1,0,0.1,0,0.1,0.1c0,0,0,0,0,0l0,4.4
					c0,0.3,0.3,0.6,0.6,0.6c0,0,0,0,0,0c0.3,0,0.6-0.3,0.6-0.6l0-4.4c0,0,0,0,0,0C246.6,54.7,246,54,245.2,54z"/>
			</g>
		</g>
		<g>
			<g>
				<circle cx="243.6" cy="52.4" r="1.2"/>
			</g>
		</g>
	</g>
	<g>
		<g>
			<g>
				<path d="M208.3,51c0,0-1.1-3.1-1.3-3.6c-0.3-0.8-0.7-1.2-1.4-1.2c-0.9,0-1.2,0-2.1,0c-0.6,0-1.1,0.4-1.4,1.2
					c-0.2,0.5-1.3,3.6-1.3,3.6c-0.1,0.3,0.1,0.6,0.4,0.8c0.3,0.1,0.6-0.1,0.8-0.4c0-0.1,0.7-1.9,1.1-3c0,0.3,0.1-0.3-0.8,4.4
					c0,0.2,0.1,0.4,0.3,0.4c0.1,0,0.3,0,0.5,0v4.3c0,0.4,0.3,0.7,0.7,0.7s0.7-0.3,0.7-0.7v-4.3c0.1,0,0.2,0,0.3,0v4.3
					c0,0.4,0.3,0.7,0.7,0.7s0.7-0.3,0.7-0.7v-4.3c0.2,0,0.3,0,0.5,0c0.2,0,0.4-0.2,0.3-0.4c-0.9-4.7-0.8-4.1-0.8-4.4
					c0.4,1,1,2.9,1,3c0.1,0.3,0.4,0.5,0.8,0.4C208.3,51.6,208.4,51.3,208.3,51z"/>
			</g>
		</g>
		<g>
			<g>
				<circle cx="204.7" cy="44.5" r="1.2"/>
			</g>
		</g>
	</g>
	<g>
		<g>
			<g class="st6">
				<g>
					<polygon class="st2" points="622.2,184.5 624.6,191.9 624.5,195.2 622.1,187.8 					"/>
				</g>
				<g>
					<polygon class="st10" points="622.1,187.8 624.5,195.2 574.4,195.2 572,187.8 					"/>
				</g>
				<g>
					<polygon class="st1" points="622.2,184.5 622.1,187.8 572,187.8 572.2,184.5 					"/>
				</g>
			</g>
		</g>
	</g>
	<g>
		<g>
			<g>
				<path d="M560.2,45.7c-1.7,0-1.8,0-3.2,0c-0.8,0-1.4,0.6-1.4,1.4l0,4.4c0,0.3,0.3,0.6,0.6,0.6c0,0,0,0,0,0c0.3,0,0.6-0.3,0.6-0.6
					l0-4.4c0,0,0,0,0,0c0-0.1,0.1-0.1,0.1-0.1s0.1,0.1,0.1,0.1l0,10c0,0.4,0.3,0.7,0.7,0.7c0.4,0,0.7-0.3,0.7-0.7v-5.7h0.3v5.7
					c0,0.4,0.3,0.7,0.7,0.7c0.4,0,0.7-0.3,0.7-0.7c0-9.4,0-4,0-10c0-0.1,0.1-0.1,0.1-0.1c0.1,0,0.1,0,0.1,0.1c0,0,0,0,0,0l0,4.4
					c0,0.3,0.3,0.6,0.6,0.6c0,0,0,0,0,0c0.3,0,0.6-0.3,0.6-0.6l0-4.4c0,0,0,0,0,0C561.6,46.3,560.9,45.7,560.2,45.7z"/>
			</g>
		</g>
		<g>
			<g>
				<circle cx="558.6" cy="44.1" r="1.2"/>
			</g>
		</g>
	</g>
	<g>
		<g>
			<g>
				<path d="M613.1,62.1c0,0-1.1-3.1-1.3-3.6c-0.3-0.8-0.7-1.2-1.4-1.2c-0.9,0-1.2,0-2.1,0c-0.6,0-1.1,0.4-1.4,1.2
					c-0.2,0.5-1.3,3.6-1.3,3.6c-0.1,0.3,0.1,0.6,0.4,0.8c0.3,0.1,0.6-0.1,0.8-0.4c0-0.1,0.7-1.9,1.1-3c0,0.3,0.1-0.3-0.8,4.4
					c0,0.2,0.1,0.4,0.3,0.4c0.1,0,0.3,0,0.5,0v4.3c0,0.4,0.3,0.7,0.7,0.7c0.4,0,0.7-0.3,0.7-0.7v-4.3c0.1,0,0.2,0,0.3,0v4.3
					c0,0.4,0.3,0.7,0.7,0.7c0.4,0,0.7-0.3,0.7-0.7v-4.3c0.2,0,0.3,0,0.5,0c0.2,0,0.4-0.2,0.3-0.4c-0.9-4.7-0.8-4.1-0.8-4.4
					c0.4,1,1,2.9,1,3c0.1,0.3,0.4,0.5,0.8,0.4C613.1,62.8,613.2,62.4,613.1,62.1z"/>
			</g>
		</g>
		<g>
			<g>
				<circle cx="609.5" cy="55.7" r="1.2"/>
			</g>
		</g>
	</g>
	<g id="XMLID_28_">
		<path id="XMLID_31_" d="M609.5,83.4c0.8,0,1.5-0.7,1.5-1.5c0-0.8-0.7-1.5-1.5-1.5c-0.8,0-1.5,0.7-1.5,1.5
			C608,82.8,608.7,83.4,609.5,83.4z"/>
		<path id="XMLID_30_" d="M611.8,91.8c-0.4,1.4-1.7,2.4-3.1,2.4c-1.8,0-3.3-1.5-3.3-3.3c0-1.3,0.8-2.5,2-3v-1.4
			c-1.9,0.6-3.3,2.3-3.3,4.4c0,2.5,2.1,4.6,4.6,4.6c1.8,0,3.4-1.1,4.1-2.7l-0.5-1C612.1,91.8,611.9,91.8,611.8,91.8z"/>
		<path id="XMLID_29_" d="M616.1,93.6l-2-3.9c-0.1-0.3-0.4-0.5-0.8-0.5h-2.5v-0.6h2.2c0.2,0,0.4-0.1,0.5-0.3
			c0.1-0.1,0.1-0.2,0.1-0.4c0-0.4-0.3-0.7-0.7-0.7h-1.3h-0.9v-2c0-0.5-0.4-1.3-1.3-1.3c-0.7,0-1.3,0.6-1.3,1.3v4.2
			c0,0.7,0.6,1.3,1.3,1.3h2.4h0.9l1.7,3.4c0.2,0.3,0.5,0.5,0.8,0.5c0.1,0,0.3,0,0.4-0.1C616.1,94.5,616.3,94,616.1,93.6z"/>
	</g>
	<g id="nopointer_1_">
		<g>
			<g>
				<g class="st6">
					<g>
						<path class="st2" d="M634,306.8"/>
					</g>
					<g>
						<line class="st1" x1="629.6" y1="306.8" x2="634" y2="306.8"/>
					</g>
				</g>
			</g>
		</g>
		<g>
			<g>
				<g class="st6">
					<g>
						<path class="st2" d="M653.7,306.7"/>
					</g>
					<g>
						<line class="st1" x1="633.5" y1="306.7" x2="653.7" y2="306.7"/>
					</g>
				</g>
			</g>
		</g>
		<g>
			<g>
				<g class="st6">
					<g>
						<path class="st2" d="M656.3,306.8"/>
					</g>
					<g>
						<line class="st1" x1="651.9" y1="306.8" x2="656.3" y2="306.8"/>
					</g>
				</g>
			</g>
		</g>
		<polygon class="st3" points="26.6,204.4 31.4,204.4 37.7,282.4 33.6,282.4 		"/>
		<polygon class="st4" points="31.4,204.1 33.6,217.8 38.2,282.1 37.7,282.1 		"/>
		<g>
			<g>
				<g class="st6">
					<g>
						<polygon class="st2" points="628.6,131.4 630.9,139 628.7,195.1 626.4,187.9 						"/>
					</g>
					<g>
						<polygon class="st10" points="626.4,187.9 628.7,195.1 624.3,195.1 622,187.9 						"/>
					</g>
					<g>
						<polygon class="st1" points="628.9,124.9 626.4,187.9 622,187.9 624.4,124.9 						"/>
					</g>
				</g>
			</g>
		</g>
	</g>
</g>
</svg>
