<?xml version="1.0" encoding="utf-8"?>
<!-- Generator: Adobe Illustrator 23.0.1, SVG Export Plug-In . SVG Version: 6.00 Build 0)  -->
<svg version="1.1" id="Layer_1" xmlns="http://www.w3.org/2000/svg" xmlns:xlink="http://www.w3.org/1999/xlink" x="0px" y="0px"
	 viewBox="0 0 800 455" style="enable-background:new 0 0 800 455;" xml:space="preserve">
<style type="text/css">
	.st0{fill:#EFEFEF;}
	.st1{display:none;fill:#84D3D3;}
	.st2{display:none;fill:#858585;}
	.st3{fill:#FFFFFF;}
	.st4{fill:#7F7F7F;}
	.st5{enable-background:new    ;}
	.st6{fill:#919191;}
	.st7{fill:#6F6F6F;}
	.st8{fill:#C1C1C1;}
	.st9{fill:#868686;}
	.st10{fill:#E0E0E0;}
	.st11{fill:#6C6C6C;}
	.st12{fill:#BFBFBF;}
	.st13{fill:#607D94;}
	.st14{fill:#4A6071;}
	.st15{fill:#80A7C5;}
	.st16{fill:#7D7D7D;}
	.st17{fill:#606060;}
	.st18{fill:#A7A7A7;}
	.st19{fill:#528484;}
	.st20{fill:#76BCBC;}
	.st21{fill:#959595;}
	.st22{fill:#C0C0C0;}
	.st23{fill:#797979;}
	.st24{fill:#A9A9A9;}
	.st25{fill:#C7C7C7;}
	.st26{fill:#EAEAEA;}
	.st27{fill:#DD8080;}
	.st28{fill:#426A6A;}
	.st29{fill:#212121;}
	.st30{fill:#858585;}
</style>
<g id="nopointer">
	<polygon class="st0" points="182.8,32.1 741.6,39.6 726.6,184.1 720.8,401.5 584.8,413.1 437.1,417 230.8,421.5 180.7,418.9 
		175.8,304.4 152.8,304.7 172.9,110.6 	"/>
	<polygon class="st0" points="29.5,216 34.7,290.8 176.9,302.9 226.3,312.8 230.4,177.7 179.6,177.7 178.5,216.2 	"/>
	<polygon class="st1" points="-793.3,204.4 -788.5,204.4 -782.2,282.4 -786.3,282.4 	"/>
	<polygon class="st2" points="-788.5,204.1 -786.3,217.8 -781.7,282.1 -782.2,282.1 	"/>
	<path class="st0" d="M185.1,31.5l449.1,8l15.3,0.1l5.1,106.8l-1.7,48.2h5.7c0,0,18.4,62.4,13.2,109.3h32.7l1.9,68.1l-50.8-0.1
		l-0.7,28.3l-77.5,4l6.1-75.2L422,344.5l-173.2-18.1l-2.6,87l-67.1,2.6l-0.9-111.9l68-3.4l330.8-12.9l-0.4-92.5l-343.3-0.9
		l-4.9-18.2l-43.4,1.3V31.5z"/>
	<polygon class="st3" points="654.5,144.9 726,144.8 719.2,369.7 706.4,369.6 704.5,303.8 671.8,303.8 658.8,195.3 652.9,194.6 	"/>
	<rect x="631.9" y="37.9" class="st4" width="30.6" height="1.7"/>
	<g>
		<g>
			<g class="st5">
				<g>
					<polygon class="st6" points="628.5,28.8 632.2,36 631.5,56.2 627.7,48.9 					"/>
				</g>
				<g>
					<polygon class="st7" points="627.7,48.9 631.5,56.2 582.2,56.2 578.4,48.9 					"/>
				</g>
				<g>
					<polygon class="st8" points="628.5,28.8 627.7,48.9 578.4,48.9 579.2,28.8 					"/>
				</g>
			</g>
		</g>
	</g>
	<g>
		<g class="st5">
			<g>
				<polygon class="st9" points="226.3,168.7 228.7,176 228.6,179.3 226.2,172 				"/>
			</g>
		</g>
	</g>
	<g>
		<path class="st10" d="M644.8,43.9l-7.2,7c-0.4,0.4-0.4,1.1,0,1.6c0.4,0.4,1.1,0.4,1.6,0l5.3-5.1l-0.3,19c0,0.6,0.5,1.1,1.1,1.1
			s1.1-0.5,1.1-1.1l0.3-19l5.1,5.3c0.4,0.4,1.1,0.4,1.6,0c0.2-0.2,0.3-0.5,0.3-0.8s-0.1-0.6-0.3-0.8l-7-7.2
			C645.9,43.5,645.2,43.5,644.8,43.9z"/>
	</g>
</g>
<g id="landmark-feri_1_">
	<g id="gama">
		<g>
			<g class="st5">
				<g>
					<polygon class="st9" points="183.3,28.9 185.6,37.7 180,219.4 177.7,210.5 					"/>
				</g>
				<g>
					<polygon class="st11" points="177.7,210.5 180,219.4 29.7,219.4 27.3,210.5 					"/>
				</g>
				<polygon class="st12" points="183.3,28.9 177.7,210.5 27.3,210.5 32.9,28.9 				"/>
			</g>
		</g>
	</g>
	<g id="delta">
		<g>
			<g class="st5">
				<g>
					<polygon class="st9" points="152.7,288.4 155,297.5 151.9,399 149.6,389.9 					"/>
				</g>
				<g>
					<polygon class="st11" points="149.6,389.9 151.9,399 33.5,399 31.2,389.9 					"/>
				</g>
				<g>
					<polygon class="st12" points="152.7,288.4 149.6,389.9 31.2,389.9 34.3,288.4 					"/>
				</g>
			</g>
		</g>
	</g>
	<g id="Žensko_stranišče">
		<g>
			<g class="st5">
				<g>
					<polygon class="st13" points="226.1,28.9 229.7,35.8 228.2,76.9 224.6,70.1 					"/>
				</g>
				<g>
					<polygon class="st14" points="224.6,70.1 228.2,76.9 186.6,76.9 183,70.1 					"/>
				</g>
				<g>
					<polygon class="st15" points="226.1,28.9 224.6,70.1 183,70.1 184.6,28.9 					"/>
				</g>
			</g>
		</g>
	</g>
	<g id="Moško_stranišče">
		<g>
			<g class="st5">
				<g>
					<polygon class="st13" points="262.1,28.9 266,36.4 263.7,96.8 259.8,89.3 					"/>
				</g>
				<g>
					<polygon class="st14" points="259.8,89.3 263.7,96.8 229.2,96.8 225.2,89.3 					"/>
				</g>
				<g>
					<polygon class="st15" points="262.1,28.9 259.8,89.3 225.2,89.3 227.5,28.9 					"/>
				</g>
			</g>
		</g>
	</g>
	<g id="Herz">
		<g>
			<g class="st5">
				<g>
					<polygon class="st9" points="767.2,35.7 769.1,43.4 766.1,144.9 764.1,137.2 					"/>
				</g>
				<g>
					<polygon class="st11" points="764.1,137.2 766.1,144.9 647.7,144.9 645.7,137.2 					"/>
				</g>
				<g>
					<polygon class="st12" points="767.2,35.7 764.1,137.2 645.7,137.2 648.8,35.7 					"/>
				</g>
			</g>
		</g>
	</g>
	<g id="beta_1_">
	</g>
	<g id="Tesla">
		<g>
			<g class="st5">
				<g>
					<polygon class="st9" points="581.7,322 584,331.1 581.1,413.7 578.8,404.6 					"/>
				</g>
				<g>
					<polygon class="st11" points="578.8,404.6 581.1,413.7 464.3,416.5 462,407.4 					"/>
				</g>
				<g>
					<polygon class="st12" points="581.7,322 578.8,404.6 462,407.4 464.9,324 					"/>
				</g>
			</g>
		</g>
	</g>
	<g id="Farad">
		<g>
			<g class="st5">
				<g>
					<polygon class="st9" points="344.4,326.4 346.7,335.6 344.2,419.7 341.9,410.6 					"/>
				</g>
				<g>
					<polygon class="st11" points="341.9,410.6 344.2,419.7 248.5,422.6 246.2,413.4 					"/>
				</g>
				<g>
					<polygon class="st12" points="344.4,326.4 341.9,410.6 246.2,413.4 248.8,326.4 					"/>
				</g>
			</g>
		</g>
	</g>
	<g id="Weber">
		<g>
			<g class="st5">
				<g>
					<polygon class="st9" points="463.2,324.1 465.5,333.4 462.5,416.9 460.2,407.7 					"/>
				</g>
				<g>
					<polygon class="st11" points="460.2,407.7 462.5,416.9 345.7,419.7 343.4,410.5 					"/>
				</g>
				<g>
					<polygon class="st12" points="463.2,324.1 460.2,407.7 343.4,410.5 346.4,326.2 					"/>
				</g>
			</g>
		</g>
	</g>
	<g id="_x31_N08">
		<g>
			<g class="st5">
				<g>
					<polygon class="st6" points="298.1,28.9 302,36.4 299.7,96.8 295.8,89.3 					"/>
				</g>
				<g>
					<polygon class="st7" points="295.8,89.3 299.7,96.8 265.2,96.8 261.2,89.3 					"/>
				</g>
				<g>
					<polygon class="st8" points="298.1,28.9 295.8,89.3 261.2,89.3 263.5,28.9 					"/>
				</g>
			</g>
		</g>
	</g>
	<g id="_x31_N09">
		<g>
			<g class="st5">
				<g>
					<polygon class="st6" points="334.1,28.9 338,36.4 335.7,96.9 331.8,89.3 					"/>
				</g>
				<g>
					<polygon class="st7" points="331.8,89.3 335.7,96.9 301.2,96.9 297.3,89.3 					"/>
				</g>
				<g>
					<polygon class="st8" points="334.1,28.9 331.8,89.3 297.3,89.3 299.5,28.9 					"/>
				</g>
			</g>
		</g>
	</g>
	<g id="_x31_N10">
		<g>
			<g class="st5">
				<g>
					<polygon class="st6" points="370.1,28.9 374,36.5 371.7,96.9 367.8,89.3 					"/>
				</g>
				<g>
					<polygon class="st7" points="367.8,89.3 371.7,96.9 337.2,96.9 333.3,89.3 					"/>
				</g>
				<g>
					<polygon class="st8" points="370.1,28.9 367.8,89.3 333.3,89.3 335.5,28.9 					"/>
				</g>
			</g>
		</g>
	</g>
	<g id="_x31_N11">
		<g>
			<g class="st5">
				<g>
					<polygon class="st6" points="406.1,28.9 410,36.5 407.7,96.9 403.8,89.4 					"/>
				</g>
				<g>
					<polygon class="st7" points="403.8,89.4 407.7,96.9 373.2,96.9 369.3,89.4 					"/>
				</g>
				<g>
					<polygon class="st8" points="406.1,28.9 403.8,89.4 369.3,89.4 371.5,28.9 					"/>
				</g>
			</g>
		</g>
	</g>
	<g id="_x31_N12">
		<g>
			<g class="st5">
				<g>
					<polygon class="st6" points="442.1,29 446,36.5 443.8,97 439.8,89.4 					"/>
				</g>
				<g>
					<polygon class="st7" points="439.8,89.4 443.8,97 409.2,97 405.3,89.4 					"/>
				</g>
				<g>
					<polygon class="st8" points="442.1,29 439.8,89.4 405.3,89.4 407.5,29 					"/>
				</g>
			</g>
		</g>
	</g>
	<g id="_x31_N13">
		<g>
			<g class="st5">
				<g>
					<polygon class="st6" points="504.2,28.7 508.1,36.2 505.9,96.7 502,89.2 					"/>
				</g>
				<g>
					<polygon class="st7" points="502,89.2 505.9,96.7 445.3,96.7 441.4,89.2 					"/>
				</g>
				<g>
					<polygon class="st8" points="504.2,28.7 502,89.2 441.4,89.2 443.7,28.7 					"/>
				</g>
			</g>
		</g>
	</g>
	<g id="nopointer_3_">
		<g>
			<g class="st5">
				<g>
					<polygon class="st6" points="540.7,28.9 544.6,36.4 542.4,96.8 538.5,89.3 					"/>
				</g>
				<g>
					<polygon class="st7" points="538.5,89.3 542.4,96.8 507.8,96.8 503.9,89.3 					"/>
				</g>
				<g>
					<polygon class="st8" points="540.7,28.9 538.5,89.3 503.9,89.3 506.1,28.9 					"/>
				</g>
			</g>
		</g>
	</g>
	<g id="Moško_stranišče_zaposleni">
		<g>
			<g class="st5">
				<g>
					<polygon class="st13" points="577.2,28.9 580.5,35.1 578.9,76.3 575.7,70.1 					"/>
				</g>
				<g>
					<polygon class="st14" points="575.7,70.1 578.9,76.3 544.3,76.3 541.1,70.1 					"/>
				</g>
				<g>
					<polygon class="st15" points="577.2,28.9 575.7,70.1 541.1,70.1 542.6,28.9 					"/>
				</g>
			</g>
		</g>
	</g>
	<g id="Žensko_stranišče_zaposleni">
		<g>
			<g class="st5">
				<g>
					<polygon class="st13" points="627.8,50.6 631.5,57.9 630.6,81.5 626.9,74.2 					"/>
				</g>
				<g>
					<polygon class="st14" points="626.9,74.2 630.6,81.5 596.1,81.5 592.3,74.2 					"/>
				</g>
				<g>
					<polygon class="st15" points="627.8,50.6 626.9,74.2 592.3,74.2 593.2,50.6 					"/>
				</g>
			</g>
		</g>
	</g>
	<g id="Stranišče_za_invalide">
		<g>
			<g class="st5">
				<g>
					<polygon class="st13" points="626.7,76.1 630.5,83.3 629.6,106.9 625.8,99.6 					"/>
				</g>
				<g>
					<polygon class="st14" points="625.8,99.6 629.6,106.9 595,106.9 591.2,99.6 					"/>
				</g>
				<g>
					<polygon class="st15" points="626.7,76.1 625.8,99.6 591.2,99.6 592.1,76.1 					"/>
				</g>
			</g>
		</g>
	</g>
	<g>
		<g>
			<g class="st5">
				<g>
					<polygon class="st16" points="262,126.7 265.9,134.2 263.7,194.7 259.7,187.1 					"/>
				</g>
				<g>
					<polygon class="st17" points="259.7,187.1 263.7,194.7 229.1,194.7 225.2,187.1 					"/>
				</g>
				<g>
					<polygon class="st18" points="262,126.7 259.7,187.1 225.2,187.1 227.4,126.7 					"/>
				</g>
			</g>
		</g>
	</g>
	<g id="_x32_N28">
		<g>
			<g class="st5">
				<g>
					<polygon class="st6" points="262,126.7 265.9,134.2 263.7,194.7 259.7,187.1 					"/>
				</g>
				<g>
					<polygon class="st7" points="259.7,187.1 263.7,194.7 229.1,194.7 225.2,187.1 					"/>
				</g>
				<g>
					<polygon class="st8" points="262,126.7 259.7,187.1 225.2,187.1 227.4,126.7 					"/>
				</g>
			</g>
		</g>
	</g>
	<g id="_x32_N29">
		<g>
			<g class="st5">
				<g>
					<polygon class="st6" points="298,126.8 301.9,134.3 299.7,194.8 295.8,187.2 					"/>
				</g>
				<g>
					<polygon class="st7" points="295.8,187.2 299.7,194.8 265.1,194.8 261.2,187.2 					"/>
				</g>
				<g>
					<polygon class="st8" points="298,126.8 295.8,187.2 261.2,187.2 263.5,126.8 					"/>
				</g>
			</g>
		</g>
	</g>
	<g id="_x32_N30">
		<g>
			<g class="st5">
				<g>
					<polygon class="st6" points="334.1,127 338,134.5 335.7,194.9 331.8,187.4 					"/>
				</g>
				<g>
					<polygon class="st7" points="331.8,187.4 335.7,194.9 301.1,194.9 297.2,187.4 					"/>
				</g>
				<g>
					<polygon class="st8" points="334.1,127 331.8,187.4 297.2,187.4 299.5,127 					"/>
				</g>
			</g>
		</g>
	</g>
	<g id="_x32_N31">
		<g>
			<g class="st5">
				<g>
					<polygon class="st6" points="370.1,127 374,134.5 371.8,194.9 367.8,187.4 					"/>
				</g>
				<g>
					<polygon class="st7" points="367.8,187.4 371.8,194.9 337.2,194.9 333.3,187.4 					"/>
				</g>
				<g>
					<polygon class="st8" points="370.1,127 367.8,187.4 333.3,187.4 335.5,127 					"/>
				</g>
			</g>
		</g>
	</g>
	<g id="_x32_N32">
		<g>
			<g class="st5">
				<g>
					<polygon class="st6" points="406.1,127.2 410,134.7 407.8,195.2 403.9,187.6 					"/>
				</g>
				<g>
					<polygon class="st7" points="403.9,187.6 407.8,195.2 373.2,195.2 369.3,187.6 					"/>
				</g>
				<g>
					<polygon class="st8" points="406.1,127.2 403.9,187.6 369.3,187.6 371.6,127.2 					"/>
				</g>
			</g>
		</g>
	</g>
	<g id="_x32_N33">
		<g>
			<g class="st5">
				<g>
					<polygon class="st6" points="442.2,127.2 446.1,134.8 443.8,195.2 439.9,187.6 					"/>
				</g>
				<g>
					<polygon class="st7" points="439.9,187.6 443.8,195.2 409.2,195.2 405.3,187.6 					"/>
				</g>
				<g>
					<polygon class="st8" points="442.2,127.2 439.9,187.6 405.3,187.6 407.6,127.2 					"/>
				</g>
			</g>
		</g>
	</g>
	<g id="_x32_N34">
		<g>
			<g class="st5">
				<g>
					<polygon class="st6" points="478.2,127.1 482.1,134.7 479.8,195.1 475.9,187.6 					"/>
				</g>
				<g>
					<polygon class="st7" points="475.9,187.6 479.8,195.1 445.3,195.1 441.4,187.6 					"/>
				</g>
				<g>
					<polygon class="st8" points="478.2,127.1 475.9,187.6 441.4,187.6 443.6,127.1 					"/>
				</g>
			</g>
		</g>
	</g>
	<g id="_x32_N35">
		<g>
			<g class="st5">
				<g>
					<polygon class="st6" points="514.2,127.4 518.1,135 515.9,195.4 512,187.9 					"/>
				</g>
				<g>
					<polygon class="st7" points="512,187.9 515.9,195.4 481.3,195.4 477.4,187.9 					"/>
				</g>
				<g>
					<polygon class="st8" points="514.2,127.4 512,187.9 477.4,187.9 479.6,127.4 					"/>
				</g>
			</g>
		</g>
	</g>
	<g id="Seminarska_soba">
		<g>
			<g class="st5">
				<g>
					<polygon class="st6" points="574.2,127.3 578,134.7 575.8,195.2 572,187.9 					"/>
				</g>
				<g>
					<polygon class="st7" points="572,187.9 575.8,195.2 517.4,195.2 513.6,187.9 					"/>
				</g>
				<g>
					<polygon class="st8" points="574.2,127.3 572,187.9 513.6,187.9 515.8,127.3 					"/>
				</g>
			</g>
		</g>
	</g>
</g>
<g id="nopointer_2_">
	<g>
		<g>
			<g class="st5">
				<g>
					<polygon class="st6" points="575.6,72.1 579.3,79.1 578.6,96.7 575,89.7 					"/>
				</g>
				<g>
					<polygon class="st7" points="575,89.7 578.6,96.7 544,96.7 540.4,89.7 					"/>
				</g>
				<g>
					<polygon class="st8" points="575.6,72.1 575,89.7 540.4,89.7 541,72.1 					"/>
				</g>
			</g>
		</g>
	</g>
	<g>
		<polygon class="st19" points="725.1,319.2 727.4,328.2 732.8,144.3 730.5,137.2 		"/>
		<polygon class="st20" points="726.1,137.2 720.7,319.2 725.1,319.2 730.5,137.2 		"/>
	</g>
	<g>
		<g>
			<g class="st5">
				<g>
					<polygon class="st9" points="631.9,28.8 634.2,37.9 630.6,161.3 628.3,152.2 					"/>
				</g>
				<g>
					<polygon class="st11" points="628.3,152.2 630.6,161.3 626.2,161.3 623.9,152.2 					"/>
				</g>
				<g>
					<polygon class="st12" points="631.9,28.9 628.3,152.2 623.9,152.2 627.5,28.9 					"/>
				</g>
			</g>
		</g>
	</g>
	<g>
		<polygon class="st19" points="722.8,396.5 725.1,405.5 730.5,221.6 728.2,214.5 		"/>
		<polygon class="st20" points="723.8,214.5 718.4,396.5 722.8,396.5 728.2,214.5 		"/>
	</g>
	<g>
		<g>
			<g>
				<path d="M245.2,54c-1.7,0-1.8,0-3.2,0c-0.8,0-1.4,0.6-1.4,1.4l0,4.4c0,0.3,0.3,0.6,0.6,0.6c0,0,0,0,0,0c0.3,0,0.6-0.3,0.6-0.6
					l0-4.4c0,0,0,0,0,0c0-0.1,0.1-0.1,0.1-0.1c0.1,0,0.1,0.1,0.1,0.1l0,10c0,0.4,0.3,0.7,0.7,0.7c0.4,0,0.7-0.3,0.7-0.7v-5.7h0.3
					v5.7c0,0.4,0.3,0.7,0.7,0.7c0.4,0,0.7-0.3,0.7-0.7c0-9.4,0-4,0-10c0-0.1,0.1-0.1,0.1-0.1c0.1,0,0.1,0,0.1,0.1c0,0,0,0,0,0l0,4.4
					c0,0.3,0.3,0.6,0.6,0.6c0,0,0,0,0,0c0.3,0,0.6-0.3,0.6-0.6l0-4.4c0,0,0,0,0,0C246.6,54.7,246,54,245.2,54z"/>
			</g>
		</g>
		<g>
			<g>
				<circle cx="243.6" cy="52.4" r="1.2"/>
			</g>
		</g>
	</g>
	<g>
		<g>
			<g>
				<path d="M208.3,51c0,0-1.1-3.1-1.3-3.6c-0.3-0.8-0.7-1.2-1.4-1.2c-0.9,0-1.2,0-2.1,0c-0.6,0-1.1,0.4-1.4,1.2
					c-0.2,0.5-1.3,3.6-1.3,3.6c-0.1,0.3,0.1,0.6,0.4,0.8c0.3,0.1,0.6-0.1,0.8-0.4c0-0.1,0.7-1.9,1.1-3c0,0.3,0.1-0.3-0.8,4.4
					c0,0.2,0.1,0.4,0.3,0.4c0.1,0,0.3,0,0.5,0v4.3c0,0.4,0.3,0.7,0.7,0.7s0.7-0.3,0.7-0.7v-4.3c0.1,0,0.2,0,0.3,0v4.3
					c0,0.4,0.3,0.7,0.7,0.7s0.7-0.3,0.7-0.7v-4.3c0.2,0,0.3,0,0.5,0c0.2,0,0.4-0.2,0.3-0.4c-0.9-4.7-0.8-4.1-0.8-4.4
					c0.4,1,1,2.9,1,3c0.1,0.3,0.4,0.5,0.8,0.4C208.3,51.6,208.4,51.3,208.3,51z"/>
			</g>
		</g>
		<g>
			<g>
				<circle cx="204.7" cy="44.5" r="1.2"/>
			</g>
		</g>
	</g>
	<g>
		<g>
			<g class="st5">
				<g>
					<polygon class="st9" points="622.2,184.5 624.6,191.9 624.5,195.2 622.1,187.8 					"/>
				</g>
				<g>
					<polygon class="st11" points="622.1,187.8 624.5,195.2 574.4,195.2 572,187.8 					"/>
				</g>
				<g>
					<polygon class="st12" points="622.2,184.5 622.1,187.8 572,187.8 572.2,184.5 					"/>
				</g>
			</g>
		</g>
	</g>
	<g>
		<g>
			<g>
				<path d="M560.2,45.7c-1.7,0-1.8,0-3.2,0c-0.8,0-1.4,0.6-1.4,1.4l0,4.4c0,0.3,0.3,0.6,0.6,0.6c0,0,0,0,0,0c0.3,0,0.6-0.3,0.6-0.6
					l0-4.4c0,0,0,0,0,0c0-0.1,0.1-0.1,0.1-0.1s0.1,0.1,0.1,0.1l0,10c0,0.4,0.3,0.7,0.7,0.7c0.4,0,0.7-0.3,0.7-0.7v-5.7h0.3v5.7
					c0,0.4,0.3,0.7,0.7,0.7c0.4,0,0.7-0.3,0.7-0.7c0-9.4,0-4,0-10c0-0.1,0.1-0.1,0.1-0.1c0.1,0,0.1,0,0.1,0.1c0,0,0,0,0,0l0,4.4
					c0,0.3,0.3,0.6,0.6,0.6c0,0,0,0,0,0c0.3,0,0.6-0.3,0.6-0.6l0-4.4c0,0,0,0,0,0C561.6,46.3,560.9,45.7,560.2,45.7z"/>
			</g>
		</g>
		<g>
			<g>
				<circle cx="558.6" cy="44.1" r="1.2"/>
			</g>
		</g>
	</g>
	<g>
		<g>
			<g>
				<path d="M613.1,62.1c0,0-1.1-3.1-1.3-3.6c-0.3-0.8-0.7-1.2-1.4-1.2c-0.9,0-1.2,0-2.1,0c-0.6,0-1.1,0.4-1.4,1.2
					c-0.2,0.5-1.3,3.6-1.3,3.6c-0.1,0.3,0.1,0.6,0.4,0.8c0.3,0.1,0.6-0.1,0.8-0.4c0-0.1,0.7-1.9,1.1-3c0,0.3,0.1-0.3-0.8,4.4
					c0,0.2,0.1,0.4,0.3,0.4c0.1,0,0.3,0,0.5,0v4.3c0,0.4,0.3,0.7,0.7,0.7c0.4,0,0.7-0.3,0.7-0.7v-4.3c0.1,0,0.2,0,0.3,0v4.3
					c0,0.4,0.3,0.7,0.7,0.7c0.4,0,0.7-0.3,0.7-0.7v-4.3c0.2,0,0.3,0,0.5,0c0.2,0,0.4-0.2,0.3-0.4c-0.9-4.7-0.8-4.1-0.8-4.4
					c0.4,1,1,2.9,1,3c0.1,0.3,0.4,0.5,0.8,0.4C613.1,62.8,613.2,62.4,613.1,62.1z"/>
			</g>
		</g>
		<g>
			<g>
				<circle cx="609.5" cy="55.7" r="1.2"/>
			</g>
		</g>
	</g>
	<g id="XMLID_28_">
		<path id="XMLID_31_" d="M609.5,83.4c0.8,0,1.5-0.7,1.5-1.5c0-0.8-0.7-1.5-1.5-1.5c-0.8,0-1.5,0.7-1.5,1.5
			C608,82.8,608.7,83.4,609.5,83.4z"/>
		<path id="XMLID_30_" d="M611.8,91.8c-0.4,1.4-1.7,2.4-3.1,2.4c-1.8,0-3.3-1.5-3.3-3.3c0-1.3,0.8-2.5,2-3v-1.4
			c-1.9,0.6-3.3,2.3-3.3,4.4c0,2.5,2.1,4.6,4.6,4.6c1.8,0,3.4-1.1,4.1-2.7l-0.5-1C612.1,91.8,611.9,91.8,611.8,91.8z"/>
		<path id="XMLID_29_" d="M616.1,93.6l-2-3.9c-0.1-0.3-0.4-0.5-0.8-0.5h-2.5v-0.6h2.2c0.2,0,0.4-0.1,0.5-0.3
			c0.1-0.1,0.1-0.2,0.1-0.4c0-0.4-0.3-0.7-0.7-0.7h-1.3h-0.9v-2c0-0.5-0.4-1.3-1.3-1.3c-0.7,0-1.3,0.6-1.3,1.3v4.2
			c0,0.7,0.6,1.3,1.3,1.3h2.4h0.9l1.7,3.4c0.2,0.3,0.5,0.5,0.8,0.5c0.1,0,0.3,0,0.4-0.1C616.1,94.5,616.3,94,616.1,93.6z"/>
	</g>
	<g id="nopointer_1_">
		<g>
			<g>
				<g>
					<g>
						<g class="st5">
							<g>
								<polygon class="st21" points="625.2,373.6 625.6,372.2 625.6,376.1 625.3,377.5 								"/>
							</g>
							<g>
								<polygon class="st18" points="606.9,373.6 607.2,372.2 625.6,372.2 625.2,373.6 								"/>
							</g>
							<g>
								<polygon class="st22" points="625.2,373.6 625.3,377.5 606.9,377.5 606.9,373.6 								"/>
							</g>
						</g>
					</g>
				</g>
				<g>
					<g>
						<g class="st5">
							<g>
								<polygon class="st21" points="625.5,368.4 625.8,367.1 625.9,371 625.5,372.4 								"/>
							</g>
							<g>
								<polygon class="st18" points="607.1,368.4 607.5,367.1 625.8,367.1 625.5,368.4 								"/>
							</g>
							<g>
								<polygon class="st22" points="625.5,368.4 625.5,372.4 607.2,372.4 607.1,368.4 								"/>
							</g>
						</g>
					</g>
				</g>
				<g>
					<g>
						<g class="st5">
							<g>
								<polygon class="st21" points="625.7,363.3 626.1,361.9 626.2,365.9 625.8,367.2 								"/>
							</g>
							<g>
								<polygon class="st18" points="607.4,363.3 607.8,361.9 626.1,361.9 625.7,363.3 								"/>
							</g>
							<g>
								<polygon class="st22" points="625.7,363.3 625.8,367.2 607.5,367.2 607.4,363.3 								"/>
							</g>
						</g>
					</g>
				</g>
				<g>
					<g>
						<g class="st5">
							<g>
								<polygon class="st21" points="626.1,358.2 626.4,356.8 626.5,360.8 626.2,362.1 								"/>
							</g>
							<g>
								<polygon class="st18" points="607.7,358.2 608.1,356.8 626.4,356.8 626.1,358.2 								"/>
							</g>
							<g>
								<polygon class="st22" points="626.1,358.2 626.2,362.1 607.8,362.1 607.7,358.2 								"/>
							</g>
						</g>
					</g>
				</g>
				<g>
					<g>
						<g class="st5">
							<g>
								<polygon class="st21" points="626.4,353 626.7,351.7 626.8,355.6 626.5,357 								"/>
							</g>
							<g>
								<polygon class="st18" points="608,353 608.4,351.7 626.7,351.7 626.4,353 								"/>
							</g>
							<g>
								<polygon class="st22" points="626.4,353 626.5,357 608.1,357 608,353 								"/>
							</g>
						</g>
					</g>
				</g>
				<g>
					<g>
						<g class="st5">
							<g>
								<polygon class="st21" points="626.7,347.9 627,346.5 627.1,350.4 626.7,351.8 								"/>
							</g>
							<g>
								<polygon class="st18" points="608.3,347.9 608.7,346.5 627,346.5 626.7,347.9 								"/>
							</g>
							<g>
								<polygon class="st22" points="626.7,347.9 626.7,351.8 608.4,351.8 608.3,347.9 								"/>
							</g>
						</g>
					</g>
				</g>
				<g>
					<g>
						<g class="st5">
							<g>
								<polygon class="st21" points="627,342.6 627.3,341.3 627.4,345.2 627.1,346.5 								"/>
							</g>
							<g>
								<polygon class="st18" points="608.6,342.6 609,341.3 627.3,341.3 627,342.6 								"/>
							</g>
							<g>
								<polygon class="st22" points="627,342.6 627.1,346.5 608.7,346.5 608.6,342.6 								"/>
							</g>
						</g>
					</g>
				</g>
			</g>
			<g>
				<g>
					<g class="st5">
						<g>
							<polygon class="st21" points="624.9,378.7 625.3,377.4 625.4,381.3 625,382.7 							"/>
						</g>
						<g>
							<polygon class="st18" points="606.6,378.7 606.9,377.4 625.3,377.4 624.9,378.7 							"/>
						</g>
						<g>
							<polygon class="st22" points="624.9,378.7 625,382.7 606.7,382.7 606.6,378.7 							"/>
						</g>
					</g>
				</g>
			</g>
			<g>
				<g>
					<g class="st5">
						<g>
							<polygon class="st21" points="624.6,384 625,382.6 625.1,386.5 624.7,387.9 							"/>
						</g>
						<g>
							<polygon class="st18" points="606.3,384 606.7,382.6 625,382.6 624.6,384 							"/>
						</g>
						<g>
							<polygon class="st22" points="624.6,384 624.7,387.9 606.4,387.9 606.3,384 							"/>
						</g>
					</g>
				</g>
			</g>
			<g>
				<g>
					<g class="st5">
						<g>
							<polygon class="st21" points="624.4,389.1 624.8,387.8 624.8,391.7 624.5,393.1 							"/>
						</g>
						<g>
							<polygon class="st18" points="606.1,389.1 606.4,387.8 624.8,387.8 624.4,389.1 							"/>
						</g>
						<g>
							<polygon class="st22" points="624.4,389.1 624.5,393.1 606.1,393.1 606.1,389.1 							"/>
						</g>
					</g>
				</g>
			</g>
			<g>
				<g>
					<g class="st5">
						<g>
							<polygon class="st21" points="624.1,394.3 624.5,392.9 624.5,396.8 624.2,398.2 							"/>
						</g>
						<g>
							<polygon class="st18" points="605.8,394.3 606.1,392.9 624.5,392.9 624.1,394.3 							"/>
						</g>
						<g>
							<polygon class="st22" points="624.1,394.3 624.2,398.2 605.9,398.2 605.8,394.3 							"/>
						</g>
					</g>
				</g>
			</g>
			<g>
				<g>
					<g class="st5">
						<g>
							<polygon class="st21" points="623.7,398.3 624,397 624.1,400.9 623.7,402.3 							"/>
						</g>
						<g>
							<polygon class="st18" points="605.3,398.3 605.7,397 624,397 623.7,398.3 							"/>
						</g>
						<g>
							<polygon class="st22" points="623.7,398.3 623.7,402.3 605.4,402.3 605.3,398.3 							"/>
						</g>
					</g>
				</g>
			</g>
		</g>
		<g>
			<polygon class="st11" points="196.4,297.4 199.7,303.3 154.8,303.9 152.6,297.9 			"/>
		</g>
		<g>
			<polygon class="st12" points="196.5,293.2 196.3,297.4 152.4,297.9 152.6,293.7 			"/>
		</g>
		<g>
			<g>
				<g>
					<g class="st5">
						<g>
							<polygon class="st21" points="199.7,166.6 200,165.3 200.1,169.1 199.7,170.6 							"/>
						</g>
						<g>
							<polygon class="st18" points="181.3,166.6 181.7,165.3 200,165.3 199.7,166.6 							"/>
						</g>
						<g>
							<polygon class="st22" points="199.7,166.6 199.7,170.6 181.4,170.6 181.3,166.6 							"/>
						</g>
					</g>
				</g>
			</g>
			<g>
				<g>
					<g class="st5">
						<g>
							<polygon class="st21" points="199.9,161.4 200.3,160.1 200.3,164.1 200,165.3 							"/>
						</g>
						<g>
							<polygon class="st18" points="181.6,161.4 181.9,160.1 200.3,160.1 199.9,161.4 							"/>
						</g>
						<g>
							<polygon class="st22" points="199.9,161.4 200,165.3 181.6,165.3 181.6,161.4 							"/>
						</g>
					</g>
				</g>
			</g>
			<g>
				<g>
					<g class="st5">
						<g>
							<polygon class="st21" points="200.2,156.3 200.5,154.9 200.6,158.8 200.3,160.3 							"/>
						</g>
						<g>
							<polygon class="st18" points="181.8,156.3 182.2,154.9 200.5,154.9 200.2,156.3 							"/>
						</g>
						<g>
							<polygon class="st22" points="200.2,156.3 200.3,160.3 181.9,160.3 181.8,156.3 							"/>
						</g>
					</g>
				</g>
			</g>
			<g>
				<g>
					<g class="st5">
						<g>
							<polygon class="st21" points="200.5,151.3 200.9,149.8 201,153.8 200.6,155.1 							"/>
						</g>
						<g>
							<polygon class="st18" points="182.2,151.3 182.5,149.8 200.9,149.8 200.5,151.3 							"/>
						</g>
						<g>
							<polygon class="st22" points="200.5,151.3 200.6,155.1 182.3,155.1 182.2,151.3 							"/>
						</g>
					</g>
				</g>
			</g>
			<g>
				<g>
					<g class="st5">
						<g>
							<polygon class="st21" points="200.8,146.1 201.2,144.8 201.3,148.6 200.9,149.9 							"/>
						</g>
						<g>
							<polygon class="st18" points="182.5,146.1 182.8,144.8 201.2,144.8 200.8,146.1 							"/>
						</g>
						<g>
							<polygon class="st22" points="200.8,146.1 200.9,149.9 182.6,149.9 182.5,146.1 							"/>
						</g>
					</g>
				</g>
			</g>
			<g>
				<g>
					<g class="st5">
						<g>
							<polygon class="st21" points="201.1,140.8 201.5,139.6 201.5,143.4 201.2,144.8 							"/>
						</g>
						<g>
							<polygon class="st18" points="182.8,140.8 183.1,139.6 201.5,139.6 201.1,140.8 							"/>
						</g>
						<g>
							<polygon class="st22" points="201.1,140.8 201.2,144.8 182.8,144.8 182.8,140.8 							"/>
						</g>
					</g>
				</g>
			</g>
			<g>
				<g>
					<g class="st5">
						<g>
							<polygon class="st21" points="201.4,135.6 201.8,134.3 201.9,138.3 201.5,139.6 							"/>
						</g>
						<g>
							<polygon class="st18" points="183.1,135.6 183.5,134.3 201.8,134.3 201.4,135.6 							"/>
						</g>
						<g>
							<polygon class="st22" points="201.4,135.6 201.5,139.6 183.2,139.6 183.1,135.6 							"/>
						</g>
					</g>
				</g>
			</g>
		</g>
		<g>
			<g>
				<g>
					<g>
						<g class="st5">
							<g>
								<polygon class="st21" points="603.7,373.5 604.1,372.1 604.2,376.1 603.8,377.4 								"/>
							</g>
							<g>
								<polygon class="st18" points="585.4,373.5 585.7,372.1 604.1,372.1 603.7,373.5 								"/>
							</g>
							<g>
								<polygon class="st22" points="603.7,373.5 603.8,377.4 585.5,377.4 585.4,373.5 								"/>
							</g>
						</g>
					</g>
				</g>
				<g>
					<g>
						<g class="st5">
							<g>
								<polygon class="st21" points="604,368.3 604.4,367 604.4,370.9 604.1,372.3 								"/>
							</g>
							<g>
								<polygon class="st18" points="585.7,368.3 586,367 604.4,367 604,368.3 								"/>
							</g>
							<g>
								<polygon class="st22" points="604,368.3 604.1,372.3 585.7,372.3 585.7,368.3 								"/>
							</g>
						</g>
					</g>
				</g>
				<g>
					<g>
						<g class="st5">
							<g>
								<polygon class="st21" points="604.3,363.2 604.6,361.8 604.7,365.8 604.3,367.1 								"/>
							</g>
							<g>
								<polygon class="st18" points="585.9,363.2 586.3,361.8 604.6,361.8 604.3,363.2 								"/>
							</g>
							<g>
								<polygon class="st22" points="604.3,363.2 604.3,367.1 586,367.1 585.9,363.2 								"/>
							</g>
						</g>
					</g>
				</g>
				<g>
					<g>
						<g class="st5">
							<g>
								<polygon class="st21" points="604.6,358.1 605,356.7 605,360.7 604.7,362 								"/>
							</g>
							<g>
								<polygon class="st18" points="586.3,358.1 586.6,356.7 605,356.7 604.6,358.1 								"/>
							</g>
							<g>
								<polygon class="st22" points="604.6,358.1 604.7,362 586.3,362 586.3,358.1 								"/>
							</g>
						</g>
					</g>
				</g>
				<g>
					<g>
						<g class="st5">
							<g>
								<polygon class="st21" points="604.9,353 605.3,351.6 605.3,355.5 605,356.9 								"/>
							</g>
							<g>
								<polygon class="st18" points="586.6,353 586.9,351.6 605.3,351.6 604.9,353 								"/>
							</g>
							<g>
								<polygon class="st22" points="604.9,353 605,356.9 586.6,356.9 586.6,353 								"/>
							</g>
						</g>
					</g>
				</g>
				<g>
					<g>
						<g class="st5">
							<g>
								<polygon class="st21" points="605.2,347.8 605.5,346.4 605.6,350.4 605.3,351.7 								"/>
							</g>
							<g>
								<polygon class="st18" points="586.8,347.8 587.2,346.4 605.5,346.4 605.2,347.8 								"/>
							</g>
							<g>
								<polygon class="st22" points="605.2,347.8 605.3,351.7 586.9,351.7 586.8,347.8 								"/>
							</g>
						</g>
					</g>
				</g>
				<g>
					<g>
						<g class="st5">
							<g>
								<polygon class="st21" points="605.5,342.5 605.9,341.2 606,345.1 605.6,346.4 								"/>
							</g>
							<g>
								<polygon class="st18" points="587.2,342.5 587.5,341.2 605.9,341.2 605.5,342.5 								"/>
							</g>
							<g>
								<polygon class="st22" points="605.5,342.5 605.6,346.4 587.3,346.4 587.2,342.5 								"/>
							</g>
						</g>
					</g>
				</g>
			</g>
			<g>
				<g>
					<g class="st5">
						<g>
							<polygon class="st21" points="603.5,378.6 603.8,377.3 603.9,381.2 603.5,382.6 							"/>
						</g>
						<g>
							<polygon class="st18" points="585.1,378.6 585.5,377.3 603.8,377.3 603.5,378.6 							"/>
						</g>
						<g>
							<polygon class="st22" points="603.5,378.6 603.5,382.6 585.2,382.6 585.1,378.6 							"/>
						</g>
					</g>
				</g>
			</g>
			<g>
				<g>
					<g class="st5">
						<g>
							<polygon class="st21" points="603.2,383.9 603.5,382.5 603.6,386.4 603.2,387.8 							"/>
						</g>
						<g>
							<polygon class="st18" points="584.8,383.9 585.2,382.5 603.5,382.5 603.2,383.9 							"/>
						</g>
						<g>
							<polygon class="st22" points="603.2,383.9 603.2,387.8 584.9,387.8 584.8,383.9 							"/>
						</g>
					</g>
				</g>
			</g>
			<g>
				<g>
					<g class="st5">
						<g>
							<polygon class="st21" points="602.9,389.1 603.3,387.7 603.4,391.6 603,393 							"/>
						</g>
						<g>
							<polygon class="st18" points="584.6,389.1 584.9,387.7 603.3,387.7 602.9,389.1 							"/>
						</g>
						<g>
							<polygon class="st22" points="602.9,389.1 603,393 584.7,393 584.6,389.1 							"/>
						</g>
					</g>
				</g>
			</g>
			<g>
				<g>
					<g class="st5">
						<g>
							<polygon class="st21" points="602.7,394.2 603,392.8 603.1,396.8 602.7,398.1 							"/>
						</g>
						<g>
							<polygon class="st18" points="584.3,394.2 584.7,392.8 603,392.8 602.7,394.2 							"/>
						</g>
						<g>
							<polygon class="st22" points="602.7,394.2 602.7,398.1 584.4,398.1 584.3,394.2 							"/>
						</g>
					</g>
				</g>
			</g>
			<g>
				<g>
					<g class="st5">
						<g>
							<polygon class="st21" points="602.2,398.2 602.6,396.9 602.6,400.8 602.3,402.2 							"/>
						</g>
						<g>
							<polygon class="st18" points="583.9,398.2 584.2,396.9 602.6,396.9 602.2,398.2 							"/>
						</g>
						<g>
							<polygon class="st22" points="602.2,398.2 602.3,402.2 583.9,402.2 583.9,398.2 							"/>
						</g>
					</g>
				</g>
			</g>
		</g>
		<g>
			<g>
				<g>
					<g>
						<g class="st5">
							<g>
								<polygon class="st23" points="182.7,378.4 182.4,377.1 182.4,373.1 182.8,374.5 								"/>
							</g>
							<g>
								<polygon class="st24" points="182.8,374.5 182.4,373.1 200.8,373.1 201.1,374.5 								"/>
							</g>
							<g>
								<polygon class="st25" points="201.1,374.5 201.1,378.4 182.7,378.4 182.8,374.5 								"/>
							</g>
						</g>
					</g>
				</g>
				<g>
					<g>
						<g class="st5">
							<g>
								<polygon class="st23" points="183,373.3 182.6,371.9 182.7,368 183.1,369.4 								"/>
							</g>
							<g>
								<polygon class="st24" points="183.1,369.4 182.7,368 201,368 201.4,369.4 								"/>
							</g>
							<g>
								<polygon class="st25" points="201.4,369.4 201.3,373.3 183,373.3 183.1,369.4 								"/>
							</g>
						</g>
					</g>
				</g>
				<g>
					<g>
						<g class="st5">
							<g>
								<polygon class="st23" points="183.3,368.1 182.9,366.8 183,362.8 183.3,364.2 								"/>
							</g>
							<g>
								<polygon class="st24" points="183.3,364.2 183,362.8 201.3,362.8 201.7,364.2 								"/>
							</g>
							<g>
								<polygon class="st25" points="201.7,364.2 201.6,368.1 183.3,368.1 183.3,364.2 								"/>
							</g>
						</g>
					</g>
				</g>
				<g>
					<g>
						<g class="st5">
							<g>
								<polygon class="st23" points="183.6,363 183.2,361.7 183.3,357.7 183.7,359.1 								"/>
							</g>
							<g>
								<polygon class="st24" points="183.7,359.1 183.3,357.7 201.7,357.7 202,359.1 								"/>
							</g>
							<g>
								<polygon class="st25" points="202,359.1 201.9,363 183.6,363 183.7,359.1 								"/>
							</g>
						</g>
					</g>
				</g>
				<g>
					<g>
						<g class="st5">
							<g>
								<polygon class="st23" points="183.9,357.9 183.5,356.5 183.6,352.6 184,354 								"/>
							</g>
							<g>
								<polygon class="st24" points="184,354 183.6,352.6 202,352.6 202.3,354 								"/>
							</g>
							<g>
								<polygon class="st25" points="202.3,354 202.2,357.9 183.9,357.9 184,354 								"/>
							</g>
						</g>
					</g>
				</g>
				<g>
					<g>
						<g class="st5">
							<g>
								<polygon class="st23" points="184.2,352.7 183.8,351.4 183.9,347.4 184.2,348.8 								"/>
							</g>
							<g>
								<polygon class="st24" points="184.2,348.8 183.9,347.4 202.2,347.4 202.6,348.8 								"/>
							</g>
							<g>
								<polygon class="st25" points="202.6,348.8 202.5,352.7 184.2,352.7 184.2,348.8 								"/>
							</g>
						</g>
					</g>
				</g>
				<g>
					<g>
						<g class="st5">
							<g>
								<polygon class="st23" points="184.5,347.5 184.2,346.1 184.2,342.2 184.6,343.5 								"/>
							</g>
							<g>
								<polygon class="st24" points="184.6,343.5 184.2,342.2 202.6,342.2 202.9,343.5 								"/>
							</g>
							<g>
								<polygon class="st25" points="202.9,343.5 202.9,347.5 184.5,347.5 184.6,343.5 								"/>
							</g>
						</g>
					</g>
				</g>
			</g>
			<g>
				<g>
					<g class="st5">
						<g>
							<polygon class="st23" points="182.4,383.6 182.1,382.2 182.2,378.3 182.5,379.6 							"/>
						</g>
						<g>
							<polygon class="st24" points="182.5,379.6 182.2,378.3 200.5,378.3 200.9,379.6 							"/>
						</g>
						<g>
							<polygon class="st25" points="200.9,379.6 200.8,383.6 182.4,383.6 182.5,379.6 							"/>
						</g>
					</g>
				</g>
			</g>
			<g>
				<g>
					<g class="st5">
						<g>
							<polygon class="st23" points="182.2,388.8 181.8,387.4 181.9,383.5 182.2,384.9 							"/>
						</g>
						<g>
							<polygon class="st24" points="182.2,384.9 181.9,383.5 200.2,383.5 200.6,384.9 							"/>
						</g>
						<g>
							<polygon class="st25" points="200.6,384.9 200.5,388.8 182.2,388.8 182.2,384.9 							"/>
						</g>
					</g>
				</g>
			</g>
			<g>
				<g>
					<g class="st5">
						<g>
							<polygon class="st23" points="181.9,394 181.6,392.6 181.6,388.7 182,390.1 							"/>
						</g>
						<g>
							<polygon class="st24" points="182,390.1 181.6,388.7 200,388.7 200.3,390.1 							"/>
						</g>
						<g>
							<polygon class="st25" points="200.3,390.1 200.3,394 181.9,394 182,390.1 							"/>
						</g>
					</g>
				</g>
			</g>
			<g>
				<g>
					<g class="st5">
						<g>
							<polygon class="st23" points="181.6,399.1 181.3,397.8 181.4,393.8 181.7,395.2 							"/>
						</g>
						<g>
							<polygon class="st24" points="181.7,395.2 181.4,393.8 199.7,393.8 200.1,395.2 							"/>
						</g>
						<g>
							<polygon class="st25" points="200.1,395.2 200,399.1 181.6,399.1 181.7,395.2 							"/>
						</g>
					</g>
				</g>
			</g>
			<g>
				<g>
					<g class="st5">
						<g>
							<polygon class="st23" points="181.2,403.2 180.8,401.8 180.9,397.9 181.3,399.3 							"/>
						</g>
						<g>
							<polygon class="st24" points="181.3,399.3 180.9,397.9 199.2,397.9 199.6,399.3 							"/>
						</g>
						<g>
							<polygon class="st25" points="199.6,399.3 199.5,403.2 181.2,403.2 181.3,399.3 							"/>
						</g>
					</g>
				</g>
			</g>
		</g>
		<g>
			<g>
				<g>
					<g>
						<g class="st5">
							<g>
								<polygon class="st21" points="221.4,374.5 221.8,373.1 221.9,377.1 221.5,378.4 								"/>
							</g>
							<g>
								<polygon class="st18" points="203.1,374.5 203.5,373.1 221.8,373.1 221.4,374.5 								"/>
							</g>
							<g>
								<polygon class="st22" points="221.4,374.5 221.5,378.4 203.2,378.4 203.1,374.5 								"/>
							</g>
						</g>
					</g>
				</g>
				<g>
					<g>
						<g class="st5">
							<g>
								<polygon class="st21" points="221.7,369.4 222.1,368 222.1,371.9 221.8,373.3 								"/>
							</g>
							<g>
								<polygon class="st18" points="203.4,369.4 203.7,368 222.1,368 221.7,369.4 								"/>
							</g>
							<g>
								<polygon class="st22" points="221.7,369.4 221.8,373.3 203.4,373.3 203.4,369.4 								"/>
							</g>
						</g>
					</g>
				</g>
				<g>
					<g>
						<g class="st5">
							<g>
								<polygon class="st21" points="222,364.2 222.3,362.8 222.4,366.8 222.1,368.1 								"/>
							</g>
							<g>
								<polygon class="st18" points="203.6,364.2 204,362.8 222.3,362.8 222,364.2 								"/>
							</g>
							<g>
								<polygon class="st22" points="222,364.2 222.1,368.1 203.7,368.1 203.6,364.2 								"/>
							</g>
						</g>
					</g>
				</g>
				<g>
					<g>
						<g class="st5">
							<g>
								<polygon class="st21" points="222.3,359.1 222.7,357.7 222.8,361.7 222.4,363 								"/>
							</g>
							<g>
								<polygon class="st18" points="204,359.1 204.3,357.7 222.7,357.7 222.3,359.1 								"/>
							</g>
							<g>
								<polygon class="st22" points="222.3,359.1 222.4,363 204.1,363 204,359.1 								"/>
							</g>
						</g>
					</g>
				</g>
				<g>
					<g>
						<g class="st5">
							<g>
								<polygon class="st21" points="222.6,354 223,352.6 223.1,356.5 222.7,357.9 								"/>
							</g>
							<g>
								<polygon class="st18" points="204.3,354 204.6,352.6 223,352.6 222.6,354 								"/>
							</g>
							<g>
								<polygon class="st22" points="222.6,354 222.7,357.9 204.4,357.9 204.3,354 								"/>
							</g>
						</g>
					</g>
				</g>
				<g>
					<g>
						<g class="st5">
							<g>
								<polygon class="st21" points="222.9,348.8 223.2,347.4 223.3,351.4 223,352.7 								"/>
							</g>
							<g>
								<polygon class="st18" points="204.6,348.8 204.9,347.4 223.2,347.4 222.9,348.8 								"/>
							</g>
							<g>
								<polygon class="st22" points="222.9,348.8 223,352.7 204.6,352.7 204.6,348.8 								"/>
							</g>
						</g>
					</g>
				</g>
				<g>
					<g>
						<g class="st5">
							<g>
								<polygon class="st21" points="223.2,343.5 223.6,342.2 223.7,346.1 223.3,347.5 								"/>
							</g>
							<g>
								<polygon class="st18" points="204.9,343.5 205.2,342.2 223.6,342.2 223.2,343.5 								"/>
							</g>
							<g>
								<polygon class="st22" points="223.2,343.5 223.3,347.5 205,347.5 204.9,343.5 								"/>
							</g>
						</g>
					</g>
				</g>
			</g>
			<g>
				<g>
					<g class="st5">
						<g>
							<polygon class="st21" points="221.2,379.6 221.5,378.3 221.6,382.2 221.2,383.6 							"/>
						</g>
						<g>
							<polygon class="st18" points="202.8,379.6 203.2,378.3 221.5,378.3 221.2,379.6 							"/>
						</g>
						<g>
							<polygon class="st22" points="221.2,379.6 221.2,383.6 202.9,383.6 202.8,379.6 							"/>
						</g>
					</g>
				</g>
			</g>
			<g>
				<g>
					<g class="st5">
						<g>
							<polygon class="st21" points="220.9,384.9 221.2,383.5 221.3,387.4 221,388.8 							"/>
						</g>
						<g>
							<polygon class="st18" points="202.5,384.9 202.9,383.5 221.2,383.5 220.9,384.9 							"/>
						</g>
						<g>
							<polygon class="st22" points="220.9,384.9 221,388.8 202.6,388.8 202.5,384.9 							"/>
						</g>
					</g>
				</g>
			</g>
			<g>
				<g>
					<g class="st5">
						<g>
							<polygon class="st21" points="220.6,390.1 221,388.7 221.1,392.6 220.7,394 							"/>
						</g>
						<g>
							<polygon class="st18" points="202.3,390.1 202.7,388.7 221,388.7 220.6,390.1 							"/>
						</g>
						<g>
							<polygon class="st22" points="220.6,390.1 220.7,394 202.4,394 202.3,390.1 							"/>
						</g>
					</g>
				</g>
			</g>
			<g>
				<g>
					<g class="st5">
						<g>
							<polygon class="st21" points="220.4,395.2 220.7,393.8 220.8,397.8 220.4,399.1 							"/>
						</g>
						<g>
							<polygon class="st18" points="202,395.2 202.4,393.8 220.7,393.8 220.4,395.2 							"/>
						</g>
						<g>
							<polygon class="st22" points="220.4,395.2 220.4,399.1 202.1,399.1 202,395.2 							"/>
						</g>
					</g>
				</g>
			</g>
			<g>
				<g>
					<g class="st5">
						<g>
							<polygon class="st21" points="219.9,399.3 220.3,397.9 220.3,401.8 220,403.2 							"/>
						</g>
						<g>
							<polygon class="st18" points="201.6,399.3 201.9,397.9 220.3,397.9 219.9,399.3 							"/>
						</g>
						<g>
							<polygon class="st22" points="219.9,399.3 220,403.2 201.6,403.2 201.6,399.3 							"/>
						</g>
					</g>
				</g>
			</g>
		</g>
		<g>
			<g>
				<g>
					<g class="st5">
						<g>
							<polygon class="st21" points="221.1,166.6 221.5,165.3 221.5,169.2 221.2,170.6 							"/>
						</g>
						<g>
							<polygon class="st18" points="202.8,166.6 203.1,165.3 221.5,165.3 221.1,166.6 							"/>
						</g>
						<g>
							<polygon class="st22" points="221.1,166.6 221.2,170.6 202.8,170.6 202.8,166.6 							"/>
						</g>
					</g>
				</g>
			</g>
			<g>
				<g>
					<g class="st5">
						<g>
							<polygon class="st21" points="221.4,161.5 221.7,160.1 221.8,164.1 221.5,165.4 							"/>
						</g>
						<g>
							<polygon class="st18" points="203,161.5 203.4,160.1 221.7,160.1 221.4,161.5 							"/>
						</g>
						<g>
							<polygon class="st22" points="221.4,161.5 221.5,165.4 203.1,165.4 203,161.5 							"/>
						</g>
					</g>
				</g>
			</g>
			<g>
				<g>
					<g class="st5">
						<g>
							<polygon class="st21" points="221.7,156.3 222,155 222.1,158.9 221.7,160.3 							"/>
						</g>
						<g>
							<polygon class="st18" points="203.3,156.3 203.7,155 222,155 221.7,156.3 							"/>
						</g>
						<g>
							<polygon class="st22" points="221.7,156.3 221.7,160.3 203.4,160.3 203.3,156.3 							"/>
						</g>
					</g>
				</g>
			</g>
			<g>
				<g>
					<g class="st5">
						<g>
							<polygon class="st21" points="222,151.2 222.4,149.9 222.4,153.8 222.1,155.2 							"/>
						</g>
						<g>
							<polygon class="st18" points="203.7,151.2 204,149.9 222.4,149.9 222,151.2 							"/>
						</g>
						<g>
							<polygon class="st22" points="222,151.2 222.1,155.2 203.7,155.2 203.7,151.2 							"/>
						</g>
					</g>
				</g>
			</g>
			<g>
				<g>
					<g class="st5">
						<g>
							<polygon class="st21" points="222.3,146.1 222.6,144.7 222.7,148.7 222.4,150 							"/>
						</g>
						<g>
							<polygon class="st18" points="204,146.1 204.3,144.7 222.6,144.7 222.3,146.1 							"/>
						</g>
						<g>
							<polygon class="st22" points="222.3,146.1 222.4,150 204,150 204,146.1 							"/>
						</g>
					</g>
				</g>
			</g>
			<g>
				<g>
					<g class="st5">
						<g>
							<polygon class="st21" points="222.6,140.9 222.9,139.6 223,143.5 222.6,144.9 							"/>
						</g>
						<g>
							<polygon class="st18" points="204.2,140.9 204.6,139.6 222.9,139.6 222.6,140.9 							"/>
						</g>
						<g>
							<polygon class="st22" points="222.6,140.9 222.6,144.9 204.3,144.9 204.2,140.9 							"/>
						</g>
					</g>
				</g>
			</g>
			<g>
				<g>
					<g class="st5">
						<g>
							<polygon class="st21" points="222.9,135.7 223.3,134.3 223.3,138.2 223,139.6 							"/>
						</g>
						<g>
							<polygon class="st18" points="204.6,135.7 204.9,134.3 223.3,134.3 222.9,135.7 							"/>
						</g>
						<g>
							<polygon class="st22" points="222.9,135.7 223,139.6 204.6,139.6 204.6,135.7 							"/>
						</g>
					</g>
				</g>
			</g>
		</g>
		<rect x="176.5" y="303.8" class="st26" width="1.7" height="26.1"/>
		<g>
			<g>
				<g class="st5">
					<g>
						<polygon class="st9" points="221.7,293.2 224,302.3 223.3,325.4 221,316.2 						"/>
					</g>
					<g>
						<polygon class="st11" points="221,316.2 223.3,325.4 198.1,325.4 195.8,316.2 						"/>
					</g>
				</g>
			</g>
		</g>
		<g>
			<g>
				<g class="st5">
					<g>
						<polygon class="st9" points="693.9,369.8 696.3,378.9 695.6,401.9 693.3,392.8 						"/>
					</g>
					<g>
						<polygon class="st11" points="693.3,392.8 695.6,401.9 670.4,403.4 668,394.3 						"/>
					</g>
					<g>
						<polygon class="st27" points="693.9,369.8 693.3,392.8 668,394.3 668.8,369.8 						"/>
					</g>
				</g>
			</g>
		</g>
		<g>
			<g>
				<g class="st5">
					<g>
						<polygon class="st9" points="719.9,369.7 722.2,378.9 721.5,400.9 719.2,391.8 						"/>
					</g>
					<g>
						<polygon class="st11" points="719.2,391.8 721.5,400.9 696.3,401.9 694,392.8 						"/>
					</g>
					<g>
						<polygon class="st27" points="719.9,369.7 719.2,391.8 694,392.8 694.7,369.7 						"/>
					</g>
				</g>
			</g>
		</g>
		<g>
			<g>
				<g class="st5">
					<g>
						<polygon class="st9" points="634.1,306.8 636.3,315.5 633.6,406.2 631.4,397.5 						"/>
					</g>
					<g>
						<polygon class="st11" points="631.4,397.5 633.6,406.2 629.2,406.2 627,397.5 						"/>
					</g>
					<g>
						<polygon class="st12" points="634.1,306.8 631.4,397.5 627,397.5 629.7,306.8 						"/>
					</g>
				</g>
			</g>
		</g>
		<g>
			<g>
				<g class="st5">
					<g>
						<polygon class="st9" points="226.1,293.2 228.4,302.4 225.4,402.7 223.1,393.5 						"/>
					</g>
					<g>
						<polygon class="st11" points="223.1,393.5 225.4,402.7 221,402.7 218.6,393.5 						"/>
					</g>
					<g>
						<polygon class="st12" points="226.1,293.2 223.1,393.5 218.6,393.5 221.7,293.2 						"/>
					</g>
				</g>
			</g>
		</g>
		<g>
			<g>
				<g class="st5">
					<g>
						<polygon class="st9" points="653.8,306.7 655.4,312.7 655.2,316.9 653.7,310.9 						"/>
					</g>
					<g>
						<polygon class="st11" points="653.7,310.9 655.2,316.9 635,316.9 633.5,310.9 						"/>
					</g>
					<g>
						<polygon class="st12" points="653.8,306.7 653.7,310.9 633.5,310.9 633.6,306.7 						"/>
					</g>
				</g>
			</g>
		</g>
		<g>
			<g>
				<g class="st5">
					<g>
						<polygon class="st9" points="656.4,306.8 658.6,315.4 655.9,404.6 653.7,396 						"/>
					</g>
					<g>
						<polygon class="st11" points="653.7,396 655.9,404.6 651.5,404.6 649.3,396 						"/>
					</g>
					<g>
						<polygon class="st12" points="656.4,306.8 653.7,396 649.3,396 652,306.8 						"/>
					</g>
				</g>
			</g>
		</g>
		<g>
			<g>
				<g class="st5">
					<g>
						<polygon class="st9" points="722.3,392 724.6,401.2 724.6,405.5 722.2,396.3 						"/>
					</g>
					<g>
						<polygon class="st11" points="722.2,396.3 724.6,405.5 581.1,413.7 578.8,404.6 						"/>
					</g>
					<g>
						<polygon class="st12" points="722.3,392 722.2,396.3 578.8,404.6 578.9,399.7 						"/>
					</g>
				</g>
			</g>
		</g>
		<g>
			<polygon class="st28" points="722.8,396.5 725.1,405.5 720.6,405.5 718.4,396.5 			"/>
		</g>
		<polygon class="st1" points="26.7,204.4 31.5,204.4 37.8,282.4 33.7,282.4 		"/>
		<polygon class="st2" points="31.5,204.1 33.7,217.8 38.3,282.1 37.8,282.1 		"/>
		<g>
			<g>
				<g>
					<g class="st5">
						<g>
							<polygon class="st21" points="623.5,157.4 623.8,156 623.9,160 623.5,161.3 							"/>
						</g>
						<g>
							<polygon class="st18" points="605.1,157.4 605.5,156 623.8,156 623.5,157.4 							"/>
						</g>
						<g>
							<polygon class="st22" points="623.5,157.4 623.5,161.3 605.2,161.3 605.1,157.4 							"/>
						</g>
					</g>
				</g>
			</g>
			<g>
				<g>
					<g class="st5">
						<g>
							<polygon class="st21" points="623.7,152.3 624.1,150.9 624.1,154.8 623.8,156.2 							"/>
						</g>
						<g>
							<polygon class="st18" points="605.4,152.3 605.7,150.9 624.1,150.9 623.7,152.3 							"/>
						</g>
						<g>
							<polygon class="st22" points="623.7,152.3 623.8,156.2 605.5,156.2 605.4,152.3 							"/>
						</g>
					</g>
				</g>
			</g>
			<g>
				<g>
					<g class="st5">
						<g>
							<polygon class="st21" points="624,147.1 624.4,145.7 624.4,149.7 624.1,151 							"/>
						</g>
						<g>
							<polygon class="st18" points="605.7,147.1 606,145.7 624.4,145.7 624,147.1 							"/>
						</g>
						<g>
							<polygon class="st22" points="624,147.1 624.1,151 605.7,151 605.7,147.1 							"/>
						</g>
					</g>
				</g>
			</g>
			<g>
				<g>
					<g class="st5">
						<g>
							<polygon class="st21" points="624.3,142 624.7,140.7 624.8,144.6 624.4,145.9 							"/>
						</g>
						<g>
							<polygon class="st18" points="606,142 606.4,140.7 624.7,140.7 624.3,142 							"/>
						</g>
						<g>
							<polygon class="st22" points="624.3,142 624.4,145.9 606.1,145.9 606,142 							"/>
						</g>
					</g>
				</g>
			</g>
			<g>
				<g>
					<g class="st5">
						<g>
							<polygon class="st21" points="624.6,136.9 625,135.5 625.1,139.4 624.7,140.8 							"/>
						</g>
						<g>
							<polygon class="st18" points="606.3,136.9 606.6,135.5 625,135.5 624.6,136.9 							"/>
						</g>
						<g>
							<polygon class="st22" points="624.6,136.9 624.7,140.8 606.4,140.8 606.3,136.9 							"/>
						</g>
					</g>
				</g>
			</g>
			<g>
				<g>
					<g class="st5">
						<g>
							<polygon class="st21" points="624.9,131.7 625.3,130.3 625.3,134.3 625,135.6 							"/>
						</g>
						<g>
							<polygon class="st18" points="606.6,131.7 606.9,130.3 625.3,130.3 624.9,131.7 							"/>
						</g>
						<g>
							<polygon class="st22" points="624.9,131.7 625,135.6 606.6,135.6 606.6,131.7 							"/>
						</g>
					</g>
				</g>
			</g>
			<g>
				<g>
					<g class="st5">
						<g>
							<polygon class="st21" points="625.2,126.4 625.6,125.1 625.7,129 625.3,130.4 							"/>
						</g>
						<g>
							<polygon class="st18" points="606.9,126.4 607.3,125.1 625.6,125.1 625.2,126.4 							"/>
						</g>
						<g>
							<polygon class="st22" points="625.2,126.4 625.3,130.4 607,130.4 606.9,126.4 							"/>
						</g>
					</g>
				</g>
			</g>
		</g>
		<g>
			<g>
				<g class="st5">
					<g>
						<polygon class="st21" points="602,157.4 602.4,156 602.4,160 602.1,161.3 						"/>
					</g>
					<g>
						<polygon class="st18" points="583.7,157.4 584,156 602.4,156 602,157.4 						"/>
					</g>
					<g>
						<polygon class="st22" points="602,157.4 602.1,161.3 583.7,161.3 583.7,157.4 						"/>
					</g>
				</g>
			</g>
		</g>
		<g>
			<g>
				<g class="st5">
					<g>
						<polygon class="st21" points="602.3,152.3 602.6,150.9 602.7,154.8 602.3,156.2 						"/>
					</g>
					<g>
						<polygon class="st18" points="583.9,152.3 584.3,150.9 602.6,150.9 602.3,152.3 						"/>
					</g>
					<g>
						<polygon class="st22" points="602.3,152.3 602.3,156.2 584,156.2 583.9,152.3 						"/>
					</g>
				</g>
			</g>
		</g>
		<g>
			<g>
				<g class="st5">
					<g>
						<polygon class="st21" points="602.5,147.1 602.9,145.7 603,149.7 602.6,151 						"/>
					</g>
					<g>
						<polygon class="st18" points="584.2,147.1 584.6,145.7 602.9,145.7 602.5,147.1 						"/>
					</g>
					<g>
						<polygon class="st22" points="602.5,147.1 602.6,151 584.3,151 584.2,147.1 						"/>
					</g>
				</g>
			</g>
		</g>
		<g>
			<g>
				<g class="st5">
					<g>
						<polygon class="st21" points="602.9,142 603.2,140.7 603.3,144.6 603,145.9 						"/>
					</g>
					<g>
						<polygon class="st18" points="584.5,142 584.9,140.7 603.2,140.7 602.9,142 						"/>
					</g>
					<g>
						<polygon class="st22" points="602.9,142 603,145.9 584.6,145.9 584.5,142 						"/>
					</g>
				</g>
			</g>
		</g>
		<g>
			<g>
				<g class="st5">
					<g>
						<polygon class="st21" points="603.2,136.9 603.5,135.5 603.6,139.4 603.3,140.8 						"/>
					</g>
					<g>
						<polygon class="st18" points="584.8,136.9 585.2,135.5 603.5,135.5 603.2,136.9 						"/>
					</g>
					<g>
						<polygon class="st22" points="603.2,136.9 603.3,140.8 584.9,140.8 584.8,136.9 						"/>
					</g>
				</g>
			</g>
		</g>
		<g>
			<g>
				<g class="st5">
					<g>
						<polygon class="st21" points="603.5,131.7 603.8,130.3 603.9,134.3 603.5,135.6 						"/>
					</g>
					<g>
						<polygon class="st18" points="585.1,131.7 585.5,130.3 603.8,130.3 603.5,131.7 						"/>
					</g>
					<g>
						<polygon class="st22" points="603.5,131.7 603.5,135.6 585.2,135.6 585.1,131.7 						"/>
					</g>
				</g>
			</g>
		</g>
		<g>
			<g>
				<g class="st5">
					<g>
						<polygon class="st21" points="603.8,126.4 604.1,125.1 604.2,129 603.9,130.4 						"/>
					</g>
					<g>
						<polygon class="st18" points="585.5,126.4 585.8,125.1 604.1,125.1 603.8,126.4 						"/>
					</g>
					<g>
						<polygon class="st22" points="603.8,126.4 603.9,130.4 585.5,130.4 585.5,126.4 						"/>
					</g>
				</g>
			</g>
		</g>
		<g>
			<g>
				<path class="st29" d="M675.6,377.6c-0.2-0.2-0.3-0.5-0.3-0.8s0.1-0.5,0.3-0.7s0.5-0.3,0.8-0.3s0.5,0.1,0.7,0.3
					c0.2,0.2,0.3,0.5,0.3,0.8s-0.1,0.5-0.3,0.7s-0.5,0.3-0.8,0.3S675.8,377.8,675.6,377.6z M674.2,382.6c0.1,0.1,0.1,0.1,0.2,0.1
					s0.2,0,0.2-0.1s0.1-0.1,0.1-0.3v-2.7v-0.1c0,0,0-0.1,0.1-0.1h0.1h0.1c0,0,0.1,0,0.1,0.1l-0.1,6.6c0,0.1,0,0.2,0.1,0.3
					c0.1,0.1,0.2,0.1,0.3,0.1s0.2,0,0.3-0.1s0.1-0.2,0.1-0.3v-2.6v-1.4c0-0.1,0-0.1,0.1-0.1s0.1,0,0.1,0h0.1c0.1,0,0.1,0.1,0.1,0.1
					v1.4v2.6c0,0.1,0,0.2,0.1,0.3c0.1,0.1,0.2,0.1,0.3,0.1s0.3,0,0.4-0.1c0.1-0.1,0.1-0.2,0.1-0.3l0.1-6.6c0,0,0-0.1,0.1-0.1h0.1
					h0.1c0,0,0.1,0,0.1,0.1v0.1v2.7c0,0.1,0,0.2,0.1,0.3c0.1,0.1,0.1,0.1,0.2,0.1s0.2,0,0.2-0.1c0.1-0.1,0.1-0.1,0.1-0.3v-3
					c0-0.3-0.1-0.6-0.3-0.8c-0.2-0.2-0.5-0.4-0.8-0.4h-1.2l0,0h-1.1c-0.3,0-0.6,0.1-0.7,0.3c-0.2,0.2-0.2,0.5-0.2,0.8v3
					C674.1,382.5,674.1,382.5,674.2,382.6z M685.7,374.2c0.1,0.1,0.2,0.3,0.2,0.5l-0.2,13.1c0,0.2-0.1,0.3-0.2,0.5
					c-0.1,0.1-0.3,0.2-0.5,0.2l-12.5-0.2c-0.2,0-0.4-0.1-0.5-0.2s-0.2-0.3-0.2-0.5l0.2-13.1c0-0.2,0.1-0.3,0.2-0.5
					c0.1-0.1,0.3-0.2,0.5-0.2l12.5,0.2C685.4,374,685.5,374.1,685.7,374.2z M684.8,375.1l-11.7-0.2l-0.2,12.2l11.7,0.2L684.8,375.1
					L684.8,375.1z M681.4,378c0.3,0,0.5-0.1,0.8-0.3s0.3-0.4,0.3-0.7s-0.1-0.5-0.3-0.8c-0.2-0.2-0.4-0.3-0.7-0.3s-0.5,0.1-0.8,0.3
					c-0.2,0.2-0.3,0.4-0.3,0.7s0.1,0.5,0.3,0.8C680.8,377.9,681.1,378,681.4,378z M679.2,382.7c0.1,0.1,0.1,0.1,0.2,0.1
					s0.2,0,0.2-0.1s0.1-0.1,0.1-0.3v-2.7v-0.1c0,0,0-0.1,0.1-0.1h0.1h0.1c0,0,0.1,0,0.1,0.1l-0.1,6.6c0,0.1,0,0.2,0.1,0.3
					c0.1,0.1,0.2,0.1,0.3,0.1s0.2,0,0.3-0.1s0.1-0.2,0.1-0.3v-2.6v-1.4c0-0.1,0-0.1,0.1-0.1s0.1,0,0.1,0h0.1c0.1,0,0.1,0.1,0.1,0.1
					v1.4v2.6c0,0.1,0,0.2,0.1,0.3c0.1,0.1,0.2,0.1,0.3,0.1s0.2,0,0.3-0.1s0.1-0.2,0.1-0.3l0.1-6.6c0,0,0-0.1,0.1-0.1h0.1h0.1
					c0,0,0.1,0,0.1,0.1v0.1v2.7c0,0.1,0,0.2,0.1,0.3c0.1,0.1,0.1,0.1,0.2,0.1s0.2,0,0.2-0.1c0.1-0.1,0.1-0.1,0.1-0.3v-3
					c0-0.3-0.1-0.6-0.3-0.8c-0.2-0.2-0.5-0.4-0.8-0.4h-1.2l0,0l0,0h-1.1c-0.3,0-0.6,0.1-0.8,0.3c-0.2,0.2-0.2,0.5-0.3,0.8v3
					C679.1,382.5,679.1,382.6,679.2,382.7z M690.6,386c-0.4,0-1,0-1,0s0-0.2,0-0.4c0-0.8,0-2.3,0-2.9c0,0,0-0.1-0.2-0.1
					s-1.3,0-1.5,0s-0.2,0.2-0.2,0.2c0,0.6,0,2.1,0,2.9c0,0.3,0,0.5,0,0.5s-0.8,0-1.1,0s0,0.3,0,0.3l1.9,2.3c0,0,0.2,0.2,0.3,0
					c0.2-0.2,1.9-2.3,1.9-2.3S691,386,690.6,386z M686.8,377c0.4,0,1,0,1,0s0,0.2,0,0.4c0,0.8,0,2.3,0,2.9c0,0,0,0.1,0.2,0.1
					s1.3,0,1.5,0s0.2-0.2,0.2-0.2c0-0.6,0-2.1,0-2.9c0-0.3,0-0.5,0-0.5s0.8,0,1.1,0s0-0.3,0-0.3l-1.9-2.3c0,0-0.2-0.2-0.3,0
					c-0.2,0.2-1.9,2.3-1.9,2.3S686.5,377,686.8,377z"/>
			</g>
		</g>
		<g>
			<g>
				<path class="st29" d="M701.2,377.5c-0.2-0.2-0.3-0.5-0.3-0.8s0.1-0.5,0.3-0.7s0.5-0.3,0.8-0.3s0.5,0.1,0.7,0.3
					c0.2,0.2,0.3,0.5,0.3,0.8s-0.1,0.5-0.3,0.7s-0.5,0.3-0.8,0.3C701.6,377.8,701.4,377.7,701.2,377.5z M699.8,382.5
					c0.1,0.1,0.1,0.1,0.2,0.1c0.1,0,0.2,0,0.2-0.1c0.1-0.1,0.1-0.1,0.1-0.3v-2.7v-0.1c0,0,0-0.1,0.1-0.1s0.1,0,0.1,0h0.1
					c0,0,0.1,0,0.1,0.1l-0.1,6.6c0,0.1,0,0.2,0.1,0.3c0.1,0.1,0.2,0.1,0.3,0.1s0.2,0,0.3-0.1s0.1-0.2,0.1-0.3v-2.6V382
					c0-0.1,0-0.1,0.1-0.1s0.1,0,0.1,0h0.1l0.1,0.1v1.4v2.6c0,0.1,0,0.2,0.1,0.3c0.1,0.1,0.2,0.1,0.3,0.1s0.3,0,0.4-0.1
					c0.1-0.1,0.1-0.2,0.1-0.3l0.1-6.6c0,0,0-0.1,0.1-0.1h0.1h0.1c0,0,0.1,0,0.1,0.1v0.1v2.7c0,0.1,0,0.2,0.1,0.3
					c0.1,0.1,0.1,0.1,0.2,0.1c0.1,0,0.2,0,0.2-0.1c0.1-0.1,0.1-0.1,0.1-0.3v-3c0-0.3-0.1-0.6-0.3-0.8s-0.5-0.4-0.8-0.4h-1.2l0,0
					h-1.1c-0.3,0-0.6,0.1-0.7,0.3c-0.2,0.2-0.2,0.5-0.2,0.8v3C699.7,382.4,699.7,382.4,699.8,382.5z M711.3,374.1
					c0.1,0.1,0.2,0.3,0.2,0.5l-0.2,13.1c0,0.2-0.1,0.3-0.2,0.5c-0.1,0.1-0.3,0.2-0.5,0.2l-12.5-0.2c-0.2,0-0.4-0.1-0.5-0.2
					s-0.2-0.3-0.2-0.5l0.2-13.1c0-0.2,0.1-0.3,0.2-0.5c0.1-0.1,0.3-0.2,0.5-0.2l12.5,0.2C711,373.9,711.2,374,711.3,374.1z
					 M710.4,375l-11.7-0.2l-0.2,12.2l11.7,0.2L710.4,375L710.4,375z M707,377.9c0.3,0,0.5-0.1,0.8-0.3s0.3-0.4,0.3-0.7
					s-0.1-0.5-0.3-0.8c-0.2-0.2-0.4-0.3-0.7-0.3s-0.5,0.1-0.8,0.3c-0.2,0.2-0.3,0.4-0.3,0.7c0,0.3,0.1,0.5,0.3,0.8
					C706.4,377.8,706.7,377.9,707,377.9z M704.8,382.6c0.1,0.1,0.1,0.1,0.2,0.1c0.1,0,0.2,0,0.2-0.1c0.1-0.1,0.1-0.1,0.1-0.3v-2.7
					v-0.1c0,0,0-0.1,0.1-0.1s0.1,0,0.1,0h0.1c0,0,0.1,0,0.1,0.1l-0.1,6.6c0,0.1,0,0.2,0.1,0.3c0.1,0.1,0.2,0.1,0.3,0.1
					s0.2,0,0.3-0.1s0.1-0.2,0.1-0.3v-2.6v-1.4c0-0.1,0-0.1,0.1-0.1s0.1,0,0.1,0h0.1c0.1,0,0.1,0.1,0.1,0.1v1.4v2.6
					c0,0.1,0,0.2,0.1,0.3c0.1,0.1,0.2,0.1,0.3,0.1s0.2,0,0.3-0.1s0.1-0.2,0.1-0.3l0.1-6.6c0,0,0-0.1,0.1-0.1h0.1h0.1
					c0,0,0.1,0,0.1,0.1v0.1v2.7c0,0.1,0,0.2,0.1,0.3c0.1,0.1,0.1,0.1,0.2,0.1c0.1,0,0.2,0,0.2-0.1c0.1-0.1,0.1-0.1,0.1-0.3v-3
					c0-0.3-0.1-0.6-0.3-0.8c-0.2-0.2-0.5-0.4-0.8-0.4h-1.2l0,0l0,0h-1.1c-0.3,0-0.6,0.1-0.8,0.3c-0.2,0.2-0.2,0.5-0.3,0.8v3
					C704.7,382.4,704.8,382.5,704.8,382.6z M716.2,385.9c-0.4,0-1,0-1,0s0-0.2,0-0.4c0-0.8,0-2.3,0-2.9c0,0,0-0.1-0.2-0.1
					s-1.3,0-1.5,0s-0.2,0.2-0.2,0.2c0,0.6,0,2.1,0,2.9c0,0.3,0,0.5,0,0.5s-0.8,0-1.1,0s0,0.3,0,0.3l1.9,2.3c0,0,0.2,0.2,0.3,0
					c0.2-0.2,1.9-2.3,1.9-2.3S716.6,385.9,716.2,385.9z M712.5,376.9c0.4,0,1,0,1,0s0,0.2,0,0.4c0,0.8,0,2.3,0,2.9
					c0,0,0,0.1,0.2,0.1s1.3,0,1.5,0s0.2-0.2,0.2-0.2c0-0.6,0-2.1,0-2.9c0-0.3,0-0.5,0-0.5s0.8,0,1.1,0s0-0.3,0-0.3l-1.9-2.3
					c0,0-0.2-0.2-0.3,0c-0.2,0.2-1.9,2.3-1.9,2.3S712.1,376.9,712.5,376.9z"/>
			</g>
		</g>
		<g>
			<g>
				<g class="st5">
					<g>
						<polygon class="st19" points="176.7,293.4 178.4,300 178.2,304.1 176.6,297.6 						"/>
					</g>
				</g>
			</g>
		</g>
		<g>
			<g>
				<g class="st5">
					<g>
						<polygon class="st30" points="178,297.6 180.2,303.7 181.5,422.8 179.2,410.4 						"/>
					</g>
					<g>
						<polygon class="st11" points="179.2,413.7 181.5,422.8 177.7,422.8 175.3,413.7 						"/>
					</g>
					<g>
						<polygon class="st12" points="177.9,293.4 179.2,413.7 175.3,413.7 173.9,293.4 						"/>
					</g>
				</g>
			</g>
		</g>
		<g>
			<g>
				<g class="st5">
					<g>
						<polygon class="st19" points="220.2,409.4 222.5,418.5 222.4,422.6 220.1,413.5 						"/>
					</g>
					<g>
						<polygon class="st28" points="220.1,413.5 222.4,422.6 181.5,422.8 179.2,413.7 						"/>
					</g>
					<g>
						<polygon class="st20" points="179.1,409.3 220.2,409.4 220.1,413.5 179.2,413.7 						"/>
					</g>
				</g>
			</g>
		</g>
		<g>
			<g>
				<g class="st5">
					<g>
						<polygon class="st9" points="246.4,409.3 248.7,418.4 248.6,422.6 246.3,413.5 						"/>
					</g>
					<g>
						<polygon class="st11" points="246.3,413.5 248.6,422.6 222.4,422.6 220.1,413.5 						"/>
					</g>
					<g>
						<polygon class="st12" points="246.4,409.3 246.3,413.5 220.1,413.5 220.3,409.3 						"/>
					</g>
				</g>
			</g>
		</g>
		<g>
			<polygon class="st27" points="221.7,293.2 221,316.2 195.8,316.2 196.5,293.2 			"/>
		</g>
		<g>
			<g>
				<path class="st29" d="M204.5,301.5c-0.2-0.2-0.3-0.5-0.3-0.8s0.1-0.5,0.3-0.7s0.5-0.3,0.8-0.3s0.5,0.1,0.7,0.3
					c0.2,0.2,0.3,0.5,0.3,0.8s-0.1,0.5-0.3,0.7s-0.5,0.3-0.8,0.3S204.7,301.7,204.5,301.5z M203,306.5c0.1,0.1,0.1,0.1,0.2,0.1
					c0.1,0,0.2,0,0.2-0.1c0.1-0.1,0.1-0.1,0.1-0.3v-2.7v-0.1c0,0,0-0.1,0.1-0.1h0.1h0.1c0,0,0.1,0,0.1,0.1l-0.1,6.6
					c0,0.1,0,0.2,0.1,0.3c0.1,0.1,0.2,0.1,0.3,0.1s0.2,0,0.3-0.1s0.1-0.2,0.1-0.3v-2.6V306c0-0.1,0-0.1,0.1-0.1s0.1,0,0.1,0h0.1
					c0.1,0,0.1,0.1,0.1,0.1v1.4v2.6c0,0.1,0,0.2,0.1,0.3c0.1,0.1,0.2,0.1,0.3,0.1s0.3,0,0.4-0.1c0.1-0.1,0.1-0.2,0.1-0.3l0.1-6.6
					c0,0,0-0.1,0.1-0.1s0.1,0,0.1,0h0.1c0,0,0.1,0,0.1,0.1v0.1v2.7c0,0.1,0,0.2,0.1,0.3s0.1,0.1,0.2,0.1c0.1,0,0.2,0,0.2-0.1
					c0.1-0.1,0.1-0.1,0.1-0.3v-3c0-0.3-0.1-0.6-0.3-0.8c-0.2-0.2-0.5-0.4-0.8-0.4h-1.2l0,0h-1.1c-0.3,0-0.6,0.1-0.7,0.3
					c-0.2,0.2-0.2,0.5-0.2,0.8v3C202.9,306.4,203,306.5,203,306.5z M214.5,298.2c0.1,0.1,0.2,0.3,0.2,0.5l-0.2,13.1
					c0,0.2-0.1,0.3-0.2,0.5c-0.1,0.1-0.3,0.2-0.5,0.2l-12.5-0.2c-0.2,0-0.4-0.1-0.5-0.2s-0.2-0.3-0.2-0.5l0.2-13.1
					c0-0.2,0.1-0.3,0.2-0.5c0.1-0.1,0.3-0.2,0.5-0.2L214,298C214.3,298,214.4,298,214.5,298.2z M213.6,299l-11.7-0.2l-0.2,12.2
					l11.7,0.2L213.6,299L213.6,299z M210.3,301.9c0.3,0,0.5-0.1,0.8-0.3s0.3-0.4,0.3-0.7s-0.1-0.5-0.3-0.8c-0.2-0.2-0.4-0.3-0.7-0.3
					s-0.5,0.1-0.8,0.3c-0.2,0.2-0.3,0.4-0.3,0.7s0.1,0.5,0.3,0.8C209.7,301.8,210,301.9,210.3,301.9z M208.1,306.6
					c0.1,0.1,0.1,0.1,0.2,0.1s0.2,0,0.2-0.1s0.1-0.1,0.1-0.3v-2.7v-0.1c0,0,0-0.1,0.1-0.1h0.1h0.1c0,0,0.1,0,0.1,0.1l-0.1,6.6
					c0,0.1,0,0.2,0.1,0.3c0.1,0.1,0.2,0.1,0.3,0.1s0.2,0,0.3-0.1s0.1-0.2,0.1-0.3v-2.6v-1.4c0-0.1,0-0.1,0.1-0.1s0.1,0,0.1,0h0.1
					c0.1,0,0.1,0.1,0.1,0.1v1.4v2.6c0,0.1,0,0.2,0.1,0.3c0.1,0.1,0.2,0.1,0.3,0.1s0.2,0,0.3-0.1s0.1-0.2,0.1-0.3l0.1-6.6
					c0,0,0-0.1,0.1-0.1h0.1h0.1c0,0,0.1,0,0.1,0.1v0.1v2.7c0,0.1,0,0.2,0.1,0.3c0.1,0.1,0.1,0.1,0.2,0.1c0.1,0,0.2,0,0.2-0.1
					c0.1-0.1,0.1-0.1,0.1-0.3v-3c0-0.3-0.1-0.6-0.3-0.8c-0.2-0.2-0.5-0.4-0.8-0.4h-1.2l0,0l0,0h-1.1c-0.3,0-0.6,0.1-0.8,0.3
					c-0.2,0.2-0.2,0.5-0.3,0.8v3C208,306.5,208,306.5,208.1,306.6z M219.5,309.9c-0.4,0-1,0-1,0s0-0.2,0-0.4c0-0.8,0-2.3,0-2.9
					c0,0,0-0.1-0.2-0.1s-1.3,0-1.5,0s-0.2,0.2-0.2,0.2c0,0.6,0,2.1,0,2.9c0,0.3,0,0.5,0,0.5s-0.8,0-1.1,0s0,0.3,0,0.3l1.9,2.3
					c0,0,0.2,0.2,0.3,0c0.2-0.2,1.9-2.3,1.9-2.3S219.8,309.9,219.5,309.9z M215.7,300.9c0.4,0,1,0,1,0s0,0.2,0,0.4
					c0,0.8,0,2.3,0,2.9c0,0,0,0.1,0.2,0.1s1.3,0,1.5,0s0.2-0.2,0.2-0.2c0-0.6,0-2.1,0-2.9c0-0.3,0-0.5,0-0.5s0.8,0,1.1,0
					s0-0.3,0-0.3l-1.9-2.3c0,0-0.2-0.2-0.3,0c-0.2,0.2-1.9,2.3-1.9,2.3S215.3,300.9,215.7,300.9z"/>
			</g>
		</g>
	</g>
	<polygon class="st20" points="27.3,210.5 30.9,210.5 37.4,288.4 34.3,288.4 	"/>
	<polygon class="st28" points="30.9,210.7 35.4,219.3 41.1,288.2 37.4,288.4 	"/>
</g>
<polygon class="st3" points="572.9,289.1 229,303 229,194.7 572.9,195.2 "/>
</svg>
